<svg id="Layer_1" data-name="Layer 1" xmlns="http://www.w3.org/2000/svg" viewBox="0 0 534.55 534.55"><defs><style>.cls-1{fill:#282a65;}.cls-2{fill:#fff;}</style></defs><title>img10</title><rect class="cls-1" width="534.55" height="534.55"/><path class="cls-2" d="M61.9,315A5.13,5.13,0,0,0,67,309.83v-5a13.24,13.24,0,0,1,11.75-13.32A13,13,0,0,1,93,304.46v8.15a2.33,2.33,0,0,0,1.47,2.17,2.4,2.4,0,0,0,1,.17h0a2.52,2.52,0,0,0,.72-.17,2.33,2.33,0,0,0,1.49-2.18v-8.14A17.73,17.73,0,0,0,80,286.72h0a17.74,17.74,0,0,0-17.74,17.74v4.2a1,1,0,0,1-1,1H51.52a4.11,4.11,0,0,1-4.11-4.11V232.17a4.12,4.12,0,0,1,2-3.52l.26-.15.25-.19L92.82,195a4.16,4.16,0,0,1,3.84,0l42.92,33.33.24.19.26.15a4.13,4.13,0,0,1,2,3.52v73.42A4.12,4.12,0,0,1,138,309.7h-9.72a1,1,0,0,1-1-1V294.77c0-.63,0-1.25-.1-1.87,0-.17,0-.33,0-.5A21.33,21.33,0,0,0,120.55,278c-6.33-6.34-13.81-9.33-22.7-7.67a23.13,23.13,0,0,0-7.55,2.79,22,22,0,0,0-4.7,3.65,11.4,11.4,0,0,1-3.34,2.48,4.17,4.17,0,0,1-5.18-1.1,5,5,0,0,1-1.38-4.75,5.16,5.16,0,0,1,3.06-3.49c2.34-1,4.06.1,5.48,1.57a5.27,5.27,0,0,0,1.23,1,2.34,2.34,0,0,0,2.37-.26l0,0a2.47,2.47,0,0,0,.68-3.38,8.08,8.08,0,0,0-1.27-1.47,10,10,0,0,0-7.76-2.63,10.36,10.36,0,0,0-2.07.47,10.06,10.06,0,0,0-6.08,5.5l0,.07a10.22,10.22,0,0,0-.75,4.05c0,.33,0,.66.08,1A9.95,9.95,0,0,0,77,283.9a10,10,0,0,0,8.18-.57c.2-.1.37-.22.55-.33a12,12,0,0,0,1.11-.8c.62-.5,1.22-1,1.77-1.57a19.07,19.07,0,0,1,22.4-3.52,22.3,22.3,0,0,1,3.07,1.87,19.13,19.13,0,0,1,7.9,12.54,25.72,25.72,0,0,1,.43,3.68l.09,14.66a5.11,5.11,0,0,0,5.12,5.09H138a9.36,9.36,0,0,0,9.37-9.36V232.17a9.34,9.34,0,0,0-4.52-8L99.59,190.61a9.33,9.33,0,0,0-9.7,0L46.67,224.16a9.35,9.35,0,0,0-4.51,8v73.42A9.36,9.36,0,0,0,51.52,315Z" transform="translate(15.27 15.27)"/><path class="cls-2" d="M102.35,267.55a13.48,13.48,0,1,0-13.47-13.47A13.48,13.48,0,0,0,102.35,267.55Zm0-22.21a8.74,8.74,0,1,1-8.74,8.74A8.75,8.75,0,0,1,102.35,245.34Z" transform="translate(15.27 15.27)"/><path class="cls-2" d="M141.3,189.25H126.58c-3.33,0-6,3-6,6.62v4.32a4.3,4.3,0,0,0,1.66,3.39,2.23,2.23,0,0,0,3.59-1.77v-5.94c0-.85.5-1.36.77-1.36H141.3c.27,0,.77.51.77,1.36v21a4.29,4.29,0,0,0,1.65,3.39,2.23,2.23,0,0,0,3.6-1.76V195.87C147.32,192.21,144.62,189.25,141.3,189.25Z" transform="translate(15.27 15.27)"/><path class="cls-2" d="M192.91,187.47v25h33.25v-25h6.3v55.15h-6.3V218.19H192.91v24.43H186.6V187.47Z" transform="translate(15.27 15.27)"/><path class="cls-2" d="M282.19,201.17v41.45h-6.14V233.8c-3.08,5.75-8.75,9.14-16.08,9.14-11.82,0-20-8.75-20-21.12s8.11-21,19.78-21c7.48-.08,13.15,3.31,16.31,9.14v-8.83Zm-6.14,22.38V220.4c-.71-8.35-6.7-14.18-14.9-14.18-8.82,0-15,6.62-15,15.76s6.23,15.68,15,15.68C269.35,237.66,275.34,231.91,276.05,223.55Z" transform="translate(15.27 15.27)"/><path class="cls-2" d="M296.47,201.17l13.24,35.23,13.16-35.23h6.22l-16.31,41.45H306.4l-16.47-41.45Z" transform="translate(15.27 15.27)"/><path class="cls-2" d="M365.5,231.12l3.7,3.31a21.31,21.31,0,0,1-17.33,8.43c-12.37,0-21-8.59-21-21,0-12.06,8.2-20.8,20.49-20.88,10.24-.08,17.65,6.07,19,16.15L338.08,228c2.13,6,7.41,9.7,14.19,9.7C357.39,237.74,361.88,235.53,365.5,231.12ZM337,221.58a13.86,13.86,0,0,0,.08,1.82l27.1-9.38c-2.12-5.28-6.62-7.88-12.53-7.88C342.89,206.14,337,212,337,221.58Z" transform="translate(15.27 15.27)"/><path class="cls-2" d="M418.38,217.09v25.53h-6.14v-24c0-7.41-4.41-11.82-11.74-11.82-8.2.08-13.24,5.51-13.95,13.55v22.22H380.4V201.17h6.15v9.14c2.92-6.3,8.51-9.29,16.08-9.37C412.55,200.94,418.38,207,418.38,217.09Z" transform="translate(15.27 15.27)"/><path class="cls-2" d="M430.35,197.34a5.63,5.63,0,0,1-1.18,3.31l-3.71,5.6H422l2.6-5.68a3.5,3.5,0,0,1-1.74-3.23,3.75,3.75,0,1,1,7.49,0Z" transform="translate(15.27 15.27)"/><path class="cls-2" d="M446.4,206.06c-4.65,0-8.2,1.66-8.2,5.59,0,9.38,23.17,4.58,23.17,19.47,0,8.11-7.25,11.74-15.21,11.74-5.91,0-12-2.05-15.92-5.83l2.37-4.49a21,21,0,0,0,13.79,5.27c4.88,0,8.82-1.89,8.9-6.06.24-10.09-23-5-22.93-19.62,0-7.88,6.86-11.27,14.42-11.27A24.71,24.71,0,0,1,460,204.64l-2.36,4.73A21.88,21.88,0,0,0,446.4,206.06Z" transform="translate(15.27 15.27)"/><path class="cls-2" d="M192.91,261.27v25h33.25v-25h6.3v55.15h-6.3V292H192.91v24.42H186.6V261.27Z" transform="translate(15.27 15.27)"/><path class="cls-2" d="M274.63,304.92l3.7,3.31A21.34,21.34,0,0,1,261,316.66c-12.37,0-21-8.59-21-21,0-12.05,8.19-20.8,20.48-20.88,10.25-.08,17.65,6.07,19,16.15l-32.22,11c2.13,6,7.4,9.69,14.18,9.69C266.51,311.54,271,309.33,274.63,304.92Zm-28.53-9.54a13.86,13.86,0,0,0,.08,1.82l27.11-9.38c-2.13-5.28-6.62-7.88-12.53-7.88C252,279.94,246.1,285.77,246.1,295.38Z" transform="translate(15.27 15.27)"/><path class="cls-2" d="M327.59,275v41.44h-6.15V307.6c-3.07,5.75-8.74,9.14-16.07,9.14-11.82,0-20-8.75-20-21.12s8.11-21,19.77-21c7.49-.08,13.16,3.31,16.31,9.14V275Zm-6.15,22.37V294.2c-.71-8.35-6.7-14.18-14.89-14.18-8.83,0-15.05,6.62-15.05,15.76s6.22,15.68,15.05,15.68C314.74,311.46,320.73,305.71,321.44,297.35Z" transform="translate(15.27 15.27)"/><path class="cls-2" d="M363.54,274.74v6c-8.75-.16-14.19,5.28-14.9,13.63v22.06H342.5V275h6.14v9.22C351.4,278.13,356.52,274.82,363.54,274.74Z" transform="translate(15.27 15.27)"/><path class="cls-2" d="M390.73,313.58a17.15,17.15,0,0,1-9.3,3.08c-6.31,0-10.72-4.41-10.72-13.32v-38h6.07v10.88h13.16V281H376.78v21.28c0,5.91,2,8.67,5.59,8.67a13.27,13.27,0,0,0,6.54-2.13Z" transform="translate(15.27 15.27)"/><path class="cls-2" d="M438.4,290.89v25.53h-6.14V292.47c0-7.41-4.42-11.82-11.74-11.82-8.83.08-14,6.38-14,15.44v20.33h-6.15V258h6.15v26.31c2.84-6.46,8.51-9.45,16.15-9.53C432.57,274.74,438.4,280.81,438.4,290.89Z" transform="translate(15.27 15.27)"/></svg>