<svg id="Layer_1" data-name="Layer 1" xmlns="http://www.w3.org/2000/svg" viewBox="0 0 515.8 515.8"><defs><style>.cls-1{fill:#349f70;}.cls-2{fill:#bbb;}.cls-3{fill:#d9d8d6;}.cls-4{fill:#fff;}.cls-5{fill:#9c9c9d;}</style></defs><title>img11</title><rect class="cls-1" width="515.8" height="515.8"/><polygon class="cls-2" points="312.06 167.2 290.25 195.37 327.46 195.24 346.59 190.59 312.06 167.2"/><polygon class="cls-2" points="258.36 167.01 258.36 175.82 280.2 175.82 303.99 175.82 310.82 167.01 258.36 167.01"/><polygon class="cls-2" points="258.36 204.15 258.36 269.4 284.37 206.77 288.24 196.71 258.36 204.15"/><polygon class="cls-2" points="209.43 226.56 187.78 196.27 169.76 191.89 209.43 226.56"/><polygon class="cls-2" points="257.27 203.02 257.27 177.36 244.08 185.49 227.88 195.71 257.27 203.02"/><polygon class="cls-3" points="345.87 191.89 327.85 196.27 306.2 226.56 345.87 191.89"/><polygon class="cls-3" points="258.36 177.36 258.36 203.02 287.75 195.71 271.55 185.48 258.36 177.36"/><polygon class="cls-3" points="169.04 190.59 188.17 195.24 225.38 195.37 203.57 167.2 169.04 190.59"/><polygon class="cls-3" points="235.43 175.82 257.27 175.82 257.27 167.01 204.81 167.01 211.64 175.82 235.43 175.82"/><polygon class="cls-3" points="231.27 206.78 257.27 269.4 257.27 204.15 227.39 196.71 231.27 206.78"/><path class="cls-3" d="M430,297.29l-357.25,2.5v-7.31L430,295a1.16,1.16,0,0,1,1.15,1.15h0A1.16,1.16,0,0,1,430,297.29Z" transform="translate(5.9 5.9)"/><path class="cls-4" d="M137,341.11c.54.09.81.37.81.85v6.81c0,1-.82,1.54-2.44,1.54h-5.56V333.59h5.68c1.54,0,2.32.53,2.32,1.59v5.21Q137.76,341,137,341.11Zm-4.77-5.94v5.22h3.18v-5.22Zm0,6.79v6.77h3.18V342Z" transform="translate(5.9 5.9)"/><path class="cls-4" d="M161.09,350.31V333.59h2.42v16.72Z" transform="translate(5.9 5.9)"/><path class="cls-4" d="M189.24,348.73h4v1.58h-6.41V333.59h2.42Z" transform="translate(5.9 5.9)"/><path class="cls-4" d="M219,348.73h4v1.58h-6.4V333.59H219Z" transform="translate(5.9 5.9)"/><path class="cls-4" d="M246.35,350.31V333.59h2.41v16.72Z" transform="translate(5.9 5.9)"/><path class="cls-4" d="M280.08,350.31h-2.4V342H274.5v8.35h-2.42V335.18c0-1.06.77-1.59,2.3-1.59h3.38c1.54,0,2.32.53,2.32,1.59Zm-2.4-15.14H274.5v5.22h3.18Z" transform="translate(5.9 5.9)"/><path class="cls-4" d="M311.41,350.31H309V342h-3.18v8.35h-2.42V333.59h5.68c1.55,0,2.32.53,2.32,1.59v5.21q0,.58-.81.72c.54.09.81.37.81.85Zm-5.58-15.14v5.22H309v-5.22Z" transform="translate(5.9 5.9)"/><path class="cls-4" d="M334.74,350.31V333.59h5.68c1.55,0,2.32.53,2.32,1.59v13.59c0,1-.81,1.54-2.44,1.54Zm2.42-1.58h3.18V335.17h-3.18Z" transform="translate(5.9 5.9)"/><path class="cls-4" d="M368.49,348.73h3.19V342h-3.19c-1.61,0-2.41-.51-2.41-1.55v-5.23c0-1.06.76-1.59,2.29-1.59h3.39q2.31,0,2.31,1.59v2.59h-2.39v-2.6h-3.19v5.22h3.19c1.59,0,2.39.52,2.39,1.57v6.81c0,1-.81,1.54-2.44,1.54h-3.12c-1.62,0-2.43-.51-2.43-1.54v-4.72h2.41Z" transform="translate(5.9 5.9)"/><path class="cls-5" d="M126.75,297.42c0,.7,0,1.33-.06,2l7.76-.06c0-.63.08-1.24.08-1.92a35,35,0,0,0-.31-4.5l-7.69-.05C126.66,294.28,126.75,295.77,126.75,297.42Z" transform="translate(5.9 5.9)"/><polygon class="cls-5" points="112.08 305.44 112.08 298.63 105.4 298.58 105.4 305.49 112.08 305.44"/><polygon class="cls-5" points="152.13 298.91 152.13 305.16 158.75 305.11 158.75 298.95 152.13 298.91"/><path class="cls-5" d="M183.1,293.27l2.26,5.72,7.18-.05c-.72-1.78-1.47-3.66-2.27-5.62Z" transform="translate(5.9 5.9)"/><polygon class="cls-5" points="255.81 299.63 255.81 304.43 262.3 304.39 262.3 299.68 255.81 299.63"/><polygon class="cls-5" points="229.45 304.62 237.35 304.56 235.03 299.49 227.06 299.43 229.45 304.62"/><path class="cls-5" d="M300,297.62c0,.19,0,.37,0,.57l7.45-.06c0-.17,0-.34,0-.51a33,33,0,0,0-.2-3.48l-7.35-.06C299.94,295.21,300,296.37,300,297.62Z" transform="translate(5.9 5.9)"/><path class="cls-5" d="M273.05,297.62c0-1.32.05-2.54.11-3.72l-7.28,0a33.21,33.21,0,0,0-.22,3.77c0,.27,0,.53,0,.8l7.38-.05C273.07,298.12,273.05,297.88,273.05,297.62Z" transform="translate(5.9 5.9)"/><polygon class="cls-5" points="346.84 303.8 344.09 300.25 335.45 300.19 338.3 303.86 346.84 303.8"/><path class="cls-5" d="M396.73,297.42s0,.06,0,.09l7.78-.06v0c0-.91-.05-1.76-.1-2.6l-7.75-.06C396.69,295.62,396.73,296.49,396.73,297.42Z" transform="translate(5.9 5.9)"/><polygon class="cls-5" points="382.06 303.55 382.06 300.52 375.37 300.47 375.37 303.6 382.06 303.55"/><path class="cls-4" d="M108.25,274.67v45.25h-11v-.84c2.64-.06,4.31-2.5,4.31-6.81v-30c0-3.93-1.61-6.69-4.31-6.75v-.84Zm28.35,22.75c0,18.26-11.38,22.11-23.33,22.43v-.77c6.81-.25,15.55-2.44,15.55-21.66,0-18.76-8.68-21.53-15.55-21.85v-.83C125.22,275.19,136.6,279.62,136.6,297.42Z" transform="translate(5.9 5.9)"/><path class="cls-4" d="M159.42,274.67v.84c-2.77,0-4.5,1.09-4.5,5.07V313c0,4.37,1.8,6,4.5,6v.84H143.8v-.84c2.76,0,4.5-1.67,4.5-6V280.58c0-4-1.67-5.07-4.5-5.07v-.84Z" transform="translate(5.9 5.9)"/><path class="cls-4" d="M205.83,319.08v.84H191.17v-.84c3.47,0,2.83-3.66,1.29-7.26l-2.19-5.59H173.63c-1.81,5.14-4.57,13.11,4.36,12.85v.84H163.66v-.84c2.38-.06,3.92-.38,9-13.69H190L181,282.71l3-8h.64c7.91,18.9,15.87,39.21,15.87,39.21C202.68,319,204,319,205.83,319.08Z" transform="translate(5.9 5.9)"/><path class="cls-4" d="M226,319.08v.84H207.82v-.84c7.91,0,9.07-7.9,9.07-15.17h.83C217.72,311.37,218.81,319.08,226,319.08Zm-3.47-44.41L239.64,312l-3.15,8.49h-.84l-18.83-40.88a7.88,7.88,0,0,0-7.07-4.11v-.84Zm41.26,44.41v.84H247.35v-.84c2.7,0,4.63-1.48,4.63-6.68V274.67h11.44v.84c-2.76,0-4.95,1.28-4.95,5.65V312.4C258.47,317.6,261,319.08,263.8,319.08Z" transform="translate(5.9 5.9)"/><path class="cls-4" d="M286.05,319.47v.9c-12.34-1.16-18.32-10.8-18.32-22.75s6-22.18,18.32-23.4v.9c-6.43,1.09-10.93,6.88-10.93,22.5S279.62,318.5,286.05,319.47Zm5,.9v-.9c6.43-1,11-6.17,11-21.85s-4.56-21.41-11-22.5v-.9c12.41,1.22,18.45,11.44,18.45,23.4S303.47,319.21,291.06,320.37Z" transform="translate(5.9 5.9)"/><path class="cls-4" d="M325,274.67l28.61,36.89v8.36h-2.06l-30.79-39.59c-4.11-5.14-6-4.69-7.65-4.82v-.84Zm7.65,44.41v.84H314.08v-.84c9.32,0,9.25-9.44,9.25-15.23h.9C324.23,309.57,324.23,319.08,332.65,319.08Zm11.7-44.41h18.38v.84c-9.32-.07-9.12,9.19-9.12,15.16h-.84c0-6,.06-15.23-8.42-15.16Z" transform="translate(5.9 5.9)"/><path class="cls-4" d="M378.23,274.67v45.25h-11v-.84c2.63-.06,4.3-2.5,4.3-6.81v-30c0-3.93-1.6-6.69-4.3-6.75v-.84Zm28.34,22.75c0,18.26-11.37,22.11-23.33,22.43v-.77c6.81-.25,15.56-2.44,15.56-21.66,0-18.76-8.68-21.53-15.56-21.85v-.83C395.2,275.19,406.57,279.62,406.57,297.42Z" transform="translate(5.9 5.9)"/></svg>