<svg id="Layer_1" data-name="Layer 1" xmlns="http://www.w3.org/2000/svg" viewBox="0 0 504 504"><defs><style>.cls-1{fill:#804c3b;}.cls-2{fill:#e0c5ac;}.cls-3{fill:#f5acb8;}</style></defs><title>img2</title><rect class="cls-1" x="-15.27" y="-15.27" width="534.55" height="534.55"/><circle class="cls-1" cx="251.92" cy="251.92" r="209.12" transform="translate(-104.35 251.92) rotate(-45)"/><path class="cls-2" d="M112.4,300.1c.57,9.3,12.37,13.62,29.78,12.18,1.8,1.89,2.88,4.29,5.76,5.42h98.45v13.82H224.18c-9.25.72-18.11,2.3-21.66,5.58,0,0-17.2.36-17.2,8H318.51c0-7.68-17.19-8-17.19-8-3.56-3.28-12.42-4.86-21.67-5.58H257.92V318h74.92c7.85,0,19.22,1.23,25-.34,2.92-.8,3.3-3.35,5.76-4.74,16.85,1,26.62-2.91,27.86-12.86Z"/><path class="cls-3" d="M303.45,163.41q-3.15,5.52-5.51,10.09c-.68,1.31-1.33,2.6-2,3.88s-1.17,2.46-1.63,3.54a26.42,26.42,0,0,0-1,2.78,2.64,2.64,0,0,0-.16,1.56c.12.29.37.34.76.16a6.59,6.59,0,0,0,1.4-1,21.2,21.2,0,0,0,1.79-1.78c.66-.71,1.32-1.45,2-2.23,1.57-1.84,3.31-4,5.23-6.53l.36.62q-2.94,3.84-5.66,6.89c-.78.87-1.57,1.73-2.38,2.58s-1.6,1.61-2.38,2.28a20.69,20.69,0,0,1-2.19,1.71,4.7,4.7,0,0,1-1.8.8,2.77,2.77,0,0,1-1.56-.15,1.47,1.47,0,0,1-.78-1.16,6.29,6.29,0,0,1,.17-2.38,23.37,23.37,0,0,1,1.27-3.82,36.07,36.07,0,0,1-2.53,3,23,23,0,0,1-2.54,2.38,11.65,11.65,0,0,1-2.41,1.54,5.05,5.05,0,0,1-2.1.55,2.13,2.13,0,0,1-1.93-1,5,5,0,0,1-.58-2.72A15.25,15.25,0,0,1,278,181a28,28,0,0,1,2.08-4.93,37,37,0,0,1,3.05-4.94,33.28,33.28,0,0,1,3.45-4,19.41,19.41,0,0,1,3.39-2.7,5.94,5.94,0,0,1,3-1,2.15,2.15,0,0,1,2.23,1.65,8.86,8.86,0,0,1-.05,4.38c.48-.92,1-1.88,1.56-2.89s1.14-2.05,1.77-3.14Zm-21,23.44a2.85,2.85,0,0,0,1.43-.58,13.51,13.51,0,0,0,1.94-1.59,27.14,27.14,0,0,0,2.2-2.42,36.69,36.69,0,0,0,2.23-3.06q1.41-3.16,3.74-7.59a13.26,13.26,0,0,0,.8-4.57c-.08-1.16-.45-1.74-1.13-1.74a2.8,2.8,0,0,0-1.67.85,16.56,16.56,0,0,0-2.1,2.31,33.83,33.83,0,0,0-2.32,3.43q-1.2,2-2.36,4.19t-2,4.21a26,26,0,0,0-1.25,3.41,6.46,6.46,0,0,0-.31,2.3C281.65,186.57,281.93,186.85,282.41,186.85Z"/><path class="cls-3" d="M301.28,188.78h-4.94l13.17-25.37h5l-3.59,6.93a36.56,36.56,0,0,1,2.52-2.81,21.09,21.09,0,0,1,2.53-2.19,12.68,12.68,0,0,1,2.37-1.42,5.13,5.13,0,0,1,2.05-.51,3.89,3.89,0,0,1,2.16.55,2.35,2.35,0,0,1,1,2,10.49,10.49,0,0,1-.69,3.88,42.44,42.44,0,0,1-2.79,6.28c-.34.63-.77,1.39-1.29,2.3s-1,1.81-1.43,2.72a16.79,16.79,0,0,0-1,2.54,2.21,2.21,0,0,0,.05,1.8c.13.22.39.21.79,0a8.59,8.59,0,0,0,1.41-1.09c.54-.49,1.15-1.1,1.81-1.81s1.34-1.46,2-2.23q2.36-2.73,5.26-6.39l.4.62q-3.12,4-6,7.14c-.83.9-1.67,1.78-2.54,2.64s-1.72,1.62-2.54,2.28a18.13,18.13,0,0,1-2.34,1.62,4.14,4.14,0,0,1-1.95.61,1.3,1.3,0,0,1-1.18-.54,2.66,2.66,0,0,1-.34-1.43,8.54,8.54,0,0,1,.29-2,24,24,0,0,1,.73-2.34,49.81,49.81,0,0,1,2.83-6.38c.77-1.48,1.44-2.88,2-4.19a29.56,29.56,0,0,0,1.25-3.43,6.4,6.4,0,0,0,.33-2.31c-.06-.57-.32-.85-.78-.85a3.13,3.13,0,0,0-1.52.58,13.61,13.61,0,0,0-2.07,1.63A32.32,32.32,0,0,0,311.8,170a30.25,30.25,0,0,0-2.36,3.14Z"/><path class="cls-3" d="M327.18,174.41l8.39-11h5q-3.19,5.52-5.56,10.09c-.67,1.31-1.33,2.6-2,3.88s-1.18,2.46-1.64,3.54a21.84,21.84,0,0,0-1,2.78,2.7,2.7,0,0,0-.15,1.56c.12.29.39.34.8.16a7.64,7.64,0,0,0,1.52-1,22.24,22.24,0,0,0,2-1.78c.72-.71,1.45-1.45,2.18-2.23q2.56-2.76,5.77-6.53l.36.62q-3.27,3.84-6.21,6.89c-.84.87-1.71,1.73-2.59,2.58s-1.73,1.61-2.54,2.28a21.28,21.28,0,0,1-2.31,1.71,5.07,5.07,0,0,1-1.85.8,2,2,0,0,1-2-.6c-.41-.55-.43-1.61-.07-3.2a37.62,37.62,0,0,1,2.43-6.55q1.89-4.17,5.44-10.7L327.51,175Zm18.42-18.56c-1.94,1.25-2.9-.76-4.35-1.1.84-1.52,3.36-1.94,4.32-1.2A3.7,3.7,0,0,1,345.6,155.85Zm-2.1-5.73c.43,2.43-1.61,2.67-2.41,4-1-1.43-.51-4.14.44-4.84A3,3,0,0,1,343.5,150.12Zm-5.17.58c2,.28,1.65,2.34,2.47,3.51-1.37.58-3.33-.7-3.62-1.83A3.16,3.16,0,0,1,338.33,150.7ZM337,156.49c1.13-2.07,2.58-1,3.87-1.57-.18,1.69-2.08,3.42-3.09,3.36A2.77,2.77,0,0,1,337,156.49Zm5,3.62c-1.81-1.75-.54-3.19-.84-4.78,1.62.54,3,3.11,2.74,4.27A2.43,2.43,0,0,1,342,160.11Z"/><path class="cls-3" d="M281.13,269q-3.51,6.13-6.13,11.22c-.76,1.45-1.48,2.89-2.18,4.31s-1.31,2.74-1.82,3.93a31.07,31.07,0,0,0-1.15,3.09,3,3,0,0,0-.18,1.73c.14.33.42.39.85.19a7.59,7.59,0,0,0,1.55-1.09,26.2,26.2,0,0,0,2-2c.72-.79,1.46-1.62,2.22-2.48q2.61-3.06,5.8-7.26l.41.69q-3.27,4.28-6.29,7.66c-.87,1-1.75,1.92-2.65,2.86s-1.78,1.79-2.64,2.54a22.42,22.42,0,0,1-2.44,1.9,5,5,0,0,1-2,.89,3.09,3.09,0,0,1-1.73-.16,1.65,1.65,0,0,1-.87-1.29,7.11,7.11,0,0,1,.18-2.65,28.29,28.29,0,0,1,1.42-4.25,39.22,39.22,0,0,1-2.81,3.39,26.07,26.07,0,0,1-2.82,2.64,13.53,13.53,0,0,1-2.68,1.71,5.5,5.5,0,0,1-2.34.61,2.34,2.34,0,0,1-2.14-1.11,5.46,5.46,0,0,1-.64-3,16.84,16.84,0,0,1,.82-4.49,32.37,32.37,0,0,1,2.32-5.49,41.15,41.15,0,0,1,3.39-5.48,35.28,35.28,0,0,1,3.83-4.48,21.38,21.38,0,0,1,3.77-3,6.55,6.55,0,0,1,3.29-1.11,2.4,2.4,0,0,1,2.48,1.84,9.73,9.73,0,0,1-.06,4.86c.54-1,1.11-2.09,1.73-3.21s1.28-2.28,2-3.49ZM257.73,295a3.23,3.23,0,0,0,1.6-.65,15.65,15.65,0,0,0,2.15-1.77,30.33,30.33,0,0,0,2.44-2.68,37.5,37.5,0,0,0,2.48-3.41q1.58-3.51,4.16-8.43a14.65,14.65,0,0,0,.89-5.08c-.08-1.29-.5-1.94-1.25-1.94a3.13,3.13,0,0,0-1.86.95,17.89,17.89,0,0,0-2.34,2.56,43.09,43.09,0,0,0-2.58,3.81q-1.34,2.21-2.62,4.66t-2.24,4.68a28.65,28.65,0,0,0-1.39,3.79,7.14,7.14,0,0,0-.34,2.56C256.89,294.72,257.2,295,257.73,295Z"/><path class="cls-3" d="M273.42,297.18q13.56-26.55,25.21-46.87,3.3-5.76,6.65-11.39t6.56-10.63q3.21-5,6.15-9.16t5.44-7a26,26,0,0,1,4.46-4.22c1.3-.9,2.36-1.15,3.17-.75s1.32,1.4,1.23,2.81a16.78,16.78,0,0,1-1.5,5.26,63.58,63.58,0,0,1-3.75,7.2q-2.4,4.05-5.46,8.61t-6.66,9.48q-3.59,4.92-7.36,9.86t-7.54,9.7q-3.76,4.76-7.2,9-3.39,6.64-6.17,12.26T282,290.84q1.41-2,3.21-4.43t3.77-4.86q2-2.44,4.05-4.72a55.31,55.31,0,0,1,4.08-4.05,23.92,23.92,0,0,1,3.83-2.85,6.76,6.76,0,0,1,3.33-1.07,3.08,3.08,0,0,1,2.62,1.07,4.12,4.12,0,0,1,.74,2.68,8.85,8.85,0,0,1-.92,3.43,11.92,11.92,0,0,1-2.44,3.35,11.74,11.74,0,0,1-3.76,2.44,10,10,0,0,1-4.84.67,26.64,26.64,0,0,0-2.21,5.08,14.71,14.71,0,0,0-.51,2,6.89,6.89,0,0,0-.08,2,4.65,4.65,0,0,0,.49,1.67,2.47,2.47,0,0,0,1.23,1.15,2.29,2.29,0,0,0,1.91.08,8.27,8.27,0,0,0,2.28-1.27,20,20,0,0,0,2.46-2.19c.83-.86,1.64-1.76,2.42-2.71a83.47,83.47,0,0,0,5.77-7.82l.68.36a62.22,62.22,0,0,1-5.92,8.11c-.89,1-1.83,2-2.83,3a29.23,29.23,0,0,1-3.06,2.61,16.9,16.9,0,0,1-3.17,1.83,7.92,7.92,0,0,1-3.17.69,3.72,3.72,0,0,1-2.46-.73,3.54,3.54,0,0,1-1.13-1.9,8.3,8.3,0,0,1-.12-2.68,18.43,18.43,0,0,1,.61-3.08,46.85,46.85,0,0,1,3.35-8.43,6.33,6.33,0,0,0,4,1.11,7.13,7.13,0,0,0,3.43-1.35,10.84,10.84,0,0,0,2.62-2.81,13.26,13.26,0,0,0,1.59-3.24,5.71,5.71,0,0,0,.32-2.69q-.18-1.11-1.14-1.11a5.67,5.67,0,0,0-3,1.17,26.74,26.74,0,0,0-3.67,3.07q-1.93,1.89-4,4.31c-1.37,1.62-2.7,3.27-4,5q-4.54,6-9.43,13.51Zm57.19-88.53c-.53-.35-1.27-.16-2.22.56a20.89,20.89,0,0,0-3.3,3.47c-1.27,1.59-2.67,3.54-4.22,5.87s-3.17,4.91-4.88,7.76-3.47,5.9-5.3,9.16-3.67,6.59-5.53,10-3.69,6.89-5.52,10.39-3.59,6.91-5.29,10.24q3.31-4.15,6.84-8.67t7-9.12q3.45-4.59,6.73-9.15t6.09-8.73q2.81-4.19,5-7.87a69.34,69.34,0,0,0,3.55-6.55,19.81,19.81,0,0,0,1.66-4.78C331.43,210,331.23,209.1,330.61,208.65Z"/><path class="cls-3" d="M327.71,269.35a2.6,2.6,0,0,1,1.53,1.81,4.74,4.74,0,0,1-.3,2.62,12.19,12.19,0,0,1-1.74,3.05,23.91,23.91,0,0,1-2.7,3,27.69,27.69,0,0,1-3.24,2.67,18.77,18.77,0,0,1-3.39,1.89,8.58,8.58,0,0,1-3.11.71,3.26,3.26,0,0,1-2.38-.87,35.49,35.49,0,0,0-1.65,4.13,15.15,15.15,0,0,0-.75,3.53,4.26,4.26,0,0,0,.45,2.48,2,2,0,0,0,1.87,1,5.13,5.13,0,0,0,2.38-.62,19.44,19.44,0,0,0,2.91-1.8c1-.75,2.07-1.6,3.16-2.56s2.14-1.94,3.17-3q3.63-3.56,7.5-8.11l.48.52A95.79,95.79,0,0,1,321.42,291q-2.15,1.84-4.32,3.38a18.29,18.29,0,0,1-4.21,2.28,7.62,7.62,0,0,1-3.76.49,4.23,4.23,0,0,1-2.88-2,6.6,6.6,0,0,1-1.13-3.81,13.08,13.08,0,0,1,.85-4.5,25,25,0,0,1,2.36-4.76,35.16,35.16,0,0,1,3.45-4.6,38.61,38.61,0,0,1,4.11-4,25.43,25.43,0,0,1,4.32-3,14.29,14.29,0,0,1,4.07-1.52A5.37,5.37,0,0,1,327.71,269.35Zm-2.34.48a3.25,3.25,0,0,0-2.74.69,17.39,17.39,0,0,0-3.29,3A39.93,39.93,0,0,0,316,278a51.9,51.9,0,0,0-3,5.16,2.16,2.16,0,0,0,1.79,1.09,4.66,4.66,0,0,0,2.36-.62,14.44,14.44,0,0,0,2.6-1.86,22,22,0,0,0,2.54-2.64,27.72,27.72,0,0,0,2.14-3,16.15,16.15,0,0,0,1.45-2.82,5.44,5.44,0,0,0,.45-2.26A1.28,1.28,0,0,0,325.37,269.83Z"/><path class="cls-3" d="M336.94,274.35c-.48.56-1,1.18-1.61,1.83l-1.81,2-1.82,2-1.65,1.89h-1c1.4-1.66,2.66-3.16,3.79-4.47s2.15-2.42,3.07-3.31h-.65a3.88,3.88,0,0,1-2.08-.49,2.55,2.55,0,0,1-1.08-1.23A2.81,2.81,0,0,1,332,271a3.37,3.37,0,0,1,.83-1.61,5.3,5.3,0,0,1,1.84-1.27,7.94,7.94,0,0,1,2.82-.61,3.06,3.06,0,0,1,1.91.43,1.57,1.57,0,0,1,.67,1.23,3.64,3.64,0,0,1-.46,1.77,8.38,8.38,0,0,1-1.48,2l5.41,0h0a6.5,6.5,0,0,1,3.1.6,2.27,2.27,0,0,1,1.19,2,8.22,8.22,0,0,1-.78,3.53,37.22,37.22,0,0,1-2.83,5.32l-.92,1.62c-.35.61-.69,1.25-1,1.91s-.62,1.31-.89,2a9,9,0,0,0-.56,1.73,2.61,2.61,0,0,0,0,1.27.73.73,0,0,0,.74.55,2.2,2.2,0,0,0,1.27-.51,17.66,17.66,0,0,0,1.78-1.43c.66-.59,1.35-1.27,2.08-2s1.43-1.55,2.13-2.36c1.67-1.88,3.44-4,5.33-6.49l.4.69a96.77,96.77,0,0,1-6.57,7.94c-.92,1-1.88,2-2.89,2.93a36.4,36.4,0,0,1-3,2.54,18.07,18.07,0,0,1-2.87,1.79,5.79,5.79,0,0,1-2.56.69,1.4,1.4,0,0,1-1.29-.57,2.47,2.47,0,0,1-.3-1.51,9.68,9.68,0,0,1,.42-2.14,20.12,20.12,0,0,1,.93-2.44,66.41,66.41,0,0,1,3.51-6.65q1.57-2.67,2.74-4.5a14.52,14.52,0,0,0,1.55-3c.26-.76.19-1.29-.22-1.62a4.48,4.48,0,0,0-2.54-.48Zm.93-5.73a2.61,2.61,0,0,0-1.73.69A3.58,3.58,0,0,0,335,270.8a1.62,1.62,0,0,0,.12,1.49c.28.46.93.69,2,.69a8.24,8.24,0,0,0,1.29-1.78,3.53,3.53,0,0,0,.42-1.39,1.22,1.22,0,0,0-.26-.89A.92.92,0,0,0,337.87,268.62Z"/><path class="cls-3" d="M379.05,280.68l.93.12-43.12,70.42a32.37,32.37,0,0,1-2.3,3.59,14.58,14.58,0,0,1-1.05,1.33,9.67,9.67,0,0,1-1.16,1.15,6.2,6.2,0,0,1-1.23.81,2.86,2.86,0,0,1-1.24.3,1.57,1.57,0,0,1-1.77-1.35,8.42,8.42,0,0,1,.42-3.63,39.71,39.71,0,0,1,2.06-5.3q1.4-3,3.13-6.4c1.15-2.24,2.37-4.53,3.65-6.85s2.48-4.57,3.61-6.72q1.13-2.13,2.92-5.42l4-7.24q2.16-4,4.6-8.37l4.9-8.87q2.46-4.47,4.84-8.74l4.44-7.94c-1.37,1.85-2.85,3.72-4.44,5.58s-3.12,3.55-4.6,5a40.14,40.14,0,0,1-4.07,3.61,5.69,5.69,0,0,1-2.9,1.39,1.84,1.84,0,0,1-1.9-1.09,5.46,5.46,0,0,1-.1-3,23.25,23.25,0,0,1,1.39-4.47q1-2.58,2.58-5.57c1.05-2,2.09-3.87,3.13-5.57s2-3.17,2.84-4.43c1-1.48,1.91-2.83,2.82-4h5.25q-1.65,2.25-3.27,4.67c-.91,1.37-1.87,2.89-2.88,4.54s-1.91,3.26-2.68,4.82l-2.24,4.46c-.72,1.41-1.29,2.65-1.74,3.73a14.23,14.23,0,0,0-.84,2.56c-.13.63,0,.95.38.95.21,0,.65-.29,1.31-.85s1.45-1.32,2.38-2.26,1.94-2,3-3.27,2.22-2.52,3.33-3.87,2.19-2.69,3.23-4.05,1.94-2.63,2.72-3.81c.62-1.13,1.2-2.17,1.73-3.11s1-1.76,1.38-2.46.86-1.53,1.21-2.18h5.48l-3.79,6.4q-2.34,3.93-5.24,8.87T364,294.8q-3.3,5.68-6.7,11.61t-6.75,11.86q-3.36,5.93-6.32,11.35t-5.42,10.13q-2.46,4.69-4.12,8.16a49.49,49.49,0,0,0-2.29,5.45c-.43,1.32-.45,2-.05,2s1.07-.84,2.22-2.5,2.7-4.06,4.62-7.16,4.21-6.87,6.86-11.3,5.65-9.39,9-14.92,7.05-11.55,11.07-18.07S374.43,288,379.05,280.68Z"/><path class="cls-3" d="M119.81,294.66a72.3,72.3,0,0,0,18.88-8,71.84,71.84,0,0,0,19.67,8.07,106.89,106.89,0,0,0,26.94,3,102.28,102.28,0,0,0,41.12-8.41,85.28,85.28,0,0,0,16.12-9.16,80,80,0,0,0,12.64-11.29,43.26,43.26,0,0,0,12.83-6.8,60.85,60.85,0,0,0,12.26-12.9l-1-.69a61.79,61.79,0,0,1-10.82,11.42,39.25,39.25,0,0,1-11,6.27,57,57,0,0,0,8.06-13.36,39.52,39.52,0,0,0,3.23-13.51,29.7,29.7,0,0,0-2.13-12.68,28.44,28.44,0,0,0-7.94-10.82,44.77,44.77,0,0,0-14.24-7.93,80.14,80.14,0,0,0-21-4.11,67.16,67.16,0,0,0,17.13-4.14,63.83,63.83,0,0,0,13.76-7.37,53.49,53.49,0,0,0,10.23-9.44,43.8,43.8,0,0,0,6.49-10.35,29.57,29.57,0,0,0,2.54-10.07,16.94,16.94,0,0,0-1.57-8.63,14.05,14.05,0,0,0-5.89-6.05,21,21,0,0,0-10.45-2.29c-22.28,0-39.31,17.92-51.66,34.5-12.11,16.25-21.17,34.51-30.83,52.26a92,92,0,0,0-13.48-6,40,40,0,0,0-13.18-2.32,4,4,0,0,0-.53,0,2.37,2.37,0,0,1-.47,0s-2,0-2.95.19a29.67,29.67,0,0,0-8.4,2.26,27.22,27.22,0,0,0-6.84,4.3,25.93,25.93,0,0,0-5.11,6,29,29,0,0,0-3.23,7.28l-.69,2.63a32,32,0,0,0-.44,9.66,34.52,34.52,0,0,0,2.57,10,40.61,40.61,0,0,0,5.74,9.6,45.47,45.47,0,0,0,9.13,8.6,57.19,57.19,0,0,1-8.13,5.14,55.15,55.15,0,0,1-8.94,3.67Zm.75-50.87a28.81,28.81,0,0,1,3.2-6.46A25.65,25.65,0,0,1,128.5,232a24.22,24.22,0,0,1,6.18-3.8,26.14,26.14,0,0,1,7.46-1.91l3.2-.19a29.81,29.81,0,0,1,11.83,3,122.5,122.5,0,0,1,13.7,7.43q-4.51,8.1-8.72,15.09t-8.37,12.89a115.4,115.4,0,0,1-8.47,10.66,70,70,0,0,1-8.94,8.41,41.45,41.45,0,0,1-9.22-8.44,38.93,38.93,0,0,1-5.61-9.47,32.34,32.34,0,0,1-2.36-9.78,30.8,30.8,0,0,1,.69-9.45Zm116.12,36.79a69.42,69.42,0,0,1-13.9,8.12,85.36,85.36,0,0,1-17.09,5.43,97.47,97.47,0,0,1-20.2,2,108.6,108.6,0,0,1-26.32-2.83A73.89,73.89,0,0,1,140,285.82a76.8,76.8,0,0,0,10.94-8.56,102.25,102.25,0,0,0,9.69-10.48,143,143,0,0,0,8.82-12.2q4.23-6.53,8.31-13.74,5.26,3.45,10.88,7.18T200,255.24q5.78,3.48,11.67,6.52A99.48,99.48,0,0,0,223.53,267a67.4,67.4,0,0,0,11.95,3.14,46.31,46.31,0,0,0,11.86.4A65.9,65.9,0,0,1,236.68,280.58Zm12.54-12.45a37.07,37.07,0,0,1-11.38-.63,63.73,63.73,0,0,1-11.51-3.57,101.62,101.62,0,0,1-11.58-5.71q-5.81-3.33-11.57-7.06t-11.51-7.59q-5.74-3.85-11.45-7.31c1.76-3.17,3.5-6.41,5.24-9.69,5.08-9.6,10.45-19,15.68-28.57q4.92-9,9.63-17.5A149.1,149.1,0,0,1,222,164.63a61.42,61.42,0,0,1,10.69-10.42,37.65,37.65,0,0,1,11-5.71,40.82,40.82,0,0,1,12.17-1.75,11,11,0,0,1,11.67,8.88,21.45,21.45,0,0,1-.06,9.06,38.24,38.24,0,0,1-3.8,10.38,51.24,51.24,0,0,1-7.37,10.38,52.77,52.77,0,0,1-10.79,9.07,58,58,0,0,1-14,6.43,57,57,0,0,1-17.09,2.44l.31.88a59.85,59.85,0,0,1,19.48,2.86A40.85,40.85,0,0,1,248,214.81,30.91,30.91,0,0,1,256.28,226a35.22,35.22,0,0,1,2.82,13.52A43.38,43.38,0,0,1,256.72,254,51.11,51.11,0,0,1,249.22,268.13Z"/><path class="cls-2" d="M364.94,377.54c-.54-3.33-.51-10-1.25-13.34-.38-1.65-1.77-3.66-3.45-4.15-2.35-.69-3.84,2-3.94,3.93a21.11,21.11,0,0,0,.69,5.69,9.2,9.2,0,0,0-2-1.14c-1.26-.57-3.05-1.28-4.41-.66a4.17,4.17,0,0,0-2.41,3.86,4.3,4.3,0,0,0,2.66,3.2c2.91,1.44,6.24,1.67,9.41,2.2,1.31.22,2.6.57,3.9.84S365.11,378.57,364.94,377.54Z"/><path class="cls-2" d="M153.56,366.85a3.73,3.73,0,0,0-.77-.92l-2.16-1.88-12.17,14,2.16,1.88a4,4,0,0,0,1,.64,3.33,3.33,0,0,0,1.07.28h.19a2.45,2.45,0,0,0,.85-.14,2.09,2.09,0,0,0,.86-.58l3.35-3.86a2,2,0,0,0,.48-1.38,3.26,3.26,0,0,0-.13-.81,3.22,3.22,0,0,0,.82,0,2,2,0,0,0,1.3-.66l3.12-3.58a2,2,0,0,0,.45-.93,2.75,2.75,0,0,0,0-1A3.52,3.52,0,0,0,153.56,366.85Zm-8.3,5.32,1.19,1a2,2,0,0,1,.73,1.19,1.09,1.09,0,0,1-.21,1l-3.35,3.86a1.12,1.12,0,0,1-1,.35,2.17,2.17,0,0,1-1.28-.56l-1.19-1Zm6.78-5.39a2.11,2.11,0,0,1,.73,1.19,1.09,1.09,0,0,1-.21,1l-3.12,3.59a1.07,1.07,0,0,1-1,.36,2.25,2.25,0,0,1-1.28-.57l-1.19-1,4.85-5.57Z"/><path class="cls-2" d="M167.91,377.47l0,0-.46-.31-12.49,13.94,1.09.73.21-.23c.8-.86,1.63-1.78,2.46-2.74l2.21-2.53,1.47,1L159.15,394l1,.7,8.18-16.82-.49-.33Zm-3.77,5.32,1.05-1.18-.71,1.45-.85,1.75-.73,1.53-1.23-.82Z"/><path class="cls-2" d="M186.41,388.13l-6.7,4.8,3.27-6.52-1.15-.58-8.3,16.57,1.15.57,3-6,.44,7.72,1.27.64,0-.63c-.1-1.6-.2-3.24-.29-4.9s-.18-3.17-.27-4.71l8.87-6.34Z"/><rect class="cls-2" x="187.65" y="401.93" width="18.56" height="1.26" transform="translate(-248.76 449.48) rotate(-69.94)"/><polygon class="cls-2" points="215.65 412.51 215.06 398.47 213.94 398.2 209.68 416.23 210.93 416.53 214.04 403.39 214.61 417.4 215.7 417.66 219.97 399.63 218.77 399.34 215.65 412.51"/><path class="cls-2" d="M238.8,403.14a3.18,3.18,0,0,0-.92-.6,3.75,3.75,0,0,0-1.16-.31,3.56,3.56,0,0,0-2.24.46,2.15,2.15,0,0,0-1.11,1.67L232,417.92a2.13,2.13,0,0,0,.76,1.87,3.56,3.56,0,0,0,2.1.88l.45,0a3.39,3.39,0,0,0,1.77-.47,2.13,2.13,0,0,0,1.1-1.68l.75-7.39-3.59-.36-.12,1.09,2.34.24-.63,6.3a1.12,1.12,0,0,1-.59.84,2.33,2.33,0,0,1-2.66-.26,1.09,1.09,0,0,1-.4-.95l1.36-13.56a1.08,1.08,0,0,1,.58-.85,2,2,0,0,1,1.38-.28,2.13,2.13,0,0,1,1.28.54,1.12,1.12,0,0,1,.41,1l-.17,1.72,1.25.13.17-1.72a2,2,0,0,0-.16-1A2.76,2.76,0,0,0,238.8,403.14Z"/><path class="cls-2" d="M280.08,400.41v.32q.12,3.82.27,7.87c.06,1.72.12,3.41.18,5.08L276.78,401l-1.16.18.29,8.16c.06,1.67.11,3.34.17,5l-3.71-12.64-1.27.21,5.26,17.91,1.16-.18v-.32q-.13-3.9-.28-7.84c-.07-1.7-.13-3.4-.18-5.07l3.75,12.7,1.16-.19-.66-18.67Z"/><rect class="cls-2" x="296.62" y="396.46" width="1.26" height="18.56" transform="translate(-102.28 100.2) rotate(-16.37)"/><polygon class="cls-2" points="313.69 391.11 313.25 390.06 307.76 392.37 308.19 393.42 310.36 392.51 317.1 408.55 318.29 408.05 311.55 392.01 313.69 391.11"/><polygon class="cls-2" points="329.3 381.73 333.58 389.1 330.41 390.94 326.13 383.57 325.02 384.22 334.32 400.24 335.43 399.6 330.96 391.89 334.14 390.05 338.61 397.75 339.67 397.14 330.37 381.11 329.3 381.73"/><path class="cls-2" d="M251.92,52a199.23,199.23,0,1,1-77.83,15.71A198.74,198.74,0,0,1,251.92,52m0-9.17C136.42,42.8,42.8,136.42,42.8,251.92S136.42,461,251.92,461,461,367.41,461,251.92,367.41,42.8,251.92,42.8Z"/><path class="cls-2" d="M116.48,387.36A191,191,0,0,1,63.8,288.15h-.86A192.58,192.58,0,0,0,215.68,440.9V440a190.75,190.75,0,0,1-99.2-52.67Z"/><path class="cls-2" d="M62.94,215.68h.86A191.46,191.46,0,0,1,215.68,63.8v-.86A192.56,192.56,0,0,0,62.94,215.68Z"/><path class="cls-2" d="M387.36,116.48A190.75,190.75,0,0,1,440,215.68h.87A192.58,192.58,0,0,0,288.15,62.94v.86a191,191,0,0,1,99.21,52.68Z"/><path class="cls-2" d="M440,288.15A191.38,191.38,0,0,1,288.15,440v.87A192.61,192.61,0,0,0,440.9,288.15Z"/><circle class="cls-2" cx="441.18" cy="235.28" r="2.48"/><circle class="cls-2" cx="441.18" cy="251.92" r="5.16"/><circle class="cls-2" cx="441.18" cy="268.55" r="2.48"/><circle class="cls-2" cx="63.53" cy="235.28" r="2.48"/><circle class="cls-2" cx="63.53" cy="251.92" r="5.16"/><circle class="cls-2" cx="63.53" cy="268.55" r="2.48"/><polygon class="cls-2" points="151.51 132.02 148.26 128.1 150.29 126.42 149.76 125.78 147.73 127.46 144.65 123.74 147.04 121.77 146.5 121.11 143.38 123.69 151.32 133.28 154.44 130.7 153.9 130.05 151.51 132.02"/><path class="cls-2" d="M160.37,122.05,158,120.18l-2.21-6.07-.76.54.07.21c.3.85.62,1.72.95,2.58q.31.84.6,1.65l-3.69-3-.79.57.3.23,2.41,1.93,2.34,1.87,2.22,6.07.79-.56-.08-.21c-.32-.86-.64-1.72-.95-2.59-.21-.54-.41-1.09-.6-1.64l3.69,3,.77-.55-.3-.23Z"/><path class="cls-2" d="M170.45,116l-.8.49.63,1a.67.67,0,0,1,0,.65,1.38,1.38,0,0,1-.59.68,1.39,1.39,0,0,1-.88.23.7.7,0,0,1-.56-.32L163.5,111a.65.65,0,0,1,0-.64,1.29,1.29,0,0,1,.59-.68,1.35,1.35,0,0,1,.87-.23.71.71,0,0,1,.57.31l.63,1,.8-.49-.64-1a1.21,1.21,0,0,0-.52-.48,1.83,1.83,0,0,0-.66-.21,2.39,2.39,0,0,0-.74.06,2.77,2.77,0,0,0-.76.31,2.39,2.39,0,0,0-1,1.18,1.49,1.49,0,0,0,.09,1.37l4.78,7.73a1.47,1.47,0,0,0,1.2.7h.19a2.44,2.44,0,0,0,1.31-.4,2.34,2.34,0,0,0,1-1.16h0a1.49,1.49,0,0,0-.1-1.38Z"/><polygon class="cls-2" points="178.43 113.83 176.07 109.33 178.4 108.11 178.02 107.37 175.69 108.59 173.44 104.31 176.19 102.87 175.79 102.12 172.21 104 177.98 115.03 181.57 113.15 181.18 112.4 178.43 113.83"/><polygon class="cls-2" points="188.38 108.98 183.75 98.35 182.88 98.73 187.85 110.14 191.56 108.52 191.22 107.74 188.38 108.98"/><polygon class="cls-2" points="198.64 104.86 194.78 93.92 193.88 94.24 198.03 105.97 201.85 104.62 201.56 103.82 198.64 104.86"/><polygon class="cls-2" points="209.14 101.47 207.79 96.57 210.33 95.87 210.11 95.07 207.57 95.77 206.28 91.11 209.27 90.29 209.05 89.47 205.14 90.55 208.45 102.55 212.36 101.47 212.13 100.65 209.14 101.47"/><polygon class="cls-2" points="219.93 87 221.65 95.55 217.52 87.48 216.69 87.65 219.14 99.85 220.07 99.67 218.36 91.14 222.46 99.19 223.28 99.02 220.83 86.82 219.93 87"/><path class="cls-2" d="M234,94.51l-.92.12.15,1.19a.67.67,0,0,1-.25.6,1.54,1.54,0,0,1-1.71.22.7.7,0,0,1-.38-.52l-1.14-9a.68.68,0,0,1,.24-.6,1.28,1.28,0,0,1,.82-.37,1.39,1.39,0,0,1,.89.16.66.66,0,0,1,.38.52l.15,1.19.93-.12L233,86.69a1.37,1.37,0,0,0-.27-.66,1.93,1.93,0,0,0-.52-.46,2.16,2.16,0,0,0-.7-.26,2.49,2.49,0,0,0-.82,0,2.43,2.43,0,0,0-1.41.64,1.5,1.5,0,0,0-.49,1.29l1.15,9a1.45,1.45,0,0,0,.8,1.13,2.3,2.3,0,0,0,1.14.29l.38,0a2.46,2.46,0,0,0,1.41-.64h0a1.46,1.46,0,0,0,.47-1.3Z"/><polygon class="cls-2" points="242.15 95.84 241.86 90.76 244.49 90.62 244.45 89.79 241.82 89.93 241.55 85.11 244.64 84.94 244.6 84.09 240.55 84.31 241.24 96.75 245.28 96.52 245.24 95.67 242.15 95.84"/><path class="cls-2" d="M266.75,85.07a2.17,2.17,0,0,0-.64-.4,2.29,2.29,0,0,0-.79-.19,2.38,2.38,0,0,0-1.51.34,1.44,1.44,0,0,0-.74,1.16l-.23,2.89a1.23,1.23,0,0,0,.17.78,1.84,1.84,0,0,0,.63.67,6.29,6.29,0,0,0,.94.46l.36.13.29.13.28.16a1.5,1.5,0,0,1,.32.35.44.44,0,0,1,.08.31l-.27,3.45a.69.69,0,0,1-.36.53,1.36,1.36,0,0,1-.88.2,1.42,1.42,0,0,1-.84-.33.71.71,0,0,1-.27-.59l.1-1.2-.95-.07L262.35,95a1.46,1.46,0,0,0,.55,1.28,2.42,2.42,0,0,0,1.43.57h.25a2.32,2.32,0,0,0,1.26-.35,1.47,1.47,0,0,0,.73-1.17l.28-3.45a1.39,1.39,0,0,0-.18-.8,1.94,1.94,0,0,0-.58-.6l-.47-.28-.57-.24-.3-.1-.4-.15a1,1,0,0,1-.25-.16.66.66,0,0,1-.31-.66l.23-2.88a.68.68,0,0,1,.35-.54,1.34,1.34,0,0,1,.88-.2,1.39,1.39,0,0,1,.84.34.69.69,0,0,1,.27.59l-.09,1.19.93.08.09-1.2a1.29,1.29,0,0,0-.13-.7A2,2,0,0,0,266.75,85.07Z"/><rect class="cls-2" x="268.45" y="91.29" width="12.47" height="0.94" transform="translate(145.18 350.8) rotate(-81.91)"/><polygon class="cls-2" points="285.14 96.15 284.49 87.11 283.65 86.94 281.16 99.14 282.09 99.33 283.84 90.81 284.48 99.82 285.3 99.98 287.79 87.79 286.89 87.6 285.14 96.15"/><path class="cls-2" d="M298.74,91.06a2.29,2.29,0,0,0-.55-.52,3,3,0,0,0-.74-.34,2.4,2.4,0,0,0-1.55,0,1.48,1.48,0,0,0-.95,1L292.49,100a1.5,1.5,0,0,0,.3,1.36,2.43,2.43,0,0,0,1.3.83,2.82,2.82,0,0,0,.74.11,2.15,2.15,0,0,0,.8-.15h0a1.5,1.5,0,0,0,.95-1l.32-1.15-.9-.25-.33,1.15a.67.67,0,0,1-.45.46,1.32,1.32,0,0,1-.9,0,1.29,1.29,0,0,1-.76-.49.69.69,0,0,1-.15-.63l2.46-8.75a.67.67,0,0,1,.45-.45,1.31,1.31,0,0,1,.9,0,1.35,1.35,0,0,1,.76.49.7.7,0,0,1,.15.63l-.32,1.15.9.26.32-1.16a1.32,1.32,0,0,0,0-.71A1.87,1.87,0,0,0,298.74,91.06Z"/><polygon class="cls-2" points="302.74 104.88 306.55 106.25 306.84 105.45 303.92 104.4 305.65 99.61 308.12 100.51 308.4 99.72 305.93 98.83 307.56 94.29 310.48 95.33 310.77 94.54 306.95 93.17 302.74 104.88"/><path class="cls-2" d="M330.35,103.48a2.27,2.27,0,0,0-.65-.49,2.42,2.42,0,0,0-1.53-.28,1.52,1.52,0,0,0-1.14.78l-.55,1.07.84.44.56-1.06a.68.68,0,0,1,.53-.36,1.49,1.49,0,0,1,1.53.8.68.68,0,0,1,0,.65l-1.27,2.44a.85.85,0,0,1-.68.39.57.57,0,0,1-.26,0l-.35-.08v0l-.38-.07c-.24,0-.44-.08-.61-.1a3.27,3.27,0,0,0-.54,0,1.76,1.76,0,0,0-.81.2,1.35,1.35,0,0,0-.58.58L322.05,113l3.59,1.87.39-.75-2.75-1.43,2.06-3.93a.45.45,0,0,1,.23-.22,1,1,0,0,1,.43-.12,1.26,1.26,0,0,1,.33,0l.29,0h0l.41.07.63.1a2.5,2.5,0,0,0,.49,0l.37.05-.15-.07a2,2,0,0,0,.59-.21,1.45,1.45,0,0,0,.57-.58l1.27-2.44a1.33,1.33,0,0,0,.16-.7,2.07,2.07,0,0,0-.17-.67A2.2,2.2,0,0,0,330.35,103.48Z"/><path class="cls-2" d="M340.82,109.41a4.72,4.72,0,0,0-.61-.43,4,4,0,0,0-1.32-.56,1,1,0,0,0-1.16.52l-5.23,8.44a1,1,0,0,0,.07,1.27,3.92,3.92,0,0,0,1.09.91,5.37,5.37,0,0,0,.66.36,2.59,2.59,0,0,0,.64.2l.2,0a1.26,1.26,0,0,0,.43-.08h0a1.07,1.07,0,0,0,.52-.45l5.22-8.44a1,1,0,0,0,.17-.67,1.31,1.31,0,0,0-.21-.59A2.42,2.42,0,0,0,340.82,109.41Zm-.28,1.26-5.23,8.45a.25.25,0,0,1-.34.13,3.71,3.71,0,0,1-.87-.41,3.59,3.59,0,0,1-.76-.6h0a.25.25,0,0,1,0-.36l5.23-8.44c.07-.11.13-.16.23-.16h.11a4.05,4.05,0,0,1,1.63,1A.27.27,0,0,1,340.54,110.67Z"/><path class="cls-2" d="M351.41,117.3a1.19,1.19,0,0,0-.17-.6,2.28,2.28,0,0,0-.43-.53,5.48,5.48,0,0,0-.58-.48A4,4,0,0,0,349,115a1,1,0,0,0-1.2.43l-5.82,8a1,1,0,0,0,0,1.27,4.6,4.6,0,0,0,1,1,6.63,6.63,0,0,0,.64.4,2.77,2.77,0,0,0,.62.25,1.53,1.53,0,0,0,.3,0,1.26,1.26,0,0,0,.33,0h0a1,1,0,0,0,.55-.41l5.82-8A1,1,0,0,0,351.41,117.3Zm-1,.11-5.82,8a.25.25,0,0,1-.35.11,3.46,3.46,0,0,1-.84-.47,4.36,4.36,0,0,1-.72-.65.27.27,0,0,1,0-.37l5.82-8a.27.27,0,0,1,.23-.14.32.32,0,0,1,.13,0,3.31,3.31,0,0,1,.84.47,3,3,0,0,1,.7.65A.27.27,0,0,1,350.44,117.41Z"/><path class="cls-2" d="M360.28,123.72a2.77,2.77,0,0,0-.53-.61,2.47,2.47,0,0,0-1.43-.6A1.5,1.5,0,0,0,357,123l-2.55,3a1.49,1.49,0,0,0-.28,1.35,2.36,2.36,0,0,0,.83,1.31,2.53,2.53,0,0,0,.83.46l.26.07-2.4,2.87a.66.66,0,0,1-.61.22,1.34,1.34,0,0,1-.83-.34,1.37,1.37,0,0,1-.49-.76.65.65,0,0,1,.13-.63l.83-1L352,129l-.83,1a1.46,1.46,0,0,0-.29,1.36,2.34,2.34,0,0,0,.84,1.3,2.41,2.41,0,0,0,1.42.6h.1a1.49,1.49,0,0,0,1.18-.53l5.84-7a1.42,1.42,0,0,0,.29-.65,1.79,1.79,0,0,0,0-.69A2.31,2.31,0,0,0,360.28,123.72Zm-3.86,4.7a1.39,1.39,0,0,1-.83-.35,1.34,1.34,0,0,1-.49-.76.68.68,0,0,1,.12-.63l2.55-3a.67.67,0,0,1,.6-.23,1.38,1.38,0,0,1,.83.35,1.41,1.41,0,0,1,.49.76.67.67,0,0,1-.12.63l-2.54,3A.71.71,0,0,1,356.42,128.42Z"/><path class="cls-2" d="M365.09,135.89a2.07,2.07,0,1,0,2.06,2.07A2.07,2.07,0,0,0,365.09,135.89Z"/><path class="cls-2" d="M138,135.89A2.07,2.07,0,1,0,140.1,138,2.07,2.07,0,0,0,138,135.89Z"/></svg>