<svg id="Layer_1" data-name="Layer 1" xmlns="http://www.w3.org/2000/svg" viewBox="0 0 504 504"><defs><style>.cls-1{fill:#fff;}.cls-2,.cls-3{fill:#57c4c4;}.cls-3{fill-rule:evenodd;}</style></defs><title>img4</title><rect x="-15.27" y="-15.27" width="534.55" height="534.55"/><path class="cls-1" d="M89.64,396v13h1.19v3H89.64v5.21H86.56v-5.21H80.31v-2.68L85.71,396Zm-6.29,13h3.21v-8.11Z"/><path class="cls-1" d="M98.92,396v18.22h2.88v3H93v-3h2.89v-15.2H93v-3Z"/><path class="cls-1" d="M110.52,407.12c0-.75-.16-1.19-.48-1.33a2.19,2.19,0,0,0-.84-.12h-.29q-.94,0-1,.84l0,.85h-3.08L105.2,396h8.4v3h-5.44l-.21,4.57a2.67,2.67,0,0,1,2.13-.9l.38,0a3.18,3.18,0,0,1,2.45,1.29,5.29,5.29,0,0,1,.69,3.08v6q0,4.45-4.43,4.46t-4.42-4.46v-2.52h3.08v2.52c0,1,.44,1.44,1.33,1.44h0c.89,0,1.34-.49,1.34-1.44Z"/><path class="cls-1" d="M133.89,412.41,136.07,396h3.12l-1,7.53L136,417.28h-4.23l-1.6-11-1.59,11h-4.22l-2.18-13.73-1-7.51h3.1l2.18,16.37L128.66,396h3.06Z"/><path class="cls-1" d="M139.09,413.76h3.54v3.52h-3.54Z"/><path class="cls-1" d="M156.87,407.12c0-.75-.16-1.19-.48-1.33a2.1,2.1,0,0,0-.83-.12h-.3c-.62,0-1,.31-1,.84l0,.85H151.1l.46-11.33H160v3h-5.43l-.22,4.57a2.71,2.71,0,0,1,2.14-.9l.38,0a3.2,3.2,0,0,1,2.45,1.29,5.3,5.3,0,0,1,.68,3.08v6c0,3-1.47,4.46-4.43,4.46s-4.42-1.49-4.42-4.46v-2.52h3.08v2.52c0,1,.45,1.44,1.33,1.44h0c.9,0,1.34-.49,1.34-1.44Z"/><path class="cls-1" d="M170.88,398.5v2.67H168v16.11h-3.08V401.17H162V398.5Z"/><path class="cls-1" d="M173,398.5H176v8.05h2.69V398.5h3.08v18.78h-3.08v-8H176v8H173Z"/><path class="cls-1" d="M190.16,402.19c0-2.63,1.48-3.94,4.42-3.94s4.43,1.31,4.43,3.94v2.52h-3.08v-2.52c0-.85-.44-1.27-1.34-1.27h0c-.88,0-1.33.42-1.33,1.27v1.7c0,.83,1,1.86,2.89,3.07s2.88,2.66,2.88,4.34v2.38q0,3.94-4.42,3.95t-4.43-3.95v-2.53h3.08v2.53q0,1.26,1.35,1.26c.9,0,1.34-.42,1.34-1.26v-2.15q0-1.36-2.88-3.18c-1.92-1.21-2.89-2.67-2.89-4.4Z"/><path class="cls-1" d="M209.72,398.5v2.67h-2.89v16.11h-3.08V401.17h-2.88V398.5Z"/><path class="cls-1" d="M211.68,413.76h3.54v3.52h-3.54Z"/><path class="cls-1" d="M223.48,400.16q0-4.46,4.42-4.46t4.43,4.46V403h-3.08v-2.86c0-1-.45-1.43-1.34-1.44h0q-1.32,0-1.32,1.44v1.93c0,1,1,2.1,2.88,3.47a6,6,0,0,1,2.89,4.91v2.69c0,3-1.48,4.47-4.42,4.47s-4.43-1.5-4.43-4.47V410.3h3.08v2.86q0,1.44,1.35,1.44c.89,0,1.34-.48,1.34-1.44v-2.43c0-1-1-2.22-2.89-3.59a6,6,0,0,1-2.88-5Z"/><path class="cls-1" d="M243.64,410.62l1,6.66h-3.11l-.6-4h-3.15l-.61,4h-3.1l1-6.64,2.18-12.14h4.22Zm-3.11,0-1.18-7.82-1.17,7.82Z"/><path class="cls-1" d="M246.6,398.5h3.08l2.92,10.9V398.5h2.86v18.78h-3.09l-2.8-10.55v10.55h-3Z"/><path class="cls-1" d="M266.38,398.5v2.67h-2.89v16.11h-3.08V401.17h-2.88V398.5Z"/><path class="cls-1" d="M277,410.62l1,6.66h-3.11l-.6-4h-3.15l-.61,4h-3.1l1-6.64,2.18-12.14h4.22Zm-3.12,0-1.17-7.82-1.18,7.82Z"/><path class="cls-1" d="M294.23,409.75l1,7.53h-3.11l-.6-4.5h-3.15l-.61,4.5h-3.1l1-7.5L287.84,396h4.23Zm-3.11,0-1.18-8.84-1.17,8.84Z"/><path class="cls-1" d="M297.2,398.5h3.08l2.91,10.9V398.5h2.86v18.78H303l-2.81-10.55v10.55h-3Z"/><path class="cls-1" d="M317.58,410.62l1,6.66h-3.11l-.6-4h-3.15l-.61,4H308l1-6.64,2.18-12.14h4.22Zm-3.12,0-1.17-7.82-1.18,7.82Z"/><path class="cls-1" d="M320.43,413.76h3.82v3.11l-1.17,3.95h-2l.63-3.54h-1.29Z"/><path class="cls-1" d="M341.36,413.16q0,4.45-4.43,4.47t-4.42-4.47v-13q0-4.46,4.42-4.46t4.43,4.46V403h-3.08v-2.86c0-1-.45-1.43-1.34-1.44h0c-.89,0-1.33.48-1.33,1.44v13c0,1,.45,1.44,1.34,1.44s1.35-.48,1.35-1.44V410.3h3.08Z"/><path class="cls-1" d="M352.57,409.75l1,7.53h-3.12l-.59-4.5h-3.15l-.61,4.5H343l1-7.5L346.18,396h4.22Zm-3.12,0-1.17-8.84-1.18,8.84Z"/><path class="cls-1" d="M355.42,413.76h3.82v3.11l-1.17,3.95h-2l.64-3.54h-1.29Z"/><path class="cls-1" d="M373.49,408a3.15,3.15,0,0,1-2.16.78l-.43,0a3.53,3.53,0,0,1-2.32-1.05,4.84,4.84,0,0,1-.86-3.3v-4.23c0-3,1.47-4.46,4.43-4.47s4.42,1.49,4.42,4.47v13q0,4.45-4.43,4.46t-4.42-4.46V410.3h3.08v2.86c0,.95.44,1.43,1.34,1.44h0c.88,0,1.33-.48,1.33-1.44Zm-2.69-3.59c0,.75.16,1.19.48,1.33a2.23,2.23,0,0,0,.81.11l.31,0c.72,0,1.09-.49,1.09-1.42v-4.23c0-1-.45-1.44-1.34-1.44s-1.35.48-1.35,1.44Z"/><path class="cls-1" d="M379.51,412.72a5.94,5.94,0,0,1,2.87-4.91c1.93-1.37,2.89-2.53,2.9-3.48v-4.17c0-1-.44-1.44-1.33-1.44h0c-.89,0-1.34.48-1.34,1.44V403h-3.08v-2.85q0-4.47,4.42-4.47t4.43,4.47v4.25a6,6,0,0,1-2.88,5q-2.89,2-2.89,3.59v1.28h5.77v3h-8.85Z"/><path class="cls-1" d="M391.2,399.06v-3h9.12v2.17L396,417.28h-3.16L397,399.06Z"/><path class="cls-1" d="M411.84,413.16q0,4.45-4.43,4.46T403,413.16v-13q0-4.47,4.42-4.47t4.43,4.47Zm-3.08-13c0-1-.45-1.44-1.34-1.44h0c-.89,0-1.33.48-1.33,1.44v13c0,1,.44,1.44,1.34,1.44s1.35-.48,1.35-1.44Z"/><path class="cls-1" d="M420.44,400.16c0-1-.45-1.43-1.34-1.44h0c-.89,0-1.33.48-1.33,1.44V403h-3.08v-2.85q0-4.46,4.42-4.46t4.43,4.46v3.69a3,3,0,0,1-1.69,3,3,3,0,0,1,1.69,3v3.39q0,4.45-4.43,4.46t-4.42-4.46v-2.85h3.08v2.85c0,1,.44,1.44,1.33,1.44h0c.89,0,1.34-.49,1.34-1.44v-3.39c0-.78-.16-1.23-.49-1.38a2.26,2.26,0,0,0-.81-.11h-1v-3h1.25a1.31,1.31,0,0,0,.66-.13c.27-.15.4-.58.4-1.3Z"/><polygon class="cls-2" points="149.12 335.1 158.69 335.1 149.01 368.85 153.32 368.85 164.11 331.37 149.12 331.37 149.12 335.1"/><polygon class="cls-2" points="167.99 334.57 167.99 338.82 173.26 335.71 173.26 368.85 177.61 368.85 177.61 331.37 173.53 331.37 167.99 334.57"/><path class="cls-2" d="M194,331.37H189.8l-7.15,24.81v3.47h7.07v9.2H194v-9.2h3.51v-3.73H194Zm-7,24.55,2.68-9.59v9.59Z"/><rect class="cls-2" x="202.6" y="365.12" width="4.29" height="3.73"/><polygon class="cls-2" points="212.22 335.1 221.79 335.1 212.11 368.85 216.43 368.85 227.21 331.37 212.22 331.37 212.22 335.1"/><path class="cls-2" d="M241.11,331.37h-3.57a5.88,5.88,0,0,0-4,1.46,4.54,4.54,0,0,0-1.69,3.5v27.61a4.45,4.45,0,0,0,1.69,3.44,5.84,5.84,0,0,0,4,1.47h3.57a5.92,5.92,0,0,0,4-1.47,4.39,4.39,0,0,0,1.63-3.44V350a4.58,4.58,0,0,0-1.63-3.39,5.71,5.71,0,0,0-2.15-1.19,6.85,6.85,0,0,0-1.88-.23h-4.93v-7.33a2.66,2.66,0,0,1,.9-2,3.6,3.6,0,0,1,2.28-.8,3.21,3.21,0,0,1,2.19.78,2.71,2.71,0,0,1,.93,2v3.39h4.29v-4.92a4.48,4.48,0,0,0-1.63-3.5A6,6,0,0,0,241.11,331.37Zm-1.75,17.55a3.17,3.17,0,0,1,2.2.8,2.41,2.41,0,0,1,.92,1.91v10.73a2.7,2.7,0,0,1-.92,2,3.21,3.21,0,0,1-2.2.79,3.56,3.56,0,0,1-2.25-.78,2.68,2.68,0,0,1-.93-2V348.92Z"/><path class="cls-2" d="M261.56,331.37H258a5.88,5.88,0,0,0-4,1.46,4.54,4.54,0,0,0-1.69,3.5v27.61a4.45,4.45,0,0,0,1.69,3.44,5.84,5.84,0,0,0,4,1.47h3.57a5.92,5.92,0,0,0,4-1.47,4.41,4.41,0,0,0,1.63-3.44V336.33a4.48,4.48,0,0,0-1.63-3.5A6,6,0,0,0,261.56,331.37Zm1.37,6.49v24.5a2.7,2.7,0,0,1-.92,2,3.21,3.21,0,0,1-2.2.79,3.56,3.56,0,0,1-2.25-.78,2.68,2.68,0,0,1-.93-2v-24.5a2.68,2.68,0,0,1,.92-2,3.6,3.6,0,0,1,2.26-.79,3.21,3.21,0,0,1,2.19.78A2.71,2.71,0,0,1,262.93,337.86Z"/><rect class="cls-2" x="272.91" y="365.12" width="4.29" height="3.73"/><polygon class="cls-2" points="282.53 335.1 292.1 335.1 282.42 368.85 286.74 368.85 297.52 331.37 282.53 331.37 282.53 335.1"/><polygon class="cls-2" points="301.77 335.1 311.35 335.1 301.66 368.85 305.98 368.85 316.76 331.37 301.77 331.37 301.77 335.1"/><path class="cls-2" d="M332.14,331.37h-4.2l-7.16,24.81v3.47h7.08v9.2h4.29v-9.2h3.51v-3.73h-3.51Zm-7,24.55,2.68-9.59v9.59Z"/><path class="cls-2" d="M351.38,355.92V331.37h-4.2L340,356.18v3.47h7.08v9.2h4.29v-9.2h3.51v-3.73Zm-7,0,2.68-9.59v9.59Z"/><path class="cls-1" d="M101.06,295.7,105.61,282h3.56l-2.3,6.71-4.48,12H97.81l.64-10.12-3.28,10.12H90.59l.18-12,.28-6.69h3.56l-.78,13.75L98.38,282h3.45Z"/><path class="cls-1" d="M111.74,282h8.31l-.57,3H114.7l-1,4.87h4.12l-.59,3h-4.11l-1,4.87H117l-.59,3h-8.31Z"/><path class="cls-1" d="M129.19,282h4.64q3.6,0,3.6,2.89a6.08,6.08,0,0,1-.12,1.15l-.54,2.76a4,4,0,0,1-2.94,3.29l1.73,8.6H131.7l-.86-8h-.19l-1.56,8h-3.53Zm3,3-.94,4.87h.42a3.73,3.73,0,0,0,.75-.05,1.22,1.22,0,0,0,.86-1l.53-2.76c.14-.7-.13-1.06-.82-1.06Z"/><path class="cls-1" d="M141.07,282h8.31l-.57,3H144l-.95,4.87h4.12l-.58,3H142.5l-.94,4.87h4.78l-.58,3h-8.32Z"/><path class="cls-1" d="M155.53,300.64H151l.18-12,.29-6.69H155l-1,14.65L158.75,282h3.56l-2.3,6.71Z"/><path class="cls-1" d="M164.93,282h3.53l-3.63,18.69H161.3Z"/><path class="cls-1" d="M175.2,300.64h-4.59l.18-12,.29-6.69h3.56l-1,14.65L178.41,282H182l-2.31,6.71Z"/><path class="cls-1" d="M184.54,282h8.32l-.58,3H187.5l-.95,4.87h4.12l-.58,3H186l-.94,4.87h4.78l-.58,3h-8.32Z"/><path class="cls-1" d="M204.78,282l.44,7.22,3.23-7.22h3.74l-5.79,10.63-.11.19-1.53,7.87h-3.53l1.53-7.86-.06-.2L201.05,282Z"/><path class="cls-1" d="M220.78,296.94q-.79,4-5.37,4-3.9,0-3.9-3a5.51,5.51,0,0,1,.11-1.09l2.18-11.2c.52-2.69,2.31-4,5.35-4q3.91,0,3.92,2.94a5.58,5.58,0,0,1-.12,1.09Zm-1.36-11.2c.14-.7-.13-1.05-.83-1.06h0a1.16,1.16,0,0,0-1.24,1.06l-2.18,11.2Q215,298,216,298a1.15,1.15,0,0,0,1.25-1.05Z"/><path class="cls-1" d="M233.13,296.94q-.78,4-5.36,4-3.92,0-3.91-3a5.58,5.58,0,0,1,.12-1.09l2.9-14.95h3.54l-2.91,14.95q-.19,1.05.84,1.05a1.15,1.15,0,0,0,1.25-1.05L232.51,282H236Z"/><path class="cls-1" d="M239.45,282h4.64c2.4,0,3.61,1,3.61,2.89a6.14,6.14,0,0,1-.13,1.15l-.53,2.76a4,4,0,0,1-2.95,3.29l1.73,8.6H242l-.86-8h-.19l-1.56,8h-3.54Zm3,3-.94,4.87h.42a3.86,3.86,0,0,0,.76-.05,1.21,1.21,0,0,0,.85-1L244,286c.14-.7-.14-1.06-.83-1.06Z"/><path class="cls-1" d="M260.89,300.64H256.3l.18-12,.29-6.69h3.56l-1,14.65L264.1,282h3.56l-2.3,6.71Z"/><path class="cls-1" d="M270.23,282h8.31l-.57,3h-4.78l-.95,4.87h4.12l-.58,3h-4.12l-.94,4.87h4.78l-.58,3H266.6Z"/><path class="cls-1" d="M281.53,282h3.54l-1.52,7.85h2.09l1.52-7.85h3.53l-3.63,18.69h-3.53l1.53-7.85H283l-1.53,7.85h-3.53Z"/><path class="cls-1" d="M294.26,282h3.53l-3.63,18.69h-3.53Z"/><path class="cls-1" d="M307.4,296.94q-.78,4-5.37,4-3.9,0-3.9-3a5.58,5.58,0,0,1,.12-1.09l2.17-11.2q.78-4,5.36-4,3.92,0,3.91,2.94a6.38,6.38,0,0,1-.11,1.09l-.51,2.65h-3.54l.51-2.65c.14-.7-.13-1.05-.82-1.06h0a1.16,1.16,0,0,0-1.24,1.06l-2.17,11.2q-.21,1.05.84,1.05a1.16,1.16,0,0,0,1.25-1.05l.52-2.65h3.53Z"/><path class="cls-1" d="M309.88,300.64,313.51,282H317l-3,15.71h4.78l-.58,3Z"/><path class="cls-1" d="M324.39,282h8.32l-.58,3h-4.78l-1,4.87h4.12l-.58,3h-4.12l-.94,4.87h4.78l-.58,3h-8.32Z"/><path class="cls-1" d="M336.2,279.4h4.25l-.65,3.28-2,4.06h-2.48l1.3-3.47h-1.2Z"/><path class="cls-1" d="M341.44,285.74q.78-4,5.36-4,3.92,0,3.91,2.94a6.38,6.38,0,0,1-.11,1.09l-.51,2.65h-3.54l.51-2.65c.14-.7-.14-1.05-.82-1.06h0a1.16,1.16,0,0,0-1.24,1.06l-.32,1.65c-.14.77.57,1.72,2.16,2.87s2.39,2.66,2.06,4.37l-.45,2.31c-.52,2.7-2.31,4-5.36,4-2.61,0-3.91-1-3.91-3a5.58,5.58,0,0,1,.12-1.09l.5-2.65h3.54l-.51,2.65c-.14.7.15,1.05.85,1.05a1.16,1.16,0,0,0,1.24-1.05l.4-2.09c.16-.83-.55-1.81-2.14-3a4.2,4.2,0,0,1-2-4.43Z"/><path class="cls-1" d="M360.78,282h4.64c2.4,0,3.61,1,3.61,2.89a6.14,6.14,0,0,1-.13,1.15l-.53,2.76a4.74,4.74,0,0,1-3.79,3.83,8.52,8.52,0,0,1-2.14.21h-.22l-1.53,7.85h-3.53Zm3,3-.94,4.87h.42a3.79,3.79,0,0,0,.76-.05,1.24,1.24,0,0,0,.86-1l.53-2.76c.14-.7-.14-1.06-.83-1.06Z"/><path class="cls-1" d="M379.28,293.94l-.3,6.7h-3.56l.17-3.88H373l-1.35,3.88h-3.55l2.3-6.67,4.49-12h4.58Zm-3.56-.17.25-5.65-2,5.65Z"/><path class="cls-1" d="M385.23,282h3.53l-3.63,18.69H381.6Z"/><path class="cls-1" d="M392.33,282h3.49l.58,9.21,1.78-9.21h3.31l-3.63,18.69h-3.49l-.51-8.95-1.74,8.95h-3.41Z"/><path class="cls-1" d="M413.31,282l-.57,3h-2.81l-3.06,15.71h-3.53l3.06-15.71h-2.81l.57-3Z"/><path class="cls-1" d="M117.76,219.51l-6.16,45.27h5.22l1.64-13h3.3l1.7,13h5l-6.34-45.27Zm3.43,27.59H119l1-8.73Z"/><path class="cls-1" d="M146.16,259.2c0,.74-.65,1.17-1.79,1.17h-3c-1.06,0-1.85-.53-1.85-1.22V219.51h-5.22v39.64c0,3.71,2.69,5.84,7.37,5.84h2.49c4.57,0,7.3-2.14,7.3-5.74V219.51h-5.27Z"/><polygon class="cls-1" points="157.44 224.19 162.9 224.19 162.9 264.77 168.05 264.77 168.05 224.19 173.44 224.19 173.44 219.51 157.44 219.51 157.44 224.19"/><path class="cls-1" d="M187.06,219.51h-2.61c-5.34,0-7.24,2.85-7.24,5.52v34.22c0,3.44,2.76,5.74,6.88,5.74h3.27c4.44,0,6.88-2,6.88-5.74V225.14C194.24,221.77,191.36,219.51,187.06,219.51Zm-4.64,6c0-.8.69-1.34,1.73-1.34h3.09c1.61,0,1.79.77,1.79,1.34V259c0,.8-.3,1.33-1.79,1.33h-3.09c-1.05,0-1.73-.5-1.73-1.28Z"/><path class="cls-1" d="M227.27,219.51h-8.83v45.27h8.83c4.33,0,6.82-1.92,6.82-5.25V224.76C234.09,221.57,231.41,219.51,227.27,219.51Zm-3.61,4.68h3.42c1.16,0,1.67.4,1.67.79v34.27c0,.57-.56.85-1.67.85h-3.42Z"/><polygon class="cls-1" points="242.09 264.77 255.98 264.77 255.98 260.1 247.37 260.1 247.37 239.8 253.37 239.8 253.37 235.13 247.37 235.13 247.37 224.19 255.98 224.19 255.98 219.51 242.09 219.51 242.09 264.77"/><polygon class="cls-1" points="260.35 224.19 265.8 224.19 265.8 264.77 270.95 264.77 270.95 224.19 276.35 224.19 276.35 219.51 260.35 219.51 260.35 224.19"/><path class="cls-1" d="M286.22,219.51l-6.16,45.27h5.22l1.64-13h3.3l1.7,13h5l-6.34-45.27Zm3.43,27.59h-2.22l1-8.73Z"/><rect class="cls-1" x="302.8" y="219.51" width="5.21" height="45.26"/><polygon class="cls-1" points="321.35 219.51 316.07 219.51 316.07 264.77 329.96 264.77 329.96 260.1 321.35 260.1 321.35 219.51"/><rect class="cls-1" x="335.9" y="219.51" width="5.21" height="45.26"/><polygon class="cls-1" points="361.49 245.69 356.03 219.63 349.25 219.5 349.25 264.77 354.46 264.77 354.46 237.19 360.23 264.77 366.77 264.77 366.77 219.51 361.49 219.51 361.49 245.69"/><path class="cls-1" d="M392.29,232.78v-8c0-2.94-3-5.25-6.94-5.25h-3.21c-4.15,0-6.94,2.29-6.94,5.69v34.44c0,3.2,2.79,5.35,6.94,5.35h3.21c4.16,0,6.94-2.15,6.94-5.35V235h-9.81v4.78h4.6v19.29c0,.53-.18,1.23-1.79,1.23H382.2c-.67,0-1.79-.16-1.79-1.23V225.52c0-.83.67-1.33,1.79-1.33h3.09c1.21,0,1.79.43,1.79,1.33v7.26Z"/><path class="cls-1" d="M95.07,150.21s-2-20.56,28.14-27.89c0,0,20.22-6.3,45.1,3.26,0,0-26.26-4.79-42-1.15C126.3,124.43,102,130,95.07,150.21Z"/><path class="cls-1" d="M99.78,140.2s-9.67-1.76-19.47,8.92c0,0,3.46-12.53,23.12-13.57Z"/><path class="cls-1" d="M149.11,118.56c3.53.52,13.29,2.09,18.32,4.29a.91.91,0,0,0,1.28-.73l2.94-25.05a.91.91,0,0,1,.91-.81h1.11a.92.92,0,0,1,.92.92V99a.91.91,0,0,0,.94.91l18.94-.46a.91.91,0,0,0,.87-.71l1.87-8.14a.9.9,0,0,1,.89-.71l51.4-2.41a.92.92,0,0,0,.92-.91V84a.9.9,0,0,0-.9-.91c-6.57-.1-53.2.78-76.1,7.45,0,0-13.09,2.82-25,26.62A.94.94,0,0,0,149.11,118.56Z"/><path class="cls-1" d="M174.86,106.42l19-.43.09,0c1.41-.11,1.36-2.71,1.36-2.71l-.1-5-1.43,4.85-19,.43a.4.4,0,0,0-.41.39l.06,2.13A.41.41,0,0,0,174.86,106.42Z"/><path class="cls-1" d="M193.48,114.17l.14,0c1.49,0,1.45-2.71,1.45-2.71l-.35-2.91-1.18,2.74v0a.47.47,0,0,0-.17,0l-19,.61a.39.39,0,0,0-.41.39l.08,2.13a.41.41,0,0,0,.44.37Z"/><path class="cls-1" d="M194.94,117l-1.17,2.6h0l-19,.43a.4.4,0,0,0-.41.39l.06,2.13a.41.41,0,0,0,.43.37l19-.43h0c1.46,0,1.42-2.71,1.42-2.71Z"/><path class="cls-1" d="M127,113.35l-12.75.37a.37.37,0,0,1,0-.74l16.95-1.08a2.58,2.58,0,0,1,2.47,1.41l1.81,3.58a8.28,8.28,0,0,1-6.25.76Z"/><path class="cls-1" d="M408.76,150.21s2-20.56-28.13-27.89c0,0-20.23-6.3-45.1,3.26,0,0,26.25-4.79,42-1.15C377.53,124.43,401.85,130,408.76,150.21Z"/><path class="cls-1" d="M404.05,140.2s9.67-1.76,19.47,8.92c0,0-4.5-14.1-23.11-13.57Z"/><path class="cls-1" d="M354.73,118.56c-3.54.52-13.29,2.09-18.33,4.29a.92.92,0,0,1-1.28-.73l-2.93-25.05a.93.93,0,0,0-.91-.81h-1.12a.92.92,0,0,0-.92.92V99a.91.91,0,0,1-.93.91l-18.95-.46a.92.92,0,0,1-.87-.71l-1.86-8.14a.92.92,0,0,0-.89-.71l-51.41-2.41a.91.91,0,0,1-.91-.91V84a.9.9,0,0,1,.89-.91c6.57-.1,53.2.78,76.11,7.45,0,0,13.08,2.82,25,26.62A.93.93,0,0,1,354.73,118.56Z"/><path class="cls-1" d="M329,106.42,310,106l-.09,0c-1.4-.11-1.36-2.71-1.36-2.71l.1-5,1.43,4.85,19,.43a.4.4,0,0,1,.41.39l-.06,2.13A.4.4,0,0,1,329,106.42Z"/><path class="cls-1" d="M310.35,114.17l-.13,0c-1.5,0-1.46-2.71-1.46-2.71l.35-2.91,1.18,2.74v0a.41.41,0,0,1,.16,0l19,.61a.39.39,0,0,1,.4.39l-.08,2.13a.4.4,0,0,1-.43.37Z"/><path class="cls-1" d="M308.89,117l1.17,2.6h0l19,.43a.4.4,0,0,1,.41.39l-.06,2.13a.4.4,0,0,1-.43.37l-19-.43h0c-1.46,0-1.42-2.71-1.42-2.71Z"/><path class="cls-1" d="M376.87,113.35l12.75.37a.37.37,0,0,0,0-.74L372.7,111.9a2.59,2.59,0,0,0-2.48,1.41l-1.81,3.58a8.28,8.28,0,0,0,6.25.76Z"/><path class="cls-2" d="M242.46,134.32V167H223.3V134.32a1.54,1.54,0,0,0-1.54-1.54H214a1.54,1.54,0,0,0-1.54,1.54v72.29a1.54,1.54,0,0,0,1.54,1.54h7.77a1.54,1.54,0,0,0,1.54-1.54V173.9h19.16v32.71a1.54,1.54,0,0,0,1.54,1.54h7.78a1.54,1.54,0,0,0,1.54-1.54V134.32a1.54,1.54,0,0,0-1.54-1.54H244A1.54,1.54,0,0,0,242.46,134.32Z"/><path class="cls-2" d="M291,134.31v65.33a2.11,2.11,0,0,1-2.11,2.12H274a2.12,2.12,0,0,1-2.12-2.12V134.31a1.53,1.53,0,0,0-1.53-1.53h-7.79a1.53,1.53,0,0,0-1.53,1.53v69.05a5.25,5.25,0,0,0,5.26,5.26h30.35a5.26,5.26,0,0,0,5.26-5.26V134.31a1.54,1.54,0,0,0-1.53-1.53h-7.8A1.54,1.54,0,0,0,291,134.31Z"/><path class="cls-2" d="M204.74,155.3V134.81a2,2,0,0,0-2-2h-36.8a2,2,0,0,0-2,2v71.78a2,2,0,0,0,2,2h36.8a2,2,0,0,0,2-2V186.1a2,2,0,0,0-2-2h-6.79a2,2,0,0,0-2,2v13.63a2,2,0,0,1-2,2h-15.1a2,2,0,0,1-2-2V141.67a2,2,0,0,1,2-2h15.1a2,2,0,0,1,2,2V155.3a2,2,0,0,0,2,2h6.79A2,2,0,0,0,204.74,155.3Z"/><path class="cls-2" d="M330.06,134.43l-5.42,21.9-5.43-21.9a1.63,1.63,0,0,0-1.58-1.24h-6.84a1.62,1.62,0,0,0-1.57,2.05l10.84,41.11v30.17a1.94,1.94,0,0,0,1.93,1.93h5.29a1.93,1.93,0,0,0,1.93-1.93V176.35L340,135.24a1.63,1.63,0,0,0-1.58-2.05h-6.75A1.63,1.63,0,0,0,330.06,134.43Z"/><path class="cls-2" d="M272.22,94.57H231.65a2,2,0,0,1-1.16-.38l-1.44-1.06c-.29-.21-.2-.9.12-.9h45.51c.32,0,.42.69.13.9l-1.46,1.07A1.91,1.91,0,0,1,272.22,94.57Z"/><path class="cls-3" d="M397.23,160.1l-.69-.31a9.29,9.29,0,0,1-.54,1l.65.39A11.87,11.87,0,0,0,397.23,160.1Z"/><path class="cls-3" d="M398,158l-.73-.17a8.63,8.63,0,0,1-.33,1.13l.71.25A8.38,8.38,0,0,0,398,158Z"/><path class="cls-3" d="M398.26,155.74l-.76,0a6.62,6.62,0,0,1-.11,1.17l.75.11A8.67,8.67,0,0,0,398.26,155.74Z"/><path class="cls-3" d="M392.88,165.18l-.42-.63a9.26,9.26,0,0,1-1,.58l.35.68C392.17,165.64,392.51,165.39,392.88,165.18Z"/><path class="cls-3" d="M394.64,163.77l-.52-.54a9.38,9.38,0,0,1-.9.77l.47.6A10.65,10.65,0,0,0,394.64,163.77Z"/><path class="cls-3" d="M396.1,162.07l-.61-.44a11.07,11.07,0,0,1-.73.93l.56.5A9.17,9.17,0,0,0,396.1,162.07Z"/><path class="cls-3" d="M386.47,167.1v-.75l-1.18-.06-.07.75C385.63,167.06,386.05,167.09,386.47,167.1Z"/><path class="cls-3" d="M388.71,166.88l-.14-.74c-.39.05-.78.13-1.17.16l.06.75C387.88,167,388.3,166.93,388.71,166.88Z"/><path class="cls-3" d="M390.86,166.23l-.28-.7a9.09,9.09,0,0,1-1.11.38l.2.73C390.08,166.54,390.47,166.36,390.86,166.23Z"/><path class="cls-3" d="M380,165.25l.4-.64c-.34-.19-.63-.46-1-.68l-.47.59C379.36,164.76,379.67,165,380,165.25Z"/><path class="cls-3" d="M382.05,166.27l.27-.7a11.4,11.4,0,0,1-1.07-.49l-.35.67A11.89,11.89,0,0,0,382.05,166.27Z"/><path class="cls-3" d="M384.21,166.89l.13-.74c-.38-.06-.76-.18-1.14-.27l-.22.72C383.39,166.7,383.79,166.83,384.21,166.89Z"/><path class="cls-3" d="M375.63,160.21l.69-.31a8.7,8.7,0,0,1-.44-1.1l-.72.25A9.71,9.71,0,0,0,375.63,160.21Z"/><path class="cls-3" d="M376.77,162.16l.61-.44a10.43,10.43,0,0,1-.64-1l-.65.37A9.08,9.08,0,0,0,376.77,162.16Z"/><path class="cls-3" d="M378.25,163.85l.52-.55a11,11,0,0,1-.82-.85l-.57.49A12.46,12.46,0,0,0,378.25,163.85Z"/><path class="cls-3" d="M374.65,153.6l.74.1a7.32,7.32,0,0,1,.23-1.15l-.74-.19A8.73,8.73,0,0,0,374.65,153.6Z"/><polygon class="cls-3" points="374.55 155.85 375.31 155.81 375.28 155.22 375.31 154.63 374.56 154.59 374.52 155.22 374.55 155.85"/><path class="cls-3" d="M374.88,158.07l.73-.18a9,9,0,0,1-.22-1.15l-.75.1A10.28,10.28,0,0,0,374.88,158.07Z"/><path class="cls-3" d="M377.39,147.5l.57.49a9.38,9.38,0,0,1,.82-.85l-.52-.55A12.46,12.46,0,0,0,377.39,147.5Z"/><path class="cls-3" d="M376.09,149.34l.65.38a11.17,11.17,0,0,1,.64-1l-.61-.44C376.51,148.61,376.32,149,376.09,149.34Z"/><path class="cls-3" d="M375.17,151.39l.71.24a9.2,9.2,0,0,1,.44-1.09l-.68-.32A10.58,10.58,0,0,0,375.17,151.39Z"/><path class="cls-3" d="M383,143.85l.22.72a11.29,11.29,0,0,1,1.15-.27l-.14-.75C383.8,143.62,383.4,143.75,383,143.85Z"/><path class="cls-3" d="M380.91,144.7l.35.67a10.34,10.34,0,0,1,1.07-.49l-.28-.7A11.72,11.72,0,0,0,380.91,144.7Z"/><path class="cls-3" d="M379,145.93l.47.59a10.56,10.56,0,0,1,1-.69l-.4-.63A10.16,10.16,0,0,0,379,145.93Z"/><path class="cls-3" d="M389.69,143.82l-.21.72c.38.09.74.26,1.11.38l.29-.7C390.48,144.09,390.1,143.91,389.69,143.82Z"/><path class="cls-3" d="M387.47,143.4l-.07.75c.39,0,.78.11,1.17.16l.15-.74C388.3,143.52,387.89,143.43,387.47,143.4Z"/><path class="cls-3" d="M385.22,143.4l.08.75,1.18-.05v-.75C386.06,143.35,385.64,143.39,385.22,143.4Z"/><path class="cls-3" d="M395.33,147.4l-.57.5a9.33,9.33,0,0,1,.73.93l.62-.44A10.6,10.6,0,0,0,395.33,147.4Z"/><path class="cls-3" d="M393.69,145.86l-.46.59a10.92,10.92,0,0,1,.89.77l.52-.54A9.32,9.32,0,0,0,393.69,145.86Z"/><path class="cls-3" d="M391.8,144.65l-.35.67c.37.16.68.4,1,.59l.41-.63C392.52,145.07,392.18,144.82,391.8,144.65Z"/><path class="cls-3" d="M398.14,153.47l-.75.11a6.64,6.64,0,0,1,.11,1.18l.76,0A8.81,8.81,0,0,0,398.14,153.47Z"/><path class="cls-3" d="M397.6,151.28l-.71.25a9.63,9.63,0,0,1,.33,1.13l.73-.17A8.76,8.76,0,0,0,397.6,151.28Z"/><path class="cls-3" d="M396.66,149.25l-.65.38a9.29,9.29,0,0,1,.54,1l.68-.31A9.69,9.69,0,0,0,396.66,149.25Z"/><path class="cls-3" d="M368.27,157.22l-.69-.31A8.68,8.68,0,0,1,367,158l.65.38A10.76,10.76,0,0,0,368.27,157.22Z"/><path class="cls-3" d="M369,155.09l-.73-.18a8.63,8.63,0,0,1-.33,1.13l.71.25A8.63,8.63,0,0,0,369,155.09Z"/><path class="cls-3" d="M369.3,152.86l-.76,0a6.53,6.53,0,0,1-.11,1.17l.75.11A8.67,8.67,0,0,0,369.3,152.86Z"/><path class="cls-3" d="M363.92,162.3l-.41-.63c-.35.19-.66.43-1,.59l.35.67C363.21,162.76,363.55,162.51,363.92,162.3Z"/><path class="cls-3" d="M365.68,160.9l-.52-.55a10.66,10.66,0,0,1-.89.77l.46.6A12.41,12.41,0,0,0,365.68,160.9Z"/><path class="cls-3" d="M367.14,159.19l-.61-.43a9.21,9.21,0,0,1-.73.92l.56.5A9.17,9.17,0,0,0,367.14,159.19Z"/><path class="cls-3" d="M357.51,164.22v-.75l-1.17-.05-.08.75C356.67,164.19,357.09,164.22,357.51,164.22Z"/><path class="cls-3" d="M359.75,164l-.14-.74c-.39.05-.78.13-1.17.16l.07.75C358.92,164.14,359.34,164.06,359.75,164Z"/><path class="cls-3" d="M361.91,163.35l-.29-.69c-.37.12-.73.29-1.11.38l.2.72A10.61,10.61,0,0,0,361.91,163.35Z"/><path class="cls-3" d="M351.08,162.37l.4-.64a9.91,9.91,0,0,1-1-.68l-.47.59A12,12,0,0,0,351.08,162.37Z"/><path class="cls-3" d="M353.09,163.39l.27-.7a11.4,11.4,0,0,1-1.07-.49l-.35.67C352.33,163,352.69,163.26,353.09,163.39Z"/><path class="cls-3" d="M355.25,164l.14-.74c-.39-.06-.77-.19-1.15-.28l-.22.72C354.43,163.82,354.83,164,355.25,164Z"/><path class="cls-3" d="M346.67,157.34l.69-.32a9.2,9.2,0,0,1-.44-1.09l-.72.24A9.85,9.85,0,0,0,346.67,157.34Z"/><path class="cls-3" d="M347.81,159.28l.61-.44a9.3,9.3,0,0,1-.64-1l-.65.38A9,9,0,0,0,347.81,159.28Z"/><path class="cls-3" d="M349.29,161l.52-.54a9.55,9.55,0,0,1-.82-.86l-.57.49A10.72,10.72,0,0,0,349.29,161Z"/><path class="cls-3" d="M345.69,150.72l.74.11a7.68,7.68,0,0,1,.23-1.16l-.74-.18A8.59,8.59,0,0,0,345.69,150.72Z"/><polygon class="cls-3" points="345.6 152.97 346.35 152.94 346.32 152.35 346.35 151.76 345.6 151.72 345.56 152.35 345.6 152.97"/><path class="cls-3" d="M345.92,155.2l.73-.18a9.12,9.12,0,0,1-.22-1.16l-.74.1A8.73,8.73,0,0,0,345.92,155.2Z"/><path class="cls-3" d="M348.43,144.62l.57.49a9.38,9.38,0,0,1,.82-.85l-.52-.55A12.46,12.46,0,0,0,348.43,144.62Z"/><path class="cls-3" d="M347.13,146.47l.66.37a8,8,0,0,1,.64-1l-.62-.44C347.55,145.74,347.36,146.11,347.13,146.47Z"/><path class="cls-3" d="M346.21,148.51l.71.25a8,8,0,0,1,.44-1.09l-.68-.32A9.71,9.71,0,0,0,346.21,148.51Z"/><path class="cls-3" d="M354,141l.21.72c.38-.09.76-.21,1.15-.27l-.14-.74A12,12,0,0,0,354,141Z"/><path class="cls-3" d="M352,141.82l.35.67a10.34,10.34,0,0,1,1.07-.49l-.28-.7A11.72,11.72,0,0,0,352,141.82Z"/><path class="cls-3" d="M350.06,143.05l.47.59a10.45,10.45,0,0,1,1-.68l-.4-.64A12,12,0,0,0,350.06,143.05Z"/><path class="cls-3" d="M360.73,140.94l-.21.72a11.25,11.25,0,0,1,1.11.39l.29-.7A10.46,10.46,0,0,0,360.73,140.94Z"/><path class="cls-3" d="M358.51,140.52l-.07.75c.4,0,.78.11,1.17.17l.15-.74C359.34,140.64,358.93,140.56,358.51,140.52Z"/><path class="cls-3" d="M356.26,140.53l.08.75c.39,0,.78-.05,1.18-.05v-.76C357.1,140.48,356.68,140.51,356.26,140.53Z"/><path class="cls-3" d="M366.37,144.53l-.57.49a11.18,11.18,0,0,1,.74.93l.61-.44A10.47,10.47,0,0,0,366.37,144.53Z"/><path class="cls-3" d="M364.73,143l-.46.6a9.27,9.27,0,0,1,.89.77l.52-.55A10.76,10.76,0,0,0,364.73,143Z"/><path class="cls-3" d="M362.84,141.77l-.34.67c.36.16.67.4,1,.59l.41-.63C363.56,142.19,363.22,141.94,362.84,141.77Z"/><path class="cls-3" d="M369.18,150.6l-.75.11a7.61,7.61,0,0,1,.12,1.17l.75,0A8.67,8.67,0,0,0,369.18,150.6Z"/><path class="cls-3" d="M368.64,148.41l-.71.25a8.63,8.63,0,0,1,.33,1.13l.73-.17A8.38,8.38,0,0,0,368.64,148.41Z"/><path class="cls-3" d="M367.7,146.37l-.65.38a10.4,10.4,0,0,1,.54,1.05l.69-.31A10.76,10.76,0,0,0,367.7,146.37Z"/><path class="cls-3" d="M107.44,160.1l.68-.31a7.93,7.93,0,0,0,.55,1l-.66.39A9.83,9.83,0,0,1,107.44,160.1Z"/><path class="cls-3" d="M106.71,158l.74-.17a8.63,8.63,0,0,0,.33,1.13l-.71.25A9.92,9.92,0,0,1,106.71,158Z"/><path class="cls-3" d="M106.41,155.74l.75,0a7.72,7.72,0,0,0,.11,1.17l-.74.11A7.45,7.45,0,0,1,106.41,155.74Z"/><path class="cls-3" d="M111.79,165.18l.41-.63a10.29,10.29,0,0,0,1,.58l-.34.68A10.65,10.65,0,0,1,111.79,165.18Z"/><path class="cls-3" d="M110,163.77l.52-.54a9.27,9.27,0,0,0,.89.77l-.46.6A9.41,9.41,0,0,1,110,163.77Z"/><path class="cls-3" d="M108.56,162.07l.62-.44a9.33,9.33,0,0,0,.73.93l-.57.5A12.58,12.58,0,0,1,108.56,162.07Z"/><path class="cls-3" d="M118.2,167.1v-.75l1.18-.06.08.75C119,167.06,118.62,167.09,118.2,167.1Z"/><path class="cls-3" d="M116,166.88l.15-.74c.39.05.78.13,1.17.16l-.07.75C116.78,167,116.37,166.93,116,166.88Z"/><path class="cls-3" d="M113.8,166.23l.28-.7a9.23,9.23,0,0,0,1.12.38l-.21.73C114.58,166.54,114.2,166.36,113.8,166.23Z"/><path class="cls-3" d="M124.63,165.25l-.41-.64a11,11,0,0,0,1-.68l.47.59A12.54,12.54,0,0,1,124.63,165.25Z"/><path class="cls-3" d="M122.62,166.27l-.28-.7a10.34,10.34,0,0,0,1.07-.49l.35.67A11.72,11.72,0,0,1,122.62,166.27Z"/><path class="cls-3" d="M120.46,166.89l-.14-.74c.39-.06.76-.18,1.15-.27l.21.72C121.27,166.7,120.87,166.83,120.46,166.89Z"/><path class="cls-3" d="M129,160.21l-.68-.31a8.7,8.7,0,0,0,.44-1.1l.71.25A9.71,9.71,0,0,1,129,160.21Z"/><path class="cls-3" d="M127.89,162.16l-.61-.44a10.43,10.43,0,0,0,.64-1l.66.37A10.7,10.7,0,0,1,127.89,162.16Z"/><path class="cls-3" d="M126.42,163.85l-.52-.55a10.84,10.84,0,0,0,.81-.85l.57.49A12.33,12.33,0,0,1,126.42,163.85Z"/><path class="cls-3" d="M130,153.6l-.75.1a8.65,8.65,0,0,0-.22-1.15l.73-.19A9,9,0,0,1,130,153.6Z"/><polygon class="cls-3" points="130.11 155.85 129.36 155.81 129.39 155.22 129.36 154.63 130.11 154.59 130.14 155.22 130.11 155.85"/><path class="cls-3" d="M129.78,158.07l-.73-.18a7.53,7.53,0,0,0,.22-1.15l.75.1A7.43,7.43,0,0,1,129.78,158.07Z"/><path class="cls-3" d="M127.28,147.5l-.58.49a10.84,10.84,0,0,0-.81-.85l.52-.55A12.46,12.46,0,0,1,127.28,147.5Z"/><path class="cls-3" d="M128.57,149.34l-.65.38a9.3,9.3,0,0,0-.64-1l.61-.44A9,9,0,0,1,128.57,149.34Z"/><path class="cls-3" d="M129.5,151.39l-.72.24a9.2,9.2,0,0,0-.44-1.09l.69-.32A10.58,10.58,0,0,1,129.5,151.39Z"/><path class="cls-3" d="M121.67,143.85l-.22.72a11.1,11.1,0,0,0-1.14-.27l.14-.75C120.86,143.62,121.26,143.75,121.67,143.85Z"/><path class="cls-3" d="M123.76,144.7l-.35.67a11.4,11.4,0,0,0-1.07-.49l.27-.7A11.89,11.89,0,0,1,123.76,144.7Z"/><path class="cls-3" d="M125.64,145.93l-.47.59a9.33,9.33,0,0,0-1-.69l.4-.63A9.15,9.15,0,0,1,125.64,145.93Z"/><path class="cls-3" d="M115,143.82l.21.72c-.39.09-.74.26-1.12.38l-.28-.7C114.19,144.09,114.57,143.91,115,143.82Z"/><path class="cls-3" d="M117.19,143.4l.07.75c-.39,0-.78.11-1.17.16l-.14-.74C116.36,143.52,116.78,143.43,117.19,143.4Z"/><path class="cls-3" d="M119.44,143.4l-.07.76-1.18-.06v-.75C118.6,143.35,119,143.39,119.44,143.4Z"/><path class="cls-3" d="M109.33,147.4l.57.5a9.33,9.33,0,0,0-.73.93l-.62-.44A12.58,12.58,0,0,1,109.33,147.4Z"/><path class="cls-3" d="M111,145.86l.47.59a11.06,11.06,0,0,0-.9.77l-.52-.54A12.12,12.12,0,0,1,111,145.86Z"/><path class="cls-3" d="M112.87,144.65l.34.67c-.36.16-.68.4-1,.59l-.41-.63A10.65,10.65,0,0,1,112.87,144.65Z"/><path class="cls-3" d="M106.53,153.47l.74.11a7.73,7.73,0,0,0-.11,1.18l-.75,0A7.66,7.66,0,0,1,106.53,153.47Z"/><path class="cls-3" d="M107.07,151.28l.71.26a9,9,0,0,0-.34,1.12l-.73-.17A8.81,8.81,0,0,1,107.07,151.28Z"/><path class="cls-3" d="M108,149.25l.65.38a9.29,9.29,0,0,0-.54,1l-.69-.31A9.77,9.77,0,0,1,108,149.25Z"/><path class="cls-3" d="M136.4,157.22l.68-.31a10.4,10.4,0,0,0,.54,1.05l-.65.38A9.06,9.06,0,0,1,136.4,157.22Z"/><path class="cls-3" d="M135.67,155.09l.73-.18a10.54,10.54,0,0,0,.34,1.13l-.71.25A10.32,10.32,0,0,1,135.67,155.09Z"/><path class="cls-3" d="M135.37,152.86l.75,0a7.6,7.6,0,0,0,.11,1.17l-.74.11A7.45,7.45,0,0,1,135.37,152.86Z"/><path class="cls-3" d="M140.75,162.3l.41-.63c.34.19.66.43,1,.59l-.34.67A10.65,10.65,0,0,1,140.75,162.3Z"/><path class="cls-3" d="M139,160.9l.53-.55a9.27,9.27,0,0,0,.89.77l-.46.6A12.57,12.57,0,0,1,139,160.9Z"/><path class="cls-3" d="M137.52,159.19l.62-.43a9.21,9.21,0,0,0,.73.92l-.57.5A12.58,12.58,0,0,1,137.52,159.19Z"/><path class="cls-3" d="M147.16,164.23v-.76l1.18-.05.07.75C148,164.19,147.58,164.22,147.16,164.23Z"/><path class="cls-3" d="M144.91,164l.15-.74c.39.05.77.13,1.17.16l-.07.75C145.74,164.14,145.33,164.06,144.91,164Z"/><path class="cls-3" d="M142.76,163.35l.28-.69c.38.12.73.29,1.12.38l-.21.72A10.46,10.46,0,0,1,142.76,163.35Z"/><path class="cls-3" d="M153.59,162.37l-.41-.64a8,8,0,0,0,1-.68l.47.59A11.88,11.88,0,0,1,153.59,162.37Z"/><path class="cls-3" d="M151.58,163.39l-.28-.7a10.34,10.34,0,0,0,1.07-.49l.35.67A11.72,11.72,0,0,1,151.58,163.39Z"/><path class="cls-3" d="M149.42,164l-.14-.74c.39-.06.76-.19,1.15-.28l.21.72C150.23,163.82,149.83,164,149.42,164Z"/><path class="cls-3" d="M158,157.34l-.68-.32a9.2,9.2,0,0,0,.44-1.09l.71.24A9.85,9.85,0,0,1,158,157.34Z"/><path class="cls-3" d="M156.85,159.28l-.61-.44a9.3,9.3,0,0,0,.64-1l.66.38A10.55,10.55,0,0,1,156.85,159.28Z"/><path class="cls-3" d="M155.37,161l-.51-.54a9.45,9.45,0,0,0,.81-.86l.57.49A9.35,9.35,0,0,1,155.37,161Z"/><path class="cls-3" d="M159,150.72l-.75.11a9.12,9.12,0,0,0-.22-1.16l.73-.18A8.62,8.62,0,0,1,159,150.72Z"/><polygon class="cls-3" points="159.07 152.97 158.32 152.94 158.35 152.35 158.32 151.76 159.07 151.72 159.1 152.35 159.07 152.97"/><path class="cls-3" d="M158.74,155.2,158,155a7.65,7.65,0,0,0,.22-1.16l.75.1A8.76,8.76,0,0,1,158.74,155.2Z"/><path class="cls-3" d="M156.24,144.62l-.58.49a10.84,10.84,0,0,0-.81-.85l.52-.55A12.46,12.46,0,0,1,156.24,144.62Z"/><path class="cls-3" d="M157.53,146.47l-.65.37a10.43,10.43,0,0,0-.64-1l.61-.44A9.08,9.08,0,0,1,157.53,146.47Z"/><path class="cls-3" d="M158.46,148.51l-.72.25a8,8,0,0,0-.44-1.09l.69-.32A9.71,9.71,0,0,1,158.46,148.51Z"/><path class="cls-3" d="M150.63,141l-.22.72c-.38-.09-.75-.21-1.14-.27l.14-.74C149.82,140.74,150.22,140.87,150.63,141Z"/><path class="cls-3" d="M152.72,141.82l-.35.67a11.4,11.4,0,0,0-1.07-.49l.27-.7C152,141.43,152.33,141.65,152.72,141.82Z"/><path class="cls-3" d="M154.6,143.05l-.47.59a9.24,9.24,0,0,0-1-.68l.4-.64A10.64,10.64,0,0,1,154.6,143.05Z"/><path class="cls-3" d="M143.94,140.94l.21.72a10.58,10.58,0,0,0-1.12.39l-.28-.7A10.46,10.46,0,0,1,143.94,140.94Z"/><path class="cls-3" d="M146.15,140.52l.07.75c-.39,0-.78.11-1.17.17l-.14-.74C145.32,140.64,145.74,140.56,146.15,140.52Z"/><path class="cls-3" d="M148.4,140.53l-.07.75c-.4,0-.79-.05-1.18-.05v-.76C147.56,140.48,148,140.51,148.4,140.53Z"/><path class="cls-3" d="M138.29,144.53l.57.49a9.33,9.33,0,0,0-.73.93l-.62-.44A12.41,12.41,0,0,1,138.29,144.53Z"/><path class="cls-3" d="M139.93,143l.47.6a9.38,9.38,0,0,0-.9.77l-.52-.55A12.41,12.41,0,0,1,139.93,143Z"/><path class="cls-3" d="M141.83,141.77l.34.67c-.36.16-.68.4-1,.59l-.41-.63A10.65,10.65,0,0,1,141.83,141.77Z"/><path class="cls-3" d="M135.48,150.6l.75.11a7.6,7.6,0,0,0-.11,1.17l-.75,0A8.67,8.67,0,0,1,135.48,150.6Z"/><path class="cls-3" d="M136,148.41l.72.25a7.35,7.35,0,0,0-.34,1.13l-.73-.17A9.88,9.88,0,0,1,136,148.41Z"/><path class="cls-3" d="M137,146.37l.65.38a10.4,10.4,0,0,0-.54,1.05l-.69-.31A9.12,9.12,0,0,1,137,146.37Z"/></svg>