<?xml version="1.0" encoding="UTF-8" standalone="no"?>
<!DOCTYPE svg PUBLIC "-//W3C//DTD SVG 1.1//EN" "http://www.w3.org/Graphics/SVG/1.1/DTD/svg11.dtd">
<svg width="100%" height="100%" viewBox="0 0 2550 3300" version="1.1" xmlns="http://www.w3.org/2000/svg" xmlns:xlink="http://www.w3.org/1999/xlink" xml:space="preserve" xmlns:serif="http://www.serif.com/" style="fill-rule:evenodd;clip-rule:evenodd;stroke-linecap:round;stroke-linejoin:round;stroke-miterlimit:10;">
    <g transform="matrix(1,0,0,1,23.696,-29.1276)">
        <g transform="matrix(3.39639,0,0,3.39639,2087.16,1034.87)">
            <path d="M0,366.9L-520,352C-544.2,351.3 -564.1,332.8 -566.5,308.7L-591.6,60.7C-594.4,32.6 -572.6,8.1 -544.4,7.7L34.4,-0.3C63.6,-0.7 86.5,24.8 82.9,53.8L49.2,324.7C46.1,349.4 24.8,367.6 0,366.9" style="fill:rgb(234,224,208);fill-rule:nonzero;"/>
        </g>
        <g transform="matrix(3.39639,0,0,3.39639,-515.5,295.815)">
            <clipPath id="_clip1">
                <path d="M800.699,217.3L221.9,225.3C193.7,225.701 171.9,250.2 174.7,278.3L199.8,526.3C202.199,550.401 222.1,568.9 246.3,569.6L766.3,584.5C791.1,585.2 812.4,567 815.5,542.3L849.199,271.401C852.772,242.623 830.255,217.293 801.376,217.295C801.153,217.295 800.924,217.297 800.699,217.3Z" clip-rule="nonzero"/>
            </clipPath>
            <g clip-path="url(#_clip1)">
                <g transform="matrix(1,0,0,1,341.9,363.9)">
                    <path d="M0,265.6L-415.5,265.6C-423.8,265.6 -430.5,258.9 -430.5,250.6L-430.5,15C-430.5,6.7 -423.8,0 -415.5,0L0,0C8.3,0 15,6.7 15,15L15,250.6C15,258.9 8.3,265.6 0,265.6Z" style="fill:none;fill-rule:nonzero;stroke:rgb(189,186,180);stroke-width:2.21px;"/>
                </g>
                <g transform="matrix(1,0,0,1,891,239.4)">
                    <path d="M0,374.3L-419.1,374.3C-427.4,374.3 -434.1,367.6 -434.1,359.3L-434.1,15C-434.1,6.699 -427.4,0 -419.1,0L0,0C8.3,0 15,6.699 15,15L15,359.3C15,367.6 8.3,374.3 0,374.3Z" style="fill:none;fill-rule:nonzero;stroke:rgb(189,186,180);stroke-width:2.21px;"/>
                </g>
                <g transform="matrix(1,0,0,1,242.3,284.6)">
                    <path d="M0,8.9L-89.9,8.9L-89.9,0L0,0C1,0 1.8,0.8 1.8,1.8L1.8,7C1.8,8.1 1,8.9 0,8.9Z" style="fill:none;fill-rule:nonzero;stroke:rgb(189,186,180);stroke-width:2.21px;"/>
                </g>
                <g transform="matrix(1,0,0,1,226,261.6)">
                    <path d="M0,23L-20.3,23C-22.5,23 -24.3,21.4 -24.6,19.2L-26.2,4.801C-26.5,2.301 -24.5,0 -21.9,0L1.6,0C4.2,0 6.1,2.2 5.9,4.801L4.3,19.2C4,21.4 2.2,23 0,23Z" style="fill:none;fill-rule:nonzero;stroke:rgb(189,186,180);stroke-width:2.21px;"/>
                </g>
                <g transform="matrix(1,0,0,1,213.4,244.8)">
                    <path d="M0,16.9C0,16.9 -8,16.1 -9.6,5.299C-9.6,5.299 -2.4,7.4 -0.1,12.5C-0.1,12.5 0.9,1.1 6.3,0C6.3,0 8.7,8.5 4.9,12.7C4.9,12.7 7.8,7.9 15.2,8C15.2,8 13.3,14.799 6,16.799" style="fill:rgb(184,216,199);fill-rule:nonzero;"/>
                </g>
                <g transform="matrix(1,0,0,1,761.7,321.3)">
                    <path d="M0,23L-20.3,23C-22.5,23 -24.3,21.4 -24.6,19.2L-26.2,4.8C-26.5,2.3 -24.5,0 -21.9,0L1.6,0C4.2,0 6.1,2.2 5.9,4.8L4.3,19.2C4,21.3 2.2,23 0,23Z" style="fill:none;fill-rule:nonzero;stroke:rgb(189,186,180);stroke-width:2.21px;"/>
                </g>
                <g transform="matrix(1,0,0,1,749.2,304.401)">
                    <path d="M0,16.899C0,16.899 -8,16.099 -9.6,5.299C-9.6,5.299 -2.4,7.399 -0.1,12.5C-0.1,12.5 0.9,1.099 6.3,0C6.3,0 8.7,8.5 4.9,12.699C4.9,12.699 7.8,7.899 15.2,8C15.2,8 13.3,14.799 6,16.799" style="fill:rgb(184,216,199);fill-rule:nonzero;"/>
                </g>
                <g transform="matrix(1,0,0,1,338.7,377.8)">
                    <path d="M0,35.8L-90.2,35.8C-92.5,35.8 -94.4,33.901 -94.4,31.601L-94.4,4.2C-94.4,1.901 -92.5,0 -90.2,0L0,0C2.3,0 4.2,1.901 4.2,4.2L4.2,31.601C4.3,33.901 2.4,35.8 0,35.8Z" style="fill:none;fill-rule:nonzero;stroke:rgb(189,186,180);stroke-width:2.21px;"/>
                </g>
                <g transform="matrix(1,0,0,1,304,384.5)">
                    <path d="M0,3L-20.8,3C-21.6,3 -22.3,2.3 -22.3,1.5C-22.3,0.7 -21.6,0 -20.8,0L0,0C0.8,0 1.5,0.7 1.5,1.5C1.5,2.3 0.8,3 0,3" style="fill:rgb(222,174,143);fill-rule:nonzero;"/>
                </g>
                <g transform="matrix(1,0,0,1,338.7,423.599)">
                    <path d="M0,35.801L-90.2,35.801C-92.5,35.801 -94.4,33.901 -94.4,31.601L-94.4,4.2C-94.4,1.901 -92.5,0 -90.2,0L0,0C2.3,0 4.2,1.901 4.2,4.2L4.2,31.601C4.3,33.901 2.4,35.801 0,35.801Z" style="fill:none;fill-rule:nonzero;stroke:rgb(189,186,180);stroke-width:2.21px;"/>
                </g>
                <g transform="matrix(1,0,0,1,304,430.3)">
                    <path d="M0,3L-20.8,3C-21.6,3 -22.3,2.3 -22.3,1.5C-22.3,0.7 -21.6,0 -20.8,0L0,0C0.8,0 1.5,0.7 1.5,1.5C1.5,2.3 0.8,3 0,3" style="fill:rgb(222,174,143);fill-rule:nonzero;"/>
                </g>
                <g transform="matrix(1,0,0,1,801.9,456)">
                    <path d="M0,35.8L-90.2,35.8C-92.5,35.8 -94.4,33.901 -94.4,31.6L-94.4,4.2C-94.4,1.901 -92.5,0 -90.2,0L0,0C2.3,0 4.2,1.901 4.2,4.2L4.2,31.6C4.3,33.901 2.4,35.8 0,35.8Z" style="fill:none;fill-rule:nonzero;stroke:rgb(189,186,180);stroke-width:2.21px;"/>
                </g>
                <g transform="matrix(1,0,0,1,767.2,462.6)">
                    <path d="M0,3L-20.8,3C-21.6,3 -22.3,2.301 -22.3,1.5C-22.3,0.7 -21.6,0 -20.8,0L0,0C0.8,0 1.5,0.7 1.5,1.5C1.5,2.4 0.8,3 0,3" style="fill:rgb(222,174,143);fill-rule:nonzero;"/>
                </g>
                <g transform="matrix(1,0,0,1,686.1,456)">
                    <path d="M0,35.8L-90.2,35.8C-92.5,35.8 -94.4,33.901 -94.4,31.6L-94.4,4.2C-94.4,1.901 -92.5,0 -90.2,0L0,0C2.3,0 4.2,1.901 4.2,4.2L4.2,31.6C4.2,33.901 2.3,35.8 0,35.8Z" style="fill:none;fill-rule:nonzero;stroke:rgb(189,186,180);stroke-width:2.21px;"/>
                </g>
                <g transform="matrix(1,0,0,1,651.4,462.6)">
                    <path d="M0,3L-20.8,3C-21.6,3 -22.3,2.301 -22.3,1.5C-22.3,0.7 -21.6,0 -20.8,0L0,0C0.8,0 1.5,0.7 1.5,1.5C1.5,2.4 0.8,3 0,3" style="fill:rgb(222,174,143);fill-rule:nonzero;"/>
                </g>
                <g transform="matrix(1,0,0,1,569.5,456)">
                    <path d="M0,35.8L-90.2,35.8C-92.5,35.8 -94.4,33.901 -94.4,31.6L-94.4,4.2C-94.4,1.901 -92.5,0 -90.2,0L0,0C2.3,0 4.2,1.901 4.2,4.2L4.2,31.6C4.3,33.901 2.4,35.8 0,35.8Z" style="fill:none;fill-rule:nonzero;stroke:rgb(189,186,180);stroke-width:2.21px;"/>
                </g>
                <g transform="matrix(1,0,0,1,534.8,462.6)">
                    <path d="M0,3L-20.8,3C-21.6,3 -22.3,2.301 -22.3,1.5C-22.3,0.7 -21.6,0 -20.8,0L0,0C0.8,0 1.5,0.7 1.5,1.5C1.5,2.4 0.8,3 0,3" style="fill:rgb(222,174,143);fill-rule:nonzero;"/>
                </g>
                <g transform="matrix(1,0,0,1,223.7,377.8)">
                    <path d="M0,35.8L-90.2,35.8C-92.5,35.8 -94.4,33.901 -94.4,31.601L-94.4,4.2C-94.4,1.901 -92.5,0 -90.2,0L0,0C2.3,0 4.2,1.901 4.2,4.2L4.2,31.601C4.3,33.901 2.4,35.8 0,35.8Z" style="fill:none;fill-rule:nonzero;stroke:rgb(189,186,180);stroke-width:2.21px;"/>
                </g>
                <g transform="matrix(1,0,0,1,189,384.5)">
                    <path d="M0,3L-20.8,3C-21.6,3 -22.3,2.3 -22.3,1.5C-22.3,0.7 -21.6,0 -20.8,0L0,0C0.8,0 1.5,0.7 1.5,1.5C1.5,2.3 0.9,3 0,3" style="fill:rgb(222,174,143);fill-rule:nonzero;"/>
                </g>
                <g transform="matrix(1,0,0,1,223.7,423.599)">
                    <path d="M0,35.801L-90.2,35.801C-92.5,35.801 -94.4,33.901 -94.4,31.601L-94.4,4.2C-94.4,1.901 -92.5,0 -90.2,0L0,0C2.3,0 4.2,1.901 4.2,4.2L4.2,31.601C4.3,33.901 2.4,35.801 0,35.801Z" style="fill:none;fill-rule:nonzero;stroke:rgb(189,186,180);stroke-width:2.21px;"/>
                </g>
                <g transform="matrix(1,0,0,1,189,430.3)">
                    <path d="M0,3L-20.8,3C-21.6,3 -22.3,2.3 -22.3,1.5C-22.3,0.7 -21.6,0 -20.8,0L0,0C0.8,0 1.5,0.7 1.5,1.5C1.5,2.3 0.9,3 0,3" style="fill:rgb(222,174,143);fill-rule:nonzero;"/>
                </g>
                <g transform="matrix(1,0,0,1,933.2,255.401)">
                    <path d="M0,88.899L-455,88.899C-457.5,88.899 -459.6,86.799 -459.6,84.299L-459.6,4.599C-459.6,2.099 -457.5,0 -455,0L0,0C2.5,0 4.6,2.099 4.6,4.599L4.6,84.299C4.6,86.799 2.6,88.899 0,88.899Z" style="fill:none;fill-rule:nonzero;stroke:rgb(189,186,180);stroke-width:2.21px;"/>
                </g>
                <g transform="matrix(1,0,0,1,933.2,354.3)">
                    <path d="M0,88.9L-455,88.9C-457.5,88.9 -459.6,86.799 -459.6,84.299L-459.6,4.6C-459.6,2.1 -457.5,0 -455,0L0,0C2.5,0 4.6,2.1 4.6,4.6L4.6,84.299C4.6,86.799 2.6,88.9 0,88.9Z" style="fill:none;fill-rule:nonzero;stroke:rgb(189,186,180);stroke-width:2.21px;"/>
                </g>
                <g transform="matrix(1,0,0,1,0,-129.9)">
                    <rect x="504.3" y="423.8" width="9.9" height="50.3" style="fill:none;stroke:rgb(189,186,180);stroke-width:2.21px;"/>
                </g>
                <g transform="matrix(1,0,0,1,0,-116)">
                    <rect x="514.1" y="423.7" width="10.3" height="36.6" style="fill:none;stroke:rgb(189,186,180);stroke-width:2.21px;"/>
                </g>
                <g transform="matrix(1,0,0,1,0,67.9)">
                    <rect x="802.6" y="324.9" width="9.9" height="50.3" style="fill:none;stroke:rgb(189,186,180);stroke-width:2.21px;"/>
                </g>
                <g transform="matrix(1,0,0,1,0,81.6)">
                    <rect x="812.5" y="324.9" width="10.3" height="36.6" style="fill:none;stroke:rgb(189,186,180);stroke-width:2.21px;"/>
                </g>
                <g transform="matrix(1,0,0,1,0,67.9)">
                    <rect x="782.5" y="324.9" width="9.9" height="50.3" style="fill:none;stroke:rgb(189,186,180);stroke-width:2.21px;"/>
                </g>
                <g transform="matrix(0.953622,0.301006,0.301006,-0.953622,780.751,393.636)">
                    <rect x="-7.8" y="-50.623" width="9.895" height="50.3" style="fill:none;stroke:rgb(189,186,180);stroke-width:2.21px;"/>
                </g>
                <g transform="matrix(1,0,0,1,0,81.6)">
                    <rect x="792.4" y="324.9" width="10.3" height="36.6" style="fill:none;stroke:rgb(189,186,180);stroke-width:2.21px;"/>
                </g>
                <g transform="matrix(1,0,0,1,0,-129.9)">
                    <rect x="669.1" y="423.8" width="9.9" height="50.3" style="fill:none;stroke:rgb(189,186,180);stroke-width:2.21px;"/>
                </g>
                <g transform="matrix(1,0,0,1,0,-116)">
                    <rect x="679" y="423.7" width="10.3" height="36.6" style="fill:none;stroke:rgb(189,186,180);stroke-width:2.21px;"/>
                </g>
                <g transform="matrix(1,0,0,1,0,-129.9)">
                    <rect x="571.3" y="423.8" width="9.9" height="50.3" style="fill:none;stroke:rgb(189,186,180);stroke-width:2.21px;"/>
                </g>
                <g transform="matrix(0.953584,0.301127,0.301127,-0.953584,569.55,294.821)">
                    <rect x="-7.803" y="-50.623" width="9.901" height="50.3" style="fill:none;stroke:rgb(189,186,180);stroke-width:2.21px;"/>
                </g>
                <g transform="matrix(1,0,0,1,0,-116)">
                    <rect x="581.2" y="423.7" width="10.3" height="36.6" style="fill:none;stroke:rgb(189,186,180);stroke-width:2.21px;"/>
                </g>
                <g transform="matrix(1,0,0,1,812.4,327.4)">
                    <path d="M0,-26.9L1.1,-41.8C1.2,-42.8 0.4,-43.6 -0.6,-43.6L-9.2,-43.6C-10.2,-43.6 -10.9,-42.8 -10.9,-41.8L-9.8,-26.9C-9.8,-26.9 -18.8,-21.1 -18.7,-16.3C-18.6,-12.6 -16.4,5.1 -15.4,12.9C-15.1,15.1 -13.3,16.7 -11.1,16.7L1.3,16.7C3.5,16.7 5.3,15.1 5.6,12.9C6.6,5.1 8.8,-12.6 8.9,-16.3C9,-21.1 0,-26.9 0,-26.9" style="fill:rgb(222,174,143);fill-rule:nonzero;"/>
                </g>
                <g transform="matrix(1,0,0,1,712.2,426.502)">
                    <path d="M0,-26.902L1.1,-41.801C1.2,-42.801 0.4,-43.601 -0.6,-43.601L-9.2,-43.601C-10.2,-43.601 -10.9,-42.801 -10.9,-41.801L-9.8,-26.902C-9.8,-26.902 -18.8,-21.101 -18.7,-16.301C-18.6,-12.601 -16.4,5.098 -15.4,12.899C-15.1,15.098 -13.3,16.699 -11.1,16.699L1.3,16.699C3.5,16.699 5.3,15.098 5.6,12.899C6.6,5.098 8.8,-12.601 8.9,-16.301C9,-21.101 0,-26.902 0,-26.902" style="fill:rgb(222,174,143);fill-rule:nonzero;"/>
                </g>
                <g transform="matrix(1,0,0,1,173.2,547.6)">
                    <path d="M0,0L955.8,0" style="fill:none;fill-rule:nonzero;stroke:rgb(189,186,180);stroke-width:2.21px;"/>
                </g>
                <g transform="matrix(1,0,0,1,281.3,335.9)">
                    <path d="M0,28L-75.5,28C-78.8,28 -81.6,25.3 -81.6,21.899L-81.6,6.1C-81.6,2.8 -78.9,0 -75.5,0L0,0C3.3,0 6.1,2.699 6.1,6.1L6.1,21.899C6.1,25.3 3.4,28 0,28Z" style="fill:none;fill-rule:nonzero;stroke:rgb(189,186,180);stroke-width:2.21px;"/>
                </g>
                <g transform="matrix(1,0,0,1,207.2,340.5)">
                    <path d="M0,0L0.9,0" style="fill:none;fill-rule:nonzero;stroke:rgb(189,186,180);stroke-width:2.21px;"/>
                </g>
                <g transform="matrix(-1,0,0,1,214,351.3)">
                    <path d="M-59.2,5L0,5C0,2.2 -2.2,0 -5,0L-54.1,0C-56.9,0 -59.2,2.2 -59.2,5Z" style="fill:none;fill-rule:nonzero;stroke:rgb(189,186,180);stroke-width:2.21px;"/>
                </g>
                <g transform="matrix(1,0,0,1,0,-117.5)">
                    <rect x="222.3" y="432" width="42.6" height="21.5" style="fill:none;stroke:rgb(189,186,180);stroke-width:2.21px;"/>
                </g>
            </g>
        </g>
        <g transform="matrix(3.39639,0,0,3.39639,1479.54,1591.88)">
            <path d="M0,26.9L-39.4,11.9C-40.5,11.5 -41.2,10.4 -41.2,9.2L22,0C22,0 29.8,13.1 29,13.4C28.2,13.7 0,26.9 0,26.9" style="fill:rgb(34,39,46);fill-rule:nonzero;"/>
        </g>
        <g transform="matrix(3.205,1.12403,1.12403,-3.205,1349.34,1586.72)">
            <path d="M0.878,-11.156L45.598,-11.156L64.562,7.893C64.562,7.893 55.622,17.369 55.09,17.076C54.556,16.784 0.878,-11.156 0.878,-11.156" style="fill:rgb(99,115,122);fill-rule:nonzero;"/>
        </g>
        <g transform="matrix(3.39639,0,0,3.39639,1476.83,1464.17)">
            <path d="M0,62L13.8,3.4C14.5,0.6 17,-1.5 19.9,-1.6L83.2,-3.3C84.8,-3.3 86.1,-1.8 85.6,-0.2L72.7,44.8C72.1,47 70.3,48.7 68,49.3L3,64.9C1.1,65.3 -0.5,63.8 0,62" style="fill:rgb(34,39,46);fill-rule:nonzero;"/>
        </g>
        <g transform="matrix(-0.958058,3.25847,3.25847,0.958058,1654.04,1545.31)">
            <path d="M3.645,-4.872C0.332,-4.872 -2.354,-3.171 -2.355,-1.072C-2.355,1.026 0.331,2.728 3.645,2.729C6.958,2.728 9.645,1.027 9.645,-1.071C9.645,-3.17 6.959,-4.872 3.645,-4.872" style="fill:rgb(99,115,122);fill-rule:nonzero;"/>
        </g>
        <g transform="matrix(3.39639,0,0,3.39639,1818.5,804.936)">
            <path d="M0,161.199L-144.8,153.099C-148.5,152.899 -151.2,149.699 -150.9,146L-138.5,19.5C-138.1,15.3 -134.7,12.099 -130.6,11.699L21.2,0.099C25.3,-0.2 28.7,3.3 28.1,7.399L9.1,153.699C8.5,158.099 4.6,161.399 0,161.199" style="fill:rgb(99,115,122);fill-rule:nonzero;"/>
        </g>
        <g transform="matrix(3.39639,0,0,3.39639,1804.92,802.555)">
            <path d="M0,161.9L-145.5,153.8C-149.2,153.6 -152,150.4 -151.6,146.701L-139.2,19.6C-138.8,15.4 -135.4,12.1 -131.2,11.8L21.3,0.1C25.4,-0.2 28.8,3.3 28.3,7.4L9.2,154.4C8.5,158.8 4.5,162.1 0,161.9" style="fill:rgb(34,39,46);fill-rule:nonzero;"/>
        </g>
        <g transform="matrix(-0.428809,3.36922,3.36922,0.428809,1779.96,1209.09)">
            <path d="M-20.917,2.024L-4.284,2.024L-2.08,-18.461L-18.391,-18.622L-20.917,2.024Z" style="fill:white;fill-rule:nonzero;"/>
        </g>
        <g transform="matrix(-0.403016,3.3724,3.3724,0.403016,1638.44,1207.62)">
            <path d="M-20.702,2.476L-4.69,2.476L-2.495,-18.411L-18.186,-18.574L-20.702,2.476Z" style="fill:rgb(190,137,81);fill-rule:nonzero;"/>
        </g>
        <g transform="matrix(-0.418694,3.37049,3.37049,0.418694,1702.19,1262.03)">
            <path d="M-20.427,2.346L-4.203,2.346L-2.371,-18.083L-18.284,-18.146L-20.427,2.346Z" style="fill:rgb(176,215,192);fill-rule:nonzero;"/>
        </g>
        <g transform="matrix(3.39639,0,0,3.39639,1437.77,879.995)">
            <path d="M0,4.7L-17.1,5.7C-17.7,5.7 -18.2,5.2 -18.2,4.599L-17.9,1.7C-17.8,0.9 -17.1,0.2 -16.3,0.099L0.9,-1C1.5,-1 2.1,-0.5 2,0.099L1.7,3.099C1.5,4 0.9,4.599 0,4.7" style="fill:rgb(99,115,122);fill-rule:nonzero;"/>
        </g>
        <g transform="matrix(3.39639,0,0,3.39639,1474.45,943.844)">
            <path d="M0,20.401L-30.2,21.3C-31.4,21.3 -32.4,20.3 -32.3,19.001L-30.7,3.201C-30.6,1.8 -29.4,0.8 -28.1,0.701L2.3,-0.799C3.6,-0.899 4.6,0.201 4.4,1.501L2.6,17.901C2.6,19.201 1.4,20.3 0,20.401" style="fill:rgb(176,215,192);fill-rule:nonzero;"/>
        </g>
        <g transform="matrix(3.39639,0,0,3.39639,1632.72,936.374)">
            <path d="M0,21.2L-33.1,22.2C-34.3,22.2 -35.3,21.2 -35.2,19.9L-33.4,3.2C-33.3,1.801 -32.1,0.801 -30.8,0.7L2.6,-0.9C3.9,-1 4.9,0.1 4.7,1.4L2.7,18.7C2.5,20.1 1.4,21.1 0,21.2" style="fill:rgb(255,231,121);fill-rule:nonzero;"/>
        </g>
        <g transform="matrix(3.39639,0,0,3.39639,1804.92,928.226)">
            <path d="M0,22.099L-36.5,23.2C-37.8,23.2 -38.7,22.2 -38.6,20.899L-36.5,3.299C-36.3,1.899 -35.2,0.899 -33.9,0.799L2.8,-1.001C4.1,-1.101 5.1,-0.001 4.9,1.299L2.6,19.599C2.5,20.999 1.3,21.999 0,22.099" style="fill:rgb(244,194,201);fill-rule:nonzero;"/>
        </g>
        <g transform="matrix(3.39639,0,0,3.39639,1500.6,1058.31)">
            <path d="M0,69.9L75.8,73.299C78.5,73.4 80.9,71.4 81.3,68.7L89.7,2.5C90.1,-0.701 87.6,-3.5 84.4,-3.401L6.9,-1.901C4.2,-1.8 2,0.2 1.7,2.799L-5,64.099C-5.4,67 -3.1,69.7 0,69.9Z" style="fill:none;fill-rule:nonzero;stroke:rgb(99,115,122);stroke-width:2.21px;"/>
        </g>
        <g transform="matrix(3.39622,-0.034734,-0.034734,-3.39622,1504.02,1087.68)">
            <path d="M-0.002,0.45L88.002,0.45" style="fill:none;fill-rule:nonzero;stroke:rgb(99,115,122);stroke-width:2.21px;"/>
        </g>
        <g transform="matrix(-0.385796,3.37441,3.37441,0.385796,1680.6,1216.93)">
            <path d="M-34.803,-31.051L27.703,-31.051" style="fill:none;fill-rule:nonzero;stroke:rgb(99,115,122);stroke-width:2.21px;"/>
        </g>
        <g transform="matrix(-0.399621,3.3728,3.3728,0.399621,1753.76,1219.63)">
            <path d="M-35.621,-31.65L28.121,-31.65" style="fill:none;fill-rule:nonzero;stroke:rgb(99,115,122);stroke-width:2.21px;"/>
        </g>
        <g transform="matrix(-0.409006,3.37168,3.37168,0.409006,1825.11,1221.99)">
            <path d="M-36.286,-32.15L28.486,-32.15" style="fill:none;fill-rule:nonzero;stroke:rgb(99,115,122);stroke-width:2.21px;"/>
        </g>
        <g transform="matrix(3.39638,0.0108684,0.0108684,-3.39638,1583.47,1138.46)">
            <path d="M-0,-0.1L62.5,-0.1" style="fill:none;fill-rule:nonzero;stroke:rgb(99,115,122);stroke-width:2.21px;"/>
        </g>
        <g transform="matrix(3.39586,0.06011,0.06011,-3.39586,1577.41,1189.91)">
            <path d="M-0.005,-0.55L62.205,-0.551" style="fill:none;fill-rule:nonzero;stroke:rgb(99,115,122);stroke-width:2.21px;"/>
        </g>
        <g transform="matrix(3.39479,0.104202,0.104202,-3.39479,1571.39,1241.2)">
            <path d="M-0.015,-0.95L61.915,-0.95" style="fill:none;fill-rule:nonzero;stroke:rgb(99,115,122);stroke-width:2.21px;"/>
        </g>
        <g transform="matrix(-0.241983,-3.38776,-3.38776,0.241983,1798.64,856.288)">
            <path d="M-2.05,-2.309C-3.431,-2.01 -4.551,-0.827 -4.571,0.277C-4.587,1.481 -3.431,2.201 -2.05,1.902C-0.667,1.602 0.452,0.42 0.472,-0.684C0.387,-1.881 -0.668,-2.608 -2.05,-2.309" style="fill:rgb(99,115,122);fill-rule:nonzero;"/>
        </g>
        <g transform="matrix(-0.16155,-3.39255,-3.39255,0.16155,1765.86,858.28)">
            <path d="M-2.1,-2.202C-3.489,-1.936 -4.641,-0.88 -4.584,0.319C-4.626,1.522 -3.49,2.269 -2.1,2.002C-0.712,1.736 0.439,0.68 0.382,-0.519C0.426,-1.722 -0.712,-2.469 -2.1,-2.202" style="fill:rgb(99,115,122);fill-rule:nonzero;"/>
        </g>
        <g transform="matrix(-0.241983,-3.38776,-3.38776,0.241983,1733.09,860.338)">
            <path d="M-2.15,-2.202C-3.531,-1.903 -4.558,-0.827 -4.572,0.377C-4.594,1.482 -3.439,2.201 -2.15,2.009C-0.767,1.71 0.258,0.634 0.273,-0.57C0.387,-1.781 -0.761,-2.401 -2.15,-2.202" style="fill:rgb(99,115,122);fill-rule:nonzero;"/>
        </g>
        <g transform="matrix(3.39639,0,0,3.39639,762.223,999.546)">
            <path d="M0,83.701L-93.3,91.1C-96.2,91.301 -98.8,88.701 -99,85.301L-104.5,-1.1C-104.7,-4.499 -102.2,-7.6 -99.3,-7.299L-9.4,1.701C-6.5,2.001 -4.2,4.301 -3.9,7.4L3.4,79.501C3.8,81.6 2.2,83.501 0,83.701" style="fill:rgb(248,171,93);fill-rule:nonzero;"/>
        </g>
        <g transform="matrix(3.39639,0,0,3.39639,777.507,995.471)">
            <path d="M0,84.1L-94.4,91.6C-97.4,91.8 -100,89.201 -100.2,85.8L-105.6,-1.099C-105.8,-4.599 -103.2,-7.7 -100.3,-7.4L-9.3,1.5C-6.3,1.8 -4.1,4.1 -3.7,7.201L3.7,79.701C3.8,81.901 2.2,83.901 0,84.1" style="fill:rgb(255,231,121);fill-rule:nonzero;"/>
        </g>
        <g transform="matrix(3.39639,0,0,3.39639,565.912,1033.85)">
            <path d="M0,62.7L-21.6,63.7C-23.1,63.8 -24.5,62.4 -24.6,60.7L-28.6,2C-28.7,0.4 -27.5,-1.1 -26.1,-1L-4.8,0.5C-3.4,0.6 -2.3,1.8 -2.2,3.4L2.3,59.8C2.4,61.3 1.3,62.6 0,62.7" style="fill:rgb(34,39,46);fill-rule:nonzero;"/>
        </g>
        <g transform="matrix(3.39639,0,0,3.39639,572.365,1030.8)">
            <path d="M0,62.699L-21.7,63.8C-23.2,63.899 -24.6,62.5 -24.7,60.8L-28.7,1.899C-28.8,0.3 -27.6,-1.2 -26.2,-1.101L-4.8,0.399C-3.4,0.5 -2.3,1.699 -2.2,3.3L2.3,59.899C2.4,61.3 1.3,62.599 0,62.699" style="fill:rgb(176,215,192);fill-rule:nonzero;"/>
        </g>
        <g transform="matrix(3.39017,0.205465,0.205465,-3.39017,512.281,1042)">
            <path d="M-0.003,-0.1L3.303,-0.1" style="fill:none;fill-rule:nonzero;stroke:rgb(34,39,46);stroke-width:2.21px;"/>
        </g>
        <g transform="matrix(3.39639,0,0,3.39639,529.57,1043.36)">
            <path d="M0,0L0.3,0" style="fill:none;fill-rule:nonzero;stroke:rgb(34,39,46);stroke-width:2.21px;"/>
        </g>
        <g transform="matrix(3.39101,0.191222,0.191222,-3.39101,476.123,1050.33)">
            <path d="M-0.021,-0.75L26.621,-0.75" style="fill:none;fill-rule:nonzero;stroke:rgb(34,39,46);stroke-width:2.21px;"/>
        </g>
        <g transform="matrix(3.3945,-0.113444,-0.113444,-3.3945,487.532,1223.2)">
            <path d="M-0.008,0.45L26.908,0.45" style="fill:none;fill-rule:nonzero;stroke:rgb(34,39,46);stroke-width:2.21px;"/>
        </g>
        <g transform="matrix(3.39639,0,0,3.39639,720.108,1079.37)">
            <path d="M0,-9.901L-21,-11.501C-22.3,-11.601 -23.3,-10.501 -23.2,-9.3L-22.5,-1.101C-22.4,-0.101 -21.6,0.799 -20.5,0.799L0.5,1.599C1.8,1.7 2.8,0.599 2.7,-0.701L2,-8.101C1.8,-9.001 1,-9.8 0,-9.901" style="fill:rgb(248,171,93);fill-rule:nonzero;"/>
        </g>
        <g transform="matrix(0.0617424,-3.39583,-3.39583,-0.0617424,656.765,1107.56)">
            <path d="M-2.75,-2.7C-4.148,-2.826 -5.268,-1.746 -5.295,-0.246C-5.322,1.253 -4.148,2.675 -2.75,2.8C-1.352,2.926 -0.232,1.846 -0.203,0.246C-0.276,-1.255 -1.353,-2.575 -2.75,-2.7" style="fill:rgb(248,171,93);fill-rule:nonzero;"/>
        </g>
        <g transform="matrix(3.39607,0.0472599,0.0472599,-3.39607,681.397,1117.07)">
            <path d="M-0.001,-0.1L14.301,-0.1" style="fill:none;fill-rule:nonzero;stroke:rgb(99,115,122);stroke-width:2.21px;"/>
        </g>
        <g transform="matrix(-0.0623596,-3.39582,-3.39582,0.0623596,658.801,1137.79)">
            <path d="M-2.75,-2.801C-4.152,-2.875 -5.231,-1.755 -5.305,-0.254C-5.277,1.246 -4.151,2.626 -2.75,2.7C-1.347,2.774 -0.168,1.652 -0.197,0.053C-0.223,-1.347 -1.349,-2.727 -2.75,-2.801" style="fill:rgb(248,171,93);fill-rule:nonzero;"/>
        </g>
        <g transform="matrix(3.39606,-0.0478318,-0.0478318,-3.39606,684.113,1146.95)">
            <path d="M-0.001,0.1L14.201,0.1" style="fill:none;fill-rule:nonzero;stroke:rgb(99,115,122);stroke-width:2.21px;"/>
        </g>
        <g transform="matrix(-0.123424,-3.39415,-3.39415,0.123424,661.181,1167.52)">
            <path d="M-2.75,-2.852C-4.153,-2.901 -5.212,-1.762 -5.258,-0.259C-5.303,1.244 -4.154,2.603 -2.75,2.652C-1.347,2.701 -0.189,1.558 -0.247,-0.041C-0.197,-1.444 -1.345,-2.703 -2.75,-2.852" style="fill:rgb(248,171,93);fill-rule:nonzero;"/>
        </g>
        <g transform="matrix(3.39337,-0.143382,-0.143382,-3.39337,686.549,1176.84)">
            <path d="M-0.006,0.3L14.206,0.3" style="fill:none;fill-rule:nonzero;stroke:rgb(99,115,122);stroke-width:2.21px;"/>
        </g>
        <g transform="matrix(3.39639,0,0,3.39639,616.858,1453.65)">
            <path d="M0,13.699C-1.3,13.699 4.5,-0.101 10.5,1.8C16.6,3.8 7.6,13.8 0,13.699" style="fill:rgb(109,175,167);fill-rule:nonzero;"/>
        </g>
        <g transform="matrix(3.39639,0,0,3.39639,619.236,1495.08)">
            <path d="M0,3.4C0,3.4 -6.5,-4.8 -13,-2.9C-19.4,-1 -11.4,8.2 0,3.4" style="fill:rgb(109,175,167);fill-rule:nonzero;"/>
        </g>
        <g transform="matrix(3.39639,0,0,3.39639,612.782,1384.36)">
            <path d="M0,27.8C0,27.8 9.7,11.1 5.6,7.1C-1.7,0 -10.9,21 0,27.8" style="fill:rgb(109,175,167);fill-rule:nonzero;"/>
        </g>
        <g transform="matrix(3.39639,0,0,3.39639,667.804,1516.14)">
            <path d="M0,26.999L-14.2,30.199C-18.2,31.1 -22.2,28.999 -23.8,25.199L-30.3,9.6C-31.6,6.6 -29.8,3.1 -26.6,2.399L-0.8,-3.4C2.4,-4.101 5.5,-1.801 5.6,1.499L6.4,18.299C6.8,22.499 4,26.1 0,26.999" style="fill:rgb(34,39,46);fill-rule:nonzero;"/>
        </g>
        <g transform="matrix(-0.468605,-3.36391,-3.36391,0.468605,647.404,1472.1)">
            <path d="M-12.514,9.208C-12.514,9.208 1.676,11.775 7.78,9.208" style="fill:none;fill-rule:nonzero;stroke:black;stroke-width:2.21px;"/>
        </g>
        <g transform="matrix(3.39639,0,0,3.39639,794.15,1849.33)">
            <path d="M0,-40.801C0,-40.801 -0.6,-33.901 -2.2,-29.801C-3.8,-25.7 -6.6,-20.7 -5.7,-13.801C-4.8,-6.901 1.8,3.199 4.4,2.899C7,2.599 5.6,-1.801 5.6,-1.801C5.6,-1.801 8.2,1.899 10.7,0.8C13.2,-0.2 9.8,-8.301 9.8,-8.301C9.8,-8.301 12.9,-3.301 15.7,-3.901C18.5,-4.5 12.9,-12.401 12.9,-12.401C12.9,-12.401 16.6,-8.301 17.6,-8.901C18.6,-9.5 19.5,-9.2 17.6,-13.901C15.7,-18.601 18.8,-33.901 18.7,-37.401C18.6,-40.801 5,-44 0,-40.801" style="fill:rgb(190,137,81);fill-rule:nonzero;"/>
        </g>
        <g transform="matrix(3.39639,0,0,3.39639,920.155,2006.24)">
            <path d="M0,-73.1L19.5,-32.3C20.3,-30.7 19.6,-28.8 18,-28L-39.9,1.2C-41.6,2.1 -43.7,1.3 -44.4,-0.5L-66.1,-56.3C-66.8,-58.1 -65.7,-60.2 -63.8,-60.6L-3.7,-74.8C-2.2,-75.2 -0.6,-74.5 0,-73.1" style="fill:rgb(255,231,121);fill-rule:nonzero;"/>
        </g>
        <g transform="matrix(3.39639,0,0,3.39639,826.754,1956.65)">
            <path d="M0,-13L3.2,-5.3C3.6,-4.3 3.2,-3.2 2.2,-2.8L-6,0.9C-7,1.4 -8.2,0.9 -8.6,-0.1L-11.9,-8.2C-12.3,-9.2 -11.8,-10.3 -10.8,-10.7L-2.6,-14C-1.6,-14.4 -0.5,-13.9 0,-13" style="fill:rgb(109,175,167);fill-rule:nonzero;"/>
        </g>
        <g transform="matrix(-1.27203,-3.1492,-3.1492,1.27203,784.219,1831.48)">
            <path d="M-15.047,10.151L6.847,10.151" style="fill:none;fill-rule:nonzero;stroke:rgb(99,115,122);stroke-width:2.21px;"/>
        </g>
        <g transform="matrix(-1.29955,-3.13794,-3.13794,1.29955,803.925,1824.95)">
            <path d="M-14.815,9.9L6.615,9.9" style="fill:none;fill-rule:nonzero;stroke:rgb(99,115,122);stroke-width:2.21px;"/>
        </g>
        <g transform="matrix(3.39639,0,0,3.39639,888.91,1925.41)">
            <path d="M0,-11.202L3,-4.401C3.4,-3.401 3,-2.302 2,-1.901L-4.4,0.998C-5.4,1.399 -6.5,0.998 -7,-0.002L-10.1,-7.101C-10.5,-8.101 -10.1,-9.202 -9.1,-9.702L-2.6,-12.302C-1.5,-12.601 -0.4,-12.101 0,-11.202" style="fill:rgb(248,171,93);fill-rule:nonzero;"/>
        </g>
        <g transform="matrix(-1.34195,-3.12004,-3.12004,1.34195,850.065,1810.44)">
            <path d="M-14.124,9.3L6.124,9.3" style="fill:none;fill-rule:nonzero;stroke:rgb(99,115,122);stroke-width:2.21px;"/>
        </g>
        <g transform="matrix(-1.37297,-3.10652,-3.10652,1.37297,866.7,1804.94)">
            <path d="M-13.895,9.051L5.895,9.051" style="fill:none;fill-rule:nonzero;stroke:rgb(99,115,122);stroke-width:2.21px;"/>
        </g>
        <g transform="matrix(1.43987,3.07608,3.07608,-1.43987,956.204,1879.66)">
            <path d="M-7.233,-1.929L3.146,-1.929L3.075,-11.281L-7.709,-11.202L-7.233,-1.929Z" style="fill:none;fill-rule:nonzero;stroke:black;stroke-width:2.21px;"/>
        </g>
        <g transform="matrix(-1.40945,-3.09013,-3.09013,1.40945,906.438,1792.79)">
            <path d="M-13.298,8.551L5.498,8.551" style="fill:none;fill-rule:nonzero;stroke:rgb(99,115,122);stroke-width:2.21px;"/>
        </g>
        <g transform="matrix(-1.42212,-3.08433,-3.08433,1.42212,920.905,1788.38)">
            <path d="M-13.045,8.35L5.345,8.35" style="fill:none;fill-rule:nonzero;stroke:rgb(99,115,122);stroke-width:2.21px;"/>
        </g>
        <g transform="matrix(3.39639,0,0,3.39639,860.38,1797.69)">
            <path d="M0,-23.298C0,-23.298 0.1,-20.099 1.6,-14.198C3.1,-8.298 3.7,-1.298 3.8,1.401C3.9,4.101 -0.2,3.202 -2.5,-0.998C-4.8,-5.198 -5.9,-6.399 -7.9,-7.498C-10,-8.698 -11.7,-9.798 -12.9,-13.498C-14.1,-17.198 -3.4,-27.399 0,-23.298" style="fill:rgb(190,137,81);fill-rule:nonzero;"/>
        </g>
        <g transform="matrix(3.39639,0,0,3.39639,971.441,1737.92)">
            <path d="M0,-171.5C-5.7,-171.5 -21.1,-169.3 -34.3,-139.8C-45.3,-115.3 -51.7,-101.6 -53.3,-90.5C-54.9,-79.3 -56.2,-52.899 -55.1,-33.5C-53.9,-14.1 -53.1,-5.899 -53.1,-5.899C-53.1,-5.899 -44.1,0 -32.2,-5.899C-32.2,-5.899 -29.1,-29.699 -26.7,-43.699C-24.4,-57.699 -23.4,-71.8 -24,-78.1C-24,-78.1 -8.3,-105.699 -1.3,-116.699C5.9,-127.699 32.2,-171.5 0,-171.5" style="fill:rgb(87,87,87);fill-rule:nonzero;"/>
        </g>
        <g transform="matrix(3.39639,0,0,3.39639,789.056,1711.77)">
            <path d="M0,-5.7C0,-5.7 10.5,0 22.5,-5.7" style="fill:none;fill-rule:nonzero;stroke:black;stroke-width:2.21px;"/>
        </g>
        <g transform="matrix(-1.62231,2.98389,2.98389,1.62231,854.457,1433.7)">
            <path d="M5.629,-17.947C3.49,-18.2 0.211,-17.82 -2.458,-14.377C-6.585,-8.88 -2.338,-2.246 5.629,0.265C13.598,2.776 20.162,-0.712 21.76,-5.535C22.61,-8.146 21.561,-10.196 20.658,-11.256" style="fill:none;fill-rule:nonzero;stroke:black;stroke-width:2.21px;"/>
        </g>
        <g transform="matrix(3.39639,0,0,3.39639,1231.95,2440.64)">
            <path d="M0,13.8C0,13.8 0.4,7.7 5.8,3.8C11.2,0 17.4,7 3.3,12.7" style="fill:none;fill-rule:nonzero;stroke:rgb(99,115,122);stroke-width:2.21px;"/>
        </g>
        <g transform="matrix(3.39639,0,0,3.39639,1249.95,2493.62)">
            <path d="M0,-3.699C0,-3.699 5.8,-6.399 8.8,-3C11.7,0.401 3.3,2.7 -1.2,-0.3" style="fill:none;fill-rule:nonzero;stroke:rgb(99,115,122);stroke-width:2.21px;"/>
        </g>
        <g transform="matrix(3.39639,0,0,3.39639,937.137,2457.28)">
            <path d="M0,8.899C0,8.899 8.5,-1 15.9,-1.101C23.2,-1.101 14.9,7.099 5.6,10" style="fill:none;fill-rule:nonzero;stroke:rgb(99,115,122);stroke-width:2.21px;"/>
        </g>
        <g transform="matrix(3.39639,0,0,3.39639,958.876,2487.51)">
            <path d="M0,0C0,0 10.4,-4 11.7,0C13,4 0.7,2.9 0.7,2.9" style="fill:none;fill-rule:nonzero;stroke:rgb(99,115,122);stroke-width:2.21px;"/>
        </g>
        <g transform="matrix(3.39639,0,0,3.39639,1147.04,2475.28)">
            <path d="M0,-22.4C0,-22.4 -0.4,-4.6 0,0.3C0.4,5.201 9.4,8.3 16.6,6C23.8,3.701 24,-1 24,-1C24,-1 25.6,-22.5 25.6,-26.6C25.6,-30.7 0.1,-30.5 0,-22.4" style="fill:rgb(190,137,81);fill-rule:nonzero;"/>
        </g>
        <g transform="matrix(-1.28746,3.14292,3.14292,1.28746,1213.28,2368.34)">
            <path d="M15.801,-14.604C15.801,-14.604 19.818,-13.066 24.445,-11.171C24.243,-2.5 19.565,6.282 15.801,12.305C10.097,10.4 3.93,8.307 1.988,7.511C-1.675,5.902 8.267,-17.581 15.801,-14.604" style="fill:rgb(34,39,46);fill-rule:nonzero;"/>
        </g>
        <g transform="matrix(3.39639,0,0,3.39639,1146.36,2544.91)">
            <path d="M0,-23.2C0,-23.2 -1.4,-23.4 -2.8,-12.8C-4.2,-2.2 -5.3,4.2 -1.1,5C3.1,5.8 43,5 47.3,5C51.6,5 54.5,2.7 54.3,-0.1C54.1,-2.9 43.3,-7.3 38.3,-11.3C33.2,-15.2 26,-20.1 25.2,-22.8C23.8,-27.3 21,-29 18.6,-23.2C16.7,-18.7 11.7,-18.2 5.5,-19C1.1,-19.5 0,-23.2 0,-23.2" style="fill:rgb(34,39,46);fill-rule:nonzero;"/>
        </g>
        <g transform="matrix(-1.71887,2.92933,2.92933,1.71887,1278.03,2553.37)">
            <path d="M-11.468,-5.533C-11.468,-5.533 -5.715,-11.78 2.561,-5.533" style="fill:none;fill-rule:nonzero;stroke:rgb(99,115,122);stroke-width:2.21px;"/>
        </g>
        <g transform="matrix(3.39639,0,0,3.39639,870.229,2466.45)">
            <path d="M0,-23.199C0,-23.199 -2.2,-1.099 -2,1.901C-1.8,4.801 7.8,5.801 14,5C20.3,4.2 21,2.301 21,2.301C21,2.301 25.9,-18.399 25.9,-23.099C25.9,-27.8 2,-29 0,-23.199" style="fill:rgb(190,137,81);fill-rule:nonzero;"/>
        </g>
        <g transform="matrix(-1.52395,3.0353,3.0353,1.52395,943.094,2366.48)">
            <path d="M15.199,-16.375C15.199,-16.375 18.863,-14.983 23.332,-13.187C23.094,-4.242 19.638,3.31 15.199,10.592C10.281,9.242 5.409,7.803 3.622,6.906C-0.713,4.841 9.117,-17.19 15.199,-16.375" style="fill:rgb(34,39,46);fill-rule:nonzero;"/>
        </g>
        <g transform="matrix(3.39639,0,0,3.39639,863.777,2558.15)">
            <path d="M0,-30.8C0,-30.8 -1.7,-25.5 -2.3,-20.8C-2.9,-16.1 -7.2,-0.699 -4.3,1.5C-1.4,3.7 40.1,1.5 43.7,1.5C47.2,1.5 51.8,-0.699 51.3,-4.6C50.8,-8.5 43.1,-10.1 37.5,-14C31.9,-17.9 24.7,-25.1 24.7,-25.1C24.7,-25.1 25.9,-31.1 24.9,-32.8C23.9,-34.5 20.8,-27.699 18.6,-26.9C16.4,-26.1 11.7,-25.4 4.2,-26.9C0.6,-27.699 0,-30.8 0,-30.8" style="fill:rgb(34,39,46);fill-rule:nonzero;"/>
        </g>
        <g transform="matrix(-1.85677,2.84392,2.84392,1.85677,987.597,2553.28)">
            <path d="M-11.175,-6.05C-11.175,-6.05 -5.339,-10.599 3.275,-6.05" style="fill:none;fill-rule:nonzero;stroke:rgb(99,115,122);stroke-width:2.21px;"/>
        </g>
        <g transform="matrix(3.39639,0,0,3.39639,1225.49,2362.52)">
            <path d="M0,-236C0,-236 3.5,-223.9 5.5,-198.8C7.5,-173.7 10.2,-127.9 11,-118.9C11.8,-109.9 11.8,-86 9.4,-57.1C7.1,-28.1 8.2,-4.3 9,1.2C9.8,6.7 5.9,11.4 2,12.9C-1.9,14.5 -19.5,14.5 -23.1,12.9C-23.1,12.9 -31.7,8.2 -30.5,0C-29.3,-8.2 -28.9,-24.7 -32.8,-55.2C-36.7,-85.7 -32.8,-107.7 -32.8,-107.7C-32.8,-107.7 -37.3,-121.5 -42.4,-135.8C-44.2,-140.9 -46.1,-146.1 -47.8,-150.8C-50.3,-157.5 -52.6,-162.9 -54,-165.3C-59.1,-173.9 -63,-211.5 -57.1,-231.1C-51.3,-250.5 -9.8,-250.5 0,-236" style="fill:rgb(34,39,46);fill-rule:nonzero;"/>
        </g>
        <g transform="matrix(3.39639,0,0,3.39639,914.382,2406.34)">
            <path d="M0,-250.101C0,-250.101 -10.2,-222.701 -7.4,-191.401C-4.6,-160.101 1.2,-123.701 0,-120.901C-1.2,-118.201 -5.5,-104.101 -9.8,-72.801C-14.1,-41.5 -23.5,-17.601 -21.2,-11.701C-18.9,-5.801 -12.4,-2.701 -10.7,-2.301C-9,-1.901 9,0 13.3,-0.701C17.6,-1.5 24.3,-8.5 24.3,-16.701C24.3,-24.901 25.1,-42.5 33.3,-70.701C41.5,-98.901 44.4,-107.201 47.3,-120.101C50.2,-133 52.9,-201.401 52.9,-201.401C52.9,-201.401 60.2,-235.5 37,-242.5C13.8,-249.701 0,-250.101 0,-250.101" style="fill:rgb(34,39,46);fill-rule:nonzero;"/>
        </g>
        <g transform="matrix(3.38761,0.244152,0.244152,-3.38761,990.097,1794.31)">
            <path d="M0.065,-0.797C0.065,-0.797 16.136,2.968 22.322,-0.797" style="fill:none;fill-rule:nonzero;stroke:rgb(99,115,122);stroke-width:2.21px;"/>
        </g>
        <g transform="matrix(3.39639,0,0,3.39639,912.344,1754.23)">
            <path d="M0,-33.4C0,-33.4 9.9,-29.9 26.9,-28.2C26.9,-28.2 25.1,-10.6 24,-6.9C22.8,-3.2 15.4,0 9.8,0C4.6,0 -1.1,-5.7 -2.3,-9.9C-3.8,-15.6 0,-33.4 0,-33.4Z" style="fill:none;fill-rule:nonzero;stroke:rgb(99,115,122);stroke-width:2.21px;"/>
        </g>
        <g transform="matrix(3.39639,0,0,3.39639,1068.92,1752.53)">
            <path d="M0,-27.499C0,-27.499 16.8,-25.699 29.3,-30.3C29.3,-30.3 31.2,-11.399 30.9,-8.3C30.6,-5.199 23.6,0.601 18.4,1.801C14,2.801 6.8,-0.499 3.4,-3.499C0,-6.499 0,-27.499 0,-27.499Z" style="fill:none;fill-rule:nonzero;stroke:rgb(99,115,122);stroke-width:2.21px;"/>
        </g>
        <g transform="matrix(-1.07775,-3.22086,-3.22086,1.07775,1269.98,1665.41)">
            <path d="M-18.058,13C-18.058,13 -11,18.969 9.358,13" style="fill:none;fill-rule:nonzero;stroke:rgb(99,115,122);stroke-width:2.21px;"/>
        </g>
        <g transform="matrix(3.39639,0,0,3.39639,1081.15,1801.44)">
            <path d="M0,29.5C-1.8,24.4 -3.7,19.2 -5.4,14.5C-7.9,7.8 -10.2,2.4 -11.6,0" style="fill:none;fill-rule:nonzero;stroke:rgb(99,115,122);stroke-width:2.21px;"/>
        </g>
        <g transform="matrix(3.39639,0,0,3.39639,944.61,1982.8)">
            <path d="M0,2.7C0,2.7 12.1,0 19.4,2.7" style="fill:none;fill-rule:nonzero;stroke:rgb(99,115,122);stroke-width:2.21px;"/>
        </g>
        <g transform="matrix(3.37425,-0.387209,-0.387209,-3.37425,1114.35,1999.41)">
            <path d="M-0.097,0.703C-0.097,0.703 6.137,2.404 12.183,0.703" style="fill:none;fill-rule:nonzero;stroke:rgb(99,115,122);stroke-width:2.21px;"/>
        </g>
        <g transform="matrix(-0.314513,3.3818,3.3818,0.314513,888.987,2419.06)">
            <path d="M-2.36,-2.151C-2.36,-2.151 1.162,-2.225 1.96,-2.151" style="fill:none;fill-rule:nonzero;stroke:rgb(99,115,122);stroke-width:2.21px;"/>
        </g>
        <g transform="matrix(-0.307495,3.38245,3.38245,0.307495,915.309,2425.01)">
            <path d="M-2.409,-2.2C-2.409,-2.2 1.294,-2.064 2.009,-2.2" style="fill:none;fill-rule:nonzero;stroke:rgb(99,115,122);stroke-width:2.21px;"/>
        </g>
        <g transform="matrix(-0.503823,3.35882,3.35882,0.503823,947.441,2426.35)">
            <path d="M-2.322,-2C-2.322,-2 1.213,-1.975 1.722,-2" style="fill:none;fill-rule:nonzero;stroke:rgb(99,115,122);stroke-width:2.21px;"/>
        </g>
        <g transform="matrix(0,3.39639,3.39639,0,1167.58,2429.26)">
            <path d="M-2.35,-2.35L2.35,-2.35" style="fill:none;fill-rule:nonzero;stroke:rgb(99,115,122);stroke-width:2.21px;"/>
        </g>
        <g transform="matrix(-0.412802,3.37121,3.37121,0.412802,1197.29,2432.64)">
            <path d="M-2.768,-2.45C-2.768,-2.45 1.239,-2.262 2.168,-2.45" style="fill:none;fill-rule:nonzero;stroke:rgb(99,115,122);stroke-width:2.21px;"/>
        </g>
        <g transform="matrix(-0.236328,3.38816,3.38816,0.236328,1227.82,2430.62)">
            <path d="M-2.306,-2.151C-2.306,-2.151 0.701,-2.141 2.006,-2.151" style="fill:none;fill-rule:nonzero;stroke:rgb(99,115,122);stroke-width:2.21px;"/>
        </g>
        <g transform="matrix(-3.39639,0,0,3.39639,1149.07,1045.06)">
            <ellipse cx="0" cy="-8.7" rx="7.2" ry="8.7" style="fill:none;stroke:black;stroke-width:2.21px;"/>
        </g>
        <g transform="matrix(3.39639,0,0,3.39639,1148.73,1108.91)">
            <path d="M0,-47.1C0,-47.1 2.6,-42.499 1.8,-32.6C0.9,-22.6 3.2,-14.499 2,-7.999C0.7,-1.4 -4.5,1.8 -7.3,2.6C-10,3.4 -24,5.3 -30.9,-3.9C-37.8,-13.1 -44.1,-40.2 -32.9,-45.4C-21.7,-50.499 -4.7,-52.4 0,-47.1" style="fill:rgb(190,137,81);fill-rule:nonzero;"/>
        </g>
        <g transform="matrix(3.39639,0,0,3.39639,1155.19,963.208)">
            <path d="M0,34.9C1.3,28.299 -1.1,20.299 -0.2,10.299C0.7,0.299 -2,-4.201 -2,-4.201C-6.7,-9.5 -23.6,-7.6 -34.9,-2.401C-43.4,1.5 -41.8,18 -37.6,29.7C-29.5,38.7 -17.9,44.4 -5.5,42.5C-5.2,42.5 -4.8,42.5 -4.2,42.4C-2.3,40.7 -0.6,38.299 0,34.9" style="fill:rgb(190,137,81);fill-rule:nonzero;"/>
        </g>
        <g transform="matrix(-1.66355,2.9611,2.9611,1.66355,1141.19,1063.96)">
            <path d="M16.379,-29.085C19.007,-26.003 21.1,-22.992 22.272,-20.384C26.914,-9.862 18.362,1.277 16.379,3.375C15.395,4.313 13.543,5.567 11.266,6.352C11.473,5.78 22.507,-0.179 16.379,-29.085" style="fill:rgb(142,96,48);fill-rule:nonzero;"/>
        </g>
        <g transform="matrix(3.39452,-0.112868,-0.112868,-3.39452,1132.8,1015.85)">
            <path d="M-0.003,0.2L12.003,0.199" style="fill:none;fill-rule:nonzero;stroke:black;stroke-width:2.21px;"/>
        </g>
        <g transform="matrix(3.39639,0,0,3.39639,1084.2,1159.86)">
            <path d="M0,-18.2C0,-18.2 5.2,-16.301 8.3,-12.9C8.3,-12.9 7.3,-7.1 7.7,-4.2C8.1,-1.301 3.9,4.9 -5.2,4.4C-14.3,3.9 -22.1,-3 -22.1,-3C-22.1,-3 -21,-15.6 -19.5,-19.301C-17.9,-23.1 0,-18.2 0,-18.2" style="fill:rgb(190,137,81);fill-rule:nonzero;"/>
        </g>
        <g transform="matrix(3.39639,0,0,3.39639,1103.22,1145.25)">
            <path d="M0,-11C0,-11 0,-10.899 0,-11C1.7,-9.8 2.5,-7.8 2.3,-5.8C2.1,-3.899 1.9,-1.5 2.1,0" style="fill:none;fill-rule:nonzero;stroke:rgb(142,96,48);stroke-width:2.21px;"/>
        </g>
        <g transform="matrix(3.39639,0,0,3.39639,1130.39,987.322)">
            <path d="M0,8.8C0,8.8 2.2,7.199 2.9,4.6C3.6,1.999 4,-0.001 4,-0.001C4,-0.001 5.4,1.3 7.2,1.999C9.1,2.699 14,-2.501 14.7,-9.6C15.4,-16.7 12.1,-24.1 4,-27.2C0.9,-28.4 -3.8,-28.6 -8.5,-28.301C-15.1,-27.9 -21.4,-25.7 -27,-22.2C-28.2,-21.501 -29.7,-20.801 -31.4,-20.6C-37.2,-19.801 -40.8,-17.501 -44.2,-9.4C-47.6,-1.4 -48,4.9 -43.4,14.6C-38.8,24.3 -37.4,24.9 -36.7,28.9C-35.9,32.9 -36.9,37.4 -33.7,36.699C-24.9,34.699 -15.9,37.199 -13.8,35.9C-11.6,34.6 -4.7,22.199 -3.9,16.199C-3.1,10.1 -1.3,8.1 0,8.8" style="fill:rgb(34,39,46);fill-rule:nonzero;"/>
        </g>
        <g transform="matrix(3.39639,0,0,3.39639,1134.81,1032.49)">
            <path d="M0,-3.9C0,-3.9 -2.1,-9.5 -6.1,-7.8C-11.5,-5.5 -8.2,4 -3,5.6" style="fill:rgb(190,137,81);fill-rule:nonzero;"/>
        </g>
        <g transform="matrix(3.39639,0,0,3.39639,1114.77,1027.06)">
            <path d="M0,-1.3C-0.1,-1.7 -0.2,-2.2 0,-2.7C0.1,-2.9 0.2,-3.2 0.5,-3.4C0.7,-3.6 1.1,-3.8 1.4,-3.8C1.5,-3.8 1.8,-3.8 2,-3.7C2.2,-3.6 2.4,-3.5 2.5,-3.3C2.6,-3.2 2.7,-3 2.8,-2.9C2.9,-2.8 2.9,-2.6 3,-2.5C3.2,-2 3.2,-1.6 3.2,-1.2C3.3,-0.4 3.2,0.4 3.3,0.9C3.3,1.3 3.8,1.8 4.7,2C4.4,2.3 3.9,2.5 3.4,2.4C2.9,2.3 2.3,2 2,1.5C1.5,0.5 1.5,-0.3 1.4,-1.1C1.4,-1.5 1.3,-1.9 1.3,-2.1L1.3,-2.4L1.4,-2.4C1.3,-2.5 1.1,-2.5 0.8,-2.3C0.4,-2 0.2,-1.7 0,-1.3" style="fill-rule:nonzero;"/>
        </g>
        <g transform="matrix(0.951477,3.2604,3.2604,-0.951477,1035.46,1080.26)">
            <path d="M16.041,-13.692C16.041,-13.692 10.15,-11.035 9.262,-10.151C8.47,-9.295 11.52,5.441 16.041,13.08C20.563,20.719 27.346,17.906 27.346,17.906C27.346,17.906 21.276,3.531 16.041,-13.692" style="fill:rgb(87,87,87);fill-rule:nonzero;"/>
        </g>
        <g transform="matrix(3.39639,0,0,3.39639,904.533,1525.31)">
            <path d="M0,-88.5C1.7,-98.1 5.3,-113 40,-113.1C69.6,-113.2 83.3,-108.8 90.5,-103.3C97.7,-97.8 98.5,-83.3 96.2,-60.6C93.9,-37.9 93.5,-24.4 94.8,-10.3C96.2,3.8 101.8,9.9 94.2,17.5C94.2,17.5 72.3,24.7 44.3,24.7C16.3,24.7 2.4,16.9 1.8,14.7C1.2,12.5 -1.5,11.8 1,6.1C3.5,0.4 5.2,-19.7 3.6,-31.8C2,-43.9 -4.2,-64.4 0,-88.5" style="fill:rgb(255,231,121);fill-rule:nonzero;"/>
        </g>
        <g transform="matrix(3.39639,0,0,3.39639,-515.5,295.815)">
            <clipPath id="_clip2">
                <path d="M458.1,248.901C423.4,249 419.8,263.9 418.1,273.5C416.4,283.5 416.4,292.8 417.1,301.201C418.199,313.1 420.799,323.099 421.699,330.2C423.3,342.3 421.6,362.401 419.1,368.099C416.6,373.8 419.3,374.5 419.9,376.7C420.5,378.9 434.4,386.701 462.4,386.701C490.4,386.701 512.3,379.5 512.3,379.5C519.9,371.9 514.3,365.8 512.9,351.701C511.6,337.599 512,324.099 514.3,301.4C516.6,278.701 515.8,264.2 508.6,258.7C501.481,253.262 488.008,248.899 459.093,248.899C458.764,248.899 458.432,248.9 458.1,248.901Z" clip-rule="nonzero"/>
            </clipPath>
            <g clip-path="url(#_clip2)">
                <g transform="matrix(0.700013,-0.71413,-0.71413,-0.700013,423.452,391.586)">
                    <rect x="1.056" y="-2.515" width="5.099" height="5.101" style="fill:rgb(248,171,93);"/>
                </g>
                <g transform="matrix(0.700013,-0.71413,-0.71413,-0.700013,423.272,375.008)">
                    <rect x="1.056" y="-2.514" width="5.1" height="5.1" style="fill:rgb(248,171,93);"/>
                </g>
                <g transform="matrix(0.700013,-0.71413,-0.71413,-0.700013,423.021,358.359)">
                    <rect x="1.056" y="-2.514" width="5.1" height="5.1" style="fill:rgb(248,171,93);"/>
                </g>
                <g transform="matrix(0.700013,-0.71413,-0.71413,-0.700013,422.911,341.709)">
                    <rect x="1.056" y="-2.515" width="5.099" height="5.101" style="fill:rgb(248,171,93);"/>
                </g>
                <g transform="matrix(0.700013,-0.71413,-0.71413,-0.700013,422.731,325.131)">
                    <rect x="1.056" y="-2.514" width="5.1" height="5.1" style="fill:rgb(248,171,93);"/>
                </g>
                <g transform="matrix(0.700013,-0.71413,-0.71413,-0.700013,438.333,391.444)">
                    <rect x="1.056" y="-2.515" width="5.099" height="5.101" style="fill:rgb(248,171,93);"/>
                </g>
                <g transform="matrix(0.699915,-0.714227,-0.714227,-0.699915,438.224,374.795)">
                    <rect x="1.056" y="-2.514" width="5.099" height="5.101" style="fill:rgb(248,171,93);"/>
                </g>
                <g transform="matrix(0.700013,-0.71413,-0.71413,-0.700013,438.043,358.216)">
                    <rect x="1.056" y="-2.515" width="5.099" height="5.101" style="fill:rgb(248,171,93);"/>
                </g>
                <g transform="matrix(0.700013,-0.71413,-0.71413,-0.700013,437.863,341.638)">
                    <rect x="1.056" y="-2.514" width="5.1" height="5.1" style="fill:rgb(248,171,93);"/>
                </g>
                <g transform="matrix(0.700013,-0.71413,-0.71413,-0.700013,437.754,324.987)">
                    <rect x="1.056" y="-2.515" width="5.099" height="5.101" style="fill:rgb(248,171,93);"/>
                </g>
                <g transform="matrix(0.699915,-0.714227,-0.714227,-0.699915,453.356,391.302)">
                    <rect x="1.056" y="-2.514" width="5.099" height="5.101" style="fill:rgb(248,171,93);"/>
                </g>
                <g transform="matrix(0.700013,-0.71413,-0.71413,-0.700013,453.175,374.723)">
                    <rect x="1.056" y="-2.515" width="5.099" height="5.101" style="fill:rgb(248,171,93);"/>
                </g>
                <g transform="matrix(0.700013,-0.71413,-0.71413,-0.700013,452.994,358.003)">
                    <rect x="1.056" y="-2.515" width="5.099" height="5.101" style="fill:rgb(248,171,93);"/>
                </g>
                <g transform="matrix(0.699915,-0.714227,-0.714227,-0.699915,452.815,341.425)">
                    <rect x="1.056" y="-2.514" width="5.099" height="5.101" style="fill:rgb(248,171,93);"/>
                </g>
                <g transform="matrix(0.700013,-0.71413,-0.71413,-0.700013,452.634,324.846)">
                    <rect x="1.056" y="-2.515" width="5.099" height="5.101" style="fill:rgb(248,171,93);"/>
                </g>
                <g transform="matrix(0.700013,-0.71413,-0.71413,-0.700013,468.236,391.16)">
                    <rect x="1.056" y="-2.514" width="5.1" height="5.1" style="fill:rgb(248,171,93);"/>
                </g>
                <g transform="matrix(0.700013,-0.71413,-0.71413,-0.700013,468.126,374.51)">
                    <rect x="1.056" y="-2.514" width="5.1" height="5.1" style="fill:rgb(248,171,93);"/>
                </g>
                <g transform="matrix(0.699915,-0.714227,-0.714227,-0.699915,467.947,357.932)">
                    <rect x="1.056" y="-2.514" width="5.099" height="5.101" style="fill:rgb(248,171,93);"/>
                </g>
                <g transform="matrix(0.700013,-0.71413,-0.71413,-0.700013,467.766,341.352)">
                    <rect x="1.056" y="-2.515" width="5.099" height="5.101" style="fill:rgb(248,171,93);"/>
                </g>
                <g transform="matrix(0.699915,-0.714227,-0.714227,-0.699915,467.657,324.703)">
                    <rect x="1.056" y="-2.514" width="5.099" height="5.101" style="fill:rgb(248,171,93);"/>
                </g>
                <g transform="matrix(0.700013,-0.71413,-0.71413,-0.700013,483.258,391.016)">
                    <rect x="1.056" y="-2.515" width="5.099" height="5.101" style="fill:rgb(248,171,93);"/>
                </g>
                <g transform="matrix(0.699915,-0.714227,-0.714227,-0.699915,483.079,374.438)">
                    <rect x="1.056" y="-2.514" width="5.099" height="5.101" style="fill:rgb(248,171,93);"/>
                </g>
                <g transform="matrix(0.700013,-0.71413,-0.71413,-0.700013,482.897,357.718)">
                    <rect x="1.056" y="-2.515" width="5.099" height="5.101" style="fill:rgb(248,171,93);"/>
                </g>
                <g transform="matrix(0.700013,-0.71413,-0.71413,-0.700013,482.717,341.14)">
                    <rect x="1.056" y="-2.514" width="5.1" height="5.1" style="fill:rgb(248,171,93);"/>
                </g>
                <g transform="matrix(0.700013,-0.71413,-0.71413,-0.700013,482.537,324.56)">
                    <rect x="1.056" y="-2.515" width="5.099" height="5.101" style="fill:rgb(248,171,93);"/>
                </g>
                <g transform="matrix(0.700013,-0.71413,-0.71413,-0.700013,498.209,390.804)">
                    <rect x="1.056" y="-2.514" width="5.1" height="5.1" style="fill:rgb(248,171,93);"/>
                </g>
                <g transform="matrix(0.699915,-0.714227,-0.714227,-0.699915,498.03,374.225)">
                    <rect x="1.056" y="-2.514" width="5.099" height="5.101" style="fill:rgb(248,171,93);"/>
                </g>
                <g transform="matrix(0.700013,-0.71413,-0.71413,-0.700013,497.849,357.646)">
                    <rect x="1.056" y="-2.515" width="5.099" height="5.101" style="fill:rgb(248,171,93);"/>
                </g>
                <g transform="matrix(0.699915,-0.714227,-0.714227,-0.699915,497.74,340.997)">
                    <rect x="1.056" y="-2.514" width="5.099" height="5.101" style="fill:rgb(248,171,93);"/>
                </g>
                <g transform="matrix(0.700013,-0.71413,-0.71413,-0.700013,497.56,324.418)">
                    <rect x="1.056" y="-2.514" width="5.1" height="5.1" style="fill:rgb(248,171,93);"/>
                </g>
                <g transform="matrix(0.699915,-0.714227,-0.714227,-0.699915,513.162,390.732)">
                    <rect x="1.056" y="-2.514" width="5.099" height="5.101" style="fill:rgb(248,171,93);"/>
                </g>
                <g transform="matrix(0.700013,-0.71413,-0.71413,-0.700013,513.051,374.082)">
                    <rect x="1.056" y="-2.514" width="5.1" height="5.1" style="fill:rgb(248,171,93);"/>
                </g>
                <g transform="matrix(0.699915,-0.714227,-0.714227,-0.699915,512.801,357.433)">
                    <rect x="1.056" y="-2.514" width="5.099" height="5.101" style="fill:rgb(248,171,93);"/>
                </g>
                <g transform="matrix(0.699915,-0.714227,-0.714227,-0.699915,512.621,340.855)">
                    <rect x="1.056" y="-2.514" width="5.099" height="5.101" style="fill:rgb(248,171,93);"/>
                </g>
                <g transform="matrix(0.700013,-0.71413,-0.71413,-0.700013,512.51,324.205)">
                    <rect x="1.056" y="-2.514" width="5.1" height="5.1" style="fill:rgb(248,171,93);"/>
                </g>
                <g transform="matrix(0.700013,-0.71413,-0.71413,-0.700013,422.551,308.552)">
                    <rect x="1.056" y="-2.515" width="5.099" height="5.101" style="fill:rgb(248,171,93);"/>
                </g>
                <g transform="matrix(0.700013,-0.71413,-0.71413,-0.700013,422.442,291.902)">
                    <rect x="1.056" y="-2.514" width="5.1" height="5.1" style="fill:rgb(248,171,93);"/>
                </g>
                <g transform="matrix(0.700013,-0.71413,-0.71413,-0.700013,422.261,275.323)">
                    <rect x="1.056" y="-2.515" width="5.099" height="5.101" style="fill:rgb(248,171,93);"/>
                </g>
                <g transform="matrix(0.700013,-0.71413,-0.71413,-0.700013,422.082,258.745)">
                    <rect x="1.056" y="-2.514" width="5.1" height="5.1" style="fill:rgb(248,171,93);"/>
                </g>
                <g transform="matrix(0.700013,-0.71413,-0.71413,-0.700013,437.502,308.339)">
                    <rect x="1.056" y="-2.515" width="5.099" height="5.101" style="fill:rgb(248,171,93);"/>
                </g>
                <g transform="matrix(0.700013,-0.71413,-0.71413,-0.700013,437.322,291.761)">
                    <rect x="1.056" y="-2.514" width="5.1" height="5.1" style="fill:rgb(248,171,93);"/>
                </g>
                <g transform="matrix(0.700013,-0.71413,-0.71413,-0.700013,437.212,275.11)">
                    <rect x="1.056" y="-2.514" width="5.1" height="5.1" style="fill:rgb(248,171,93);"/>
                </g>
                <g transform="matrix(0.699915,-0.714227,-0.714227,-0.699915,437.033,258.532)">
                    <rect x="1.056" y="-2.514" width="5.099" height="5.101" style="fill:rgb(248,171,93);"/>
                </g>
                <g transform="matrix(0.699915,-0.714227,-0.714227,-0.699915,452.525,308.196)">
                    <rect x="1.056" y="-2.514" width="5.099" height="5.101" style="fill:rgb(248,171,93);"/>
                </g>
                <g transform="matrix(0.700013,-0.71413,-0.71413,-0.700013,452.344,291.617)">
                    <rect x="1.056" y="-2.515" width="5.099" height="5.101" style="fill:rgb(248,171,93);"/>
                </g>
                <g transform="matrix(0.699915,-0.714227,-0.714227,-0.699915,452.166,275.039)">
                    <rect x="1.056" y="-2.514" width="5.099" height="5.101" style="fill:rgb(248,171,93);"/>
                </g>
                <g transform="matrix(0.700013,-0.71413,-0.71413,-0.700013,452.055,258.389)">
                    <rect x="1.056" y="-2.515" width="5.099" height="5.101" style="fill:rgb(248,171,93);"/>
                </g>
                <g transform="matrix(0.700013,-0.71413,-0.71413,-0.700013,467.477,308.124)">
                    <rect x="1.056" y="-2.515" width="5.099" height="5.101" style="fill:rgb(248,171,93);"/>
                </g>
                <g transform="matrix(0.700013,-0.71413,-0.71413,-0.700013,467.295,291.404)">
                    <rect x="1.056" y="-2.515" width="5.099" height="5.101" style="fill:rgb(248,171,93);"/>
                </g>
                <g transform="matrix(0.699915,-0.714227,-0.714227,-0.699915,467.116,274.826)">
                    <rect x="1.056" y="-2.514" width="5.099" height="5.101" style="fill:rgb(248,171,93);"/>
                </g>
                <g transform="matrix(0.700013,-0.71413,-0.71413,-0.700013,466.936,258.247)">
                    <rect x="1.056" y="-2.514" width="5.1" height="5.1" style="fill:rgb(248,171,93);"/>
                </g>
                <g transform="matrix(0.700013,-0.71413,-0.71413,-0.700013,482.427,307.911)">
                    <rect x="1.056" y="-2.514" width="5.1" height="5.1" style="fill:rgb(248,171,93);"/>
                </g>
                <g transform="matrix(0.699915,-0.714227,-0.714227,-0.699915,482.249,291.333)">
                    <rect x="1.056" y="-2.514" width="5.099" height="5.101" style="fill:rgb(248,171,93);"/>
                </g>
                <g transform="matrix(0.700013,-0.71413,-0.71413,-0.700013,482.068,274.754)">
                    <rect x="1.056" y="-2.514" width="5.1" height="5.1" style="fill:rgb(248,171,93);"/>
                </g>
                <g transform="matrix(0.700013,-0.71413,-0.71413,-0.700013,481.958,258.103)">
                    <rect x="1.056" y="-2.515" width="5.099" height="5.101" style="fill:rgb(248,171,93);"/>
                </g>
                <g transform="matrix(0.699915,-0.714227,-0.714227,-0.699915,497.381,307.84)">
                    <rect x="1.056" y="-2.514" width="5.099" height="5.101" style="fill:rgb(248,171,93);"/>
                </g>
                <g transform="matrix(0.699915,-0.714227,-0.714227,-0.699915,497.199,291.12)">
                    <rect x="1.056" y="-2.514" width="5.099" height="5.101" style="fill:rgb(248,171,93);"/>
                </g>
                <g transform="matrix(0.700013,-0.71413,-0.71413,-0.700013,497.019,274.541)">
                    <rect x="1.056" y="-2.514" width="5.1" height="5.1" style="fill:rgb(248,171,93);"/>
                </g>
                <g transform="matrix(0.700013,-0.71413,-0.71413,-0.700013,496.838,257.962)">
                    <rect x="1.056" y="-2.515" width="5.099" height="5.101" style="fill:rgb(248,171,93);"/>
                </g>
                <g transform="matrix(0.700013,-0.71413,-0.71413,-0.700013,512.331,307.626)">
                    <rect x="1.056" y="-2.515" width="5.099" height="5.101" style="fill:rgb(248,171,93);"/>
                </g>
                <g transform="matrix(0.700013,-0.71413,-0.71413,-0.700013,512.151,291.048)">
                    <rect x="1.056" y="-2.514" width="5.1" height="5.1" style="fill:rgb(248,171,93);"/>
                </g>
                <g transform="matrix(0.700013,-0.71413,-0.71413,-0.700013,512.041,274.397)">
                    <rect x="1.056" y="-2.515" width="5.099" height="5.101" style="fill:rgb(248,171,93);"/>
                </g>
                <g transform="matrix(0.700013,-0.71413,-0.71413,-0.700013,511.861,257.819)">
                    <rect x="1.056" y="-2.514" width="5.1" height="5.1" style="fill:rgb(248,171,93);"/>
                </g>
            </g>
        </g>
        <g transform="matrix(3.39639,0,0,3.39639,1365.42,1036.57)">
            <path d="M0,30.9C0,30.9 2.3,23.4 2,20.7C1.7,18 -0.5,12 -1.5,9.8C-2.5,7.6 -1.7,1.4 -1.9,-1.7C-2.1,-4.8 1.5,-4 2.5,-0.9C3.5,2.2 4.7,3.6 4.7,3.6C4.7,3.6 8.6,-5.4 9.2,-7.9C9.8,-10.4 11.4,-18.4 13.8,-20.3C16.1,-22.3 17.1,-20.2 15.8,-14.8C14.9,-11.1 15,-9 15,-8.7C15,-8.4 17.9,-7.9 19.1,-6.2C19.6,-5.5 20,-2.9 20,-2.9C20.2,-2.8 21.2,-3 22.4,-2.3C23.1,-1.9 23.9,-0.6 24.6,0C25.3,0.7 26,1.4 26.5,2.2C27.4,3.5 28.1,6.1 25.4,17.1C23.9,23.1 21.2,25.2 19.2,39.2C16.9,53.2 -2,39.8 0,30.9" style="fill:rgb(190,137,81);fill-rule:nonzero;"/>
        </g>
        <g transform="matrix(-2.20912,2.57978,2.57978,2.20912,1448.85,1174.57)">
            <path d="M2.454,-28.13C5.199,-26.569 8.508,-25.052 8.508,-25.052C16.569,-20.783 14.454,2.289 2.454,-5.222C-0.606,-7.184 -3.199,-8.615 -5.27,-9.73C-5.958,-16.77 -3.932,-23.593 2.454,-28.13" style="fill:rgb(99,115,122);fill-rule:nonzero;"/>
        </g>
        <g transform="matrix(-3.06944,1.45396,1.45396,3.06944,1425.87,1143.98)">
            <path d="M2.097,-9.329C-0.388,-9.328 -2.402,-7.135 -2.402,-4.429C-2.403,-1.723 -0.388,0.471 2.097,0.471C4.583,0.471 6.597,-1.723 6.597,-4.429C6.598,-7.135 4.582,-9.329 2.097,-9.329" style="fill:white;fill-rule:nonzero;"/>
        </g>
        <g transform="matrix(3.39639,0,0,3.39639,1201.72,1419.68)">
            <path d="M0,-74.101C0,-74.101 7.9,-74.101 19.1,-59C30.3,-43.901 32.6,-40 32.6,-40C32.6,-40 34.9,-48.401 39.6,-60.201C42.9,-68.5 45,-76.401 46,-80.301C46.4,-82.101 47.9,-83.601 49.7,-84C53.8,-84.901 61.2,-85 67.5,-75.801C68.2,-74.701 68.5,-73.401 68.3,-72.201C67.3,-66.401 64.4,-48.5 62,-31.101C59.1,-10 57.5,7.799 43.2,9.599C32.9,10.899 17.9,-2.601 7.4,-13.101C3.3,-17.201 -0.1,-20.901 -2.2,-23.101C-7.5,-28.5 -15.8,-39 -15.8,-54.101C-15.8,-70.701 -3.5,-75.101 0,-74.101" style="fill:rgb(87,87,87);fill-rule:nonzero;"/>
        </g>
        <g transform="matrix(3.39639,0,0,3.39639,1226.85,1236.28)">
            <path d="M0,41C-4.1,36.899 -7.5,33.199 -9.6,31C-14.9,25.6 -23.2,15.1 -23.2,0" style="fill:none;fill-rule:nonzero;stroke:rgb(248,171,93);stroke-width:2.21px;"/>
        </g>
        <g transform="matrix(1.83605,2.85735,2.85735,-1.83605,1360.5,1280.05)">
            <path d="M-6.799,-12.45C-6.799,-12.45 14.308,-10.679 22.799,-12.45" style="fill:none;fill-rule:nonzero;stroke:black;stroke-width:2.21px;"/>
        </g>
        <g transform="matrix(3.39639,0,0,3.39639,1326.7,1393.87)">
            <path d="M0,16.3C-0.7,15.8 -1.5,14.8 -1.4,12.7C-1.2,8.901 2.6,2.8 9.8,1.3C15.9,0 19,1.901 19.6,3.901" style="fill:none;fill-rule:nonzero;stroke:black;stroke-width:2.21px;"/>
        </g>
        <g transform="matrix(3.11451,1.35474,1.35474,-3.11451,1361.15,1142.61)">
            <path d="M0.108,-4.618C0.108,-4.618 9.612,5.623 24.426,-4.618" style="fill:none;fill-rule:nonzero;stroke:black;stroke-width:2.21px;"/>
        </g>
        <g transform="matrix(3.39639,0,0,3.39639,1415.69,1039.62)">
            <path d="M0,-9.7C0,-9.7 -0.2,-6.3 -0.3,-5.7C-0.4,-5 -1.3,-1.4 -1.4,0" style="fill:none;fill-rule:nonzero;stroke:rgb(142,96,48);stroke-width:2.21px;"/>
        </g>
        <g transform="matrix(3.39639,0,0,3.39639,1432.67,1047.78)">
            <path d="M0,-6.301L0,-3.401C0,-2.401 -0.5,0 -0.5,0" style="fill:none;fill-rule:nonzero;stroke:rgb(142,96,48);stroke-width:2.21px;"/>
        </g>
        <g transform="matrix(3.39639,0,0,3.39639,1447.28,1059.32)">
            <path d="M0,-6.6C0,-6.6 0.3,-5.1 0.3,-3.9C0.3,-2.701 -0.2,0 -0.2,0" style="fill:none;fill-rule:nonzero;stroke:rgb(142,96,48);stroke-width:2.21px;"/>
        </g>
        <g transform="matrix(-1.67067,2.95709,2.95709,1.67067,1381.16,1056.21)">
            <path d="M-1.971,-1.15C-1.971,-1.15 -0.37,-0.935 0.671,-1.15" style="fill:none;fill-rule:nonzero;stroke:rgb(142,96,48);stroke-width:2.21px;"/>
        </g>
        <g transform="matrix(3.39639,0,0,3.39639,867.511,801.537)">
            <path d="M0,23.9L33,23.9L36.4,26.1C37.5,26.8 38.9,26.001 38.9,24.7L38.9,1.4C38.9,-0.999 37,-2.9 34.6,-2.9L0,-2.9C-2.4,-2.9 -4.3,-0.999 -4.3,1.4L-4.3,19.6C-4.3,22.001 -2.4,23.9 0,23.9" style="fill:rgb(244,194,201);fill-rule:nonzero;"/>
        </g>
        <g transform="matrix(3.39639,0,0,3.39639,886.191,823.614)">
            <path d="M0,-0.1L1.7,1.6L5,-1.7" style="fill:none;fill-rule:nonzero;stroke:rgb(34,39,46);stroke-width:2.21px;"/>
        </g>
        <g transform="matrix(3.39639,0,0,3.39639,920.495,824.972)">
            <path d="M0,0L11.6,0" style="fill:none;fill-rule:nonzero;stroke:rgb(34,39,46);stroke-width:2.21px;"/>
        </g>
        <g transform="matrix(3.39639,0,0,3.39639,886.191,851.12)">
            <path d="M0,-0.098L1.7,1.601L5,-1.699" style="fill:none;fill-rule:nonzero;stroke:rgb(34,39,46);stroke-width:2.21px;"/>
        </g>
        <g transform="matrix(3.39639,0,0,3.39639,920.495,852.485)">
            <path d="M0,0L11.6,0" style="fill:none;fill-rule:nonzero;stroke:rgb(34,39,46);stroke-width:2.21px;"/>
        </g>
        <g transform="matrix(3.39639,0,0,3.39639,1392.59,1885.33)">
            <path d="M0,-5.6L-3,-2.401C-3.5,-1.901 -3.5,-1.1 -3,-0.6C-2.6,-0.1 -1.9,0 -1.3,-0.401L2.2,-2.5L0,-5.6Z" style="fill:rgb(34,39,46);fill-rule:nonzero;"/>
        </g>
        <g transform="matrix(3.39639,0,0,3.39639,1483.28,1913.18)">
            <path d="M0,-6L0.8,-1.7C0.9,-1 0.5,-0.4 -0.2,-0.2C-0.8,0 -1.4,-0.3 -1.7,-0.9L-3.5,-4.601L0,-6Z" style="fill:rgb(34,39,46);fill-rule:nonzero;"/>
        </g>
        <g transform="matrix(-3.39639,0,0,3.39639,1449.99,1905.37)">
            <path d="M0,-39.801C-10.991,-39.801 -19.9,-30.891 -19.9,-19.901C-19.9,-8.91 -10.991,0 0,0C10.99,0 19.9,-8.91 19.9,-19.901C19.9,-30.891 10.99,-39.801 0,-39.801" style="fill:rgb(87,87,87);fill-rule:nonzero;"/>
        </g>
        <g transform="matrix(-3.39639,0,0,3.39639,1449.99,1881.25)">
            <path d="M0,-25.6C-7.069,-25.6 -12.8,-19.87 -12.8,-12.8C-12.8,-5.731 -7.069,0 0,0C7.069,0 12.8,-5.731 12.8,-12.8C12.8,-19.87 7.069,-25.6 0,-25.6" style="fill:rgb(255,231,121);fill-rule:nonzero;"/>
        </g>
        <g transform="matrix(3.39639,0,0,3.39639,1462.22,1816.04)">
            <path d="M0,11L-3.6,6.4L-1.7,0" style="fill:none;fill-rule:nonzero;stroke:black;stroke-width:2.21px;"/>
        </g>
        <g transform="matrix(3.39639,0,0,3.39639,1406.86,1746.07)">
            <path d="M0,7.8C-0.6,8 -1.2,7.7 -1.3,7.1C-1.7,4.5 -0.3,1.8 2.3,0.8C4.9,-0.2 7.8,0.8 9.2,3.1C9.5,3.6 9.3,4.3 8.7,4.5L0,7.8Z" style="fill:rgb(87,87,87);fill-rule:nonzero;"/>
        </g>
        <g transform="matrix(3.39639,0,0,3.39639,1521.32,1773.59)">
            <path d="M0,9.499C0.4,9.999 1.1,10.1 1.5,9.6C3.3,7.6 3.5,4.6 1.8,2.3C0.1,0.1 -2.8,-0.601 -5.3,0.6C-5.9,0.899 -6,1.6 -5.6,2.1L0,9.499Z" style="fill:rgb(87,87,87);fill-rule:nonzero;"/>
        </g>
        <g transform="matrix(3.39639,0,0,3.39639,1480.56,1749.81)">
            <path d="M0,4.499L-5.2,2.999C-6.1,2.8 -6.5,1.899 -6.3,0.999C-6.1,0.1 -5.2,-0.301 -4.3,-0.101L0.9,1.399C1.8,1.6 2.2,2.499 2,3.399C1.8,4.3 0.9,4.8 0,4.499" style="fill:rgb(87,87,87);fill-rule:nonzero;"/>
        </g>
        <g transform="matrix(0.947742,-3.26148,-3.26148,-0.947742,1473.97,1778.23)">
            <rect x="0.034" y="-0.045" width="5.101" height="3.9" style="fill:rgb(87,87,87);"/>
        </g>
    </g>
</svg>
