<svg id="Layer_1" data-name="Layer 1" xmlns="http://www.w3.org/2000/svg" viewBox="0 0 504 504"><defs><style>.cls-1{fill:#f5ea61;}.cls-2{fill:#231f20;}.cls-3{fill:#f5e0cd;}.cls-4{fill:#fff;}.cls-5{fill:#f8df8d;}.cls-6{fill:#cc9f53;}.cls-7{fill:#c2a6e1;}.cls-8{fill:#31221f;}.cls-9{fill:#543e36;}.cls-10{fill:#010101;}</style></defs><title>img1</title><rect class="cls-1" x="-15.27" y="-15.27" width="534.55" height="534.55"/><path class="cls-2" d="M232.59,406.87a.52.52,0,0,1-.62.32.53.53,0,0,1-.42-.56c.19-1,.39-1.95.63-2.93s.46-2,.7-3.05c0,0-2-.46-2.14-.51l-1.22-.31c-.21.86-.38,1.7-.59,2.55-.24,1.12-.51,2.24-.82,3.34a.57.57,0,0,1-.68.37.58.58,0,0,1-.47-.64c.18-1,.4-2,.63-3s.42-2,.65-3c.48-2,1-4,1.6-6a17.27,17.27,0,0,1,.93-2.32,5,5,0,0,1,1.07-1.56,2,2,0,0,1,1.47-.64,2,2,0,0,1,1.5.78,3.07,3.07,0,0,1,.54,1.6,11,11,0,0,1,0,2.22,45.25,45.25,0,0,1-1,5.91c-.26,1.2-.52,2.38-.8,3.57-.15.62-.3,1.24-.47,1.87S232.77,406.24,232.59,406.87Zm.54-7.36c.36-1.64.67-3.27.9-4.94a17.44,17.44,0,0,0,.14-2.28c0-.57.07-1.94-.81-2.13-.4-.09-.57.22-.78.45a4.52,4.52,0,0,0-.46.71,11.67,11.67,0,0,0-.86,1.94,48.08,48.08,0,0,0-1.48,5.47s2.76.64,3.09.72Z"/><path class="cls-2" d="M232.1,407.53l-.21,0a.84.84,0,0,1-.66-.92c.19-1,.39-2,.63-2.95s.41-1.83.63-2.75l-1.55-.36-.28-.06-.9-.23c-.08.32-.15.64-.22.95s-.19.85-.29,1.28c-.27,1.25-.54,2.35-.83,3.35a.87.87,0,0,1-1.07.59.88.88,0,0,1-.71-1c.18-.95.39-1.95.63-3s.42-2,.66-3c.47-2,.95-4,1.6-6a18.57,18.57,0,0,1,.95-2.37,5.26,5.26,0,0,1,1.14-1.65,2.36,2.36,0,0,1,1.64-.72h.06a2.26,2.26,0,0,1,1.75.91,3.36,3.36,0,0,1,.61,1.76,12.36,12.36,0,0,1,0,2.27,45.85,45.85,0,0,1-1,5.93c-.26,1.23-.52,2.41-.81,3.61-.14.62-.29,1.24-.47,1.87l-.53,1.9v0A.83.83,0,0,1,232.1,407.53Zm-2.58-8h.08l1.21.31.27.07c2.18.5,2.18.5,2.12.82-.24,1-.49,2-.7,3.06s-.44,1.94-.63,2.92a.21.21,0,0,0,.17.18.2.2,0,0,0,.24-.1l.52-1.88c.18-.63.32-1.24.47-1.85.28-1.2.54-2.37.8-3.57a44.93,44.93,0,0,0,1-5.87,11.09,11.09,0,0,0,0-2.15,2.86,2.86,0,0,0-.48-1.45,1.61,1.61,0,0,0-1.25-.64,1.86,1.86,0,0,0-1.23.54,5,5,0,0,0-1,1.47,17.52,17.52,0,0,0-.91,2.29c-.64,2-1.12,4-1.59,5.94-.23,1-.44,2-.65,2.95s-.45,2-.63,3a.25.25,0,0,0,.22.26.27.27,0,0,0,.3-.12c.28-1,.54-2.09.81-3.33.11-.44.2-.86.29-1.28l.3-1.29a.33.33,0,0,1,.15-.2A.34.34,0,0,1,229.52,399.5Zm3.61.33h-.08l-.26-.07-.81-.18c-2.4-.54-2.4-.54-2.48-.68a.34.34,0,0,1,0-.24,48.15,48.15,0,0,1,1.49-5.51,11.45,11.45,0,0,1,.89-2,5.25,5.25,0,0,1,.49-.74l.09-.12a1,1,0,0,1,1-.45c1.1.24,1.07,1.76,1.06,2.4a17.89,17.89,0,0,1-.15,2.36c-.21,1.55-.49,3.13-.91,5a.34.34,0,0,1-.14.21A.33.33,0,0,1,233.13,399.83Zm-3-1.33,2,.44.76.18c.37-1.7.63-3.16.82-4.59a16.6,16.6,0,0,0,.15-2.23c0-.56,0-1.7-.55-1.82-.14,0-.19,0-.37.23l-.1.11a5.21,5.21,0,0,0-.43.65,11.91,11.91,0,0,0-.84,1.9A48.44,48.44,0,0,0,230.16,398.5Z"/><path class="cls-2" d="M247,393.46a.58.58,0,0,1-.74-.14c-1.5-1.85-3.34.12-3.63,1.44-.55,2.61,1.63,5.11,2.51,7.56a7,7,0,0,1,.42,3.55,5.49,5.49,0,0,1-1.28,2.53,3.27,3.27,0,0,1-3.62.59c-.52-.26-2.18-2.23-.86-2.3a.66.66,0,0,1,.56.31c.72,1.84,2.47,1.43,3.35.09,1.65-2.44.1-5-1.13-7.43a10.91,10.91,0,0,1-1.14-2.83c-.46-2.16.24-4.4,2.79-5a2.67,2.67,0,0,1,2.89,1A.43.43,0,0,1,247,393.46Z"/><path class="cls-2" d="M242,409.61a3.27,3.27,0,0,1-1.5-.33c-.42-.21-1.69-1.53-1.52-2.35a.76.76,0,0,1,.79-.57h0a1,1,0,0,1,.86.5c.25.64.63,1,1.11,1.05a2,2,0,0,0,1.68-1c1.44-2.14.24-4.43-.92-6.65l-.23-.45a11.52,11.52,0,0,1-1.17-2.91c-.58-2.69.61-4.82,3-5.43a3,3,0,0,1,3.22,1.16.82.82,0,0,1,.15.63.71.71,0,0,1-.36.48h0a.89.89,0,0,1-1.16-.22,1.33,1.33,0,0,0-1.36-.6,2.75,2.75,0,0,0-1.69,1.91c-.35,1.67.54,3.37,1.39,5a19.38,19.38,0,0,1,1.11,2.36,7.34,7.34,0,0,1,.43,3.72,5.88,5.88,0,0,1-1.36,2.69A3.4,3.4,0,0,1,242,409.61Zm-2.38-2.55s0,.05,0,.19a3.52,3.52,0,0,0,1.15,1.45,3,3,0,0,0,3.23-.51,5.21,5.21,0,0,0,1.2-2.39,6.78,6.78,0,0,0-.4-3.37,19.27,19.27,0,0,0-1.07-2.28c-.91-1.75-1.86-3.55-1.46-5.45a3.37,3.37,0,0,1,2.18-2.41,1.94,1.94,0,0,1,2,.83.25.25,0,0,0,.32.06h0a.13.13,0,0,0,0-.06.11.11,0,0,0,0-.09,2.32,2.32,0,0,0-2.54-.93c-2.49.63-3,2.82-2.55,4.67a10.66,10.66,0,0,0,1.11,2.74l.23.45c1.19,2.27,2.54,4.86.88,7.31a2.6,2.6,0,0,1-2.29,1.29,2.06,2.06,0,0,1-1.64-1.44.34.34,0,0,0-.25-.11h0a.28.28,0,0,0-.17.05Z"/><path class="cls-2" d="M252.13,410.85a.49.49,0,0,1-.47-.51c.08-.55.12-1.08.2-1.63.31-2.48.63-4.95,1-7.43.17-1.23.34-2.47.54-3.7.08-.63.17-1.28.28-1.91.05-.32.1-.67.14-1s.14-.66.21-1a.45.45,0,0,1,.51-.33.42.42,0,0,1,.38.45,7.66,7.66,0,0,1,0,.84c0,.27-.08.53-.11.79-.3,2.5-.64,5-1,7.49-.17,1.22-.34,2.46-.51,3.67-.11.65-.19,1.28-.28,1.91s-.21,1.31-.3,2A.49.49,0,0,1,252.13,410.85Z"/><path class="cls-2" d="M252.21,411.19h-.13a.82.82,0,0,1-.74-.89c0-.27.07-.54.1-.8s.06-.55.1-.82c.35-2.76.64-5.05,1-7.43.17-1.24.34-2.48.54-3.71v-.08c.08-.61.17-1.23.27-1.83l.14-1a5.57,5.57,0,0,1,.14-.71l.07-.3a.78.78,0,0,1,.87-.58.74.74,0,0,1,.66.81,4.92,4.92,0,0,1,0,.85l-.11.79c-.28,2.4-.6,4.71-1,7.49l-.5,3.67c-.11.61-.19,1.19-.27,1.77l0,.13c0,.33-.1.66-.15,1s-.1.65-.14,1a.76.76,0,0,1-.29.48A.92.92,0,0,1,252.21,411.19Zm2.24-17.5a.12.12,0,0,0-.12.09l-.07.3c0,.22-.1.43-.13.64l-.14,1c-.1.6-.18,1.22-.27,1.82v.08c-.19,1.24-.36,2.47-.53,3.71-.35,2.38-.65,4.67-1,7.42,0,.28-.07.54-.1.81s-.06.55-.1.82a.2.2,0,0,0,.19.15s0,0,0,0a.2.2,0,0,0,.14,0c.09-.38.14-.71.19-1l.15-1,0-.13c.08-.59.16-1.18.26-1.78l.5-3.66c.39-2.77.7-5.08,1-7.49l.11-.79a4.09,4.09,0,0,0,0-.79c0-.09,0-.13-.1-.13Z"/><path class="cls-2" d="M265.9,411.93a.54.54,0,0,1-1.06-.1c0-1,.11-2,.2-3s.17-2.08.27-3.12c0,0-2-.19-2.19-.21l-1.25-.14c-.08.88-.14,1.74-.22,2.62-.08,1.14-.19,2.28-.34,3.42a.6.6,0,0,1-1.19-.11c.05-1,.12-2,.22-3s.14-2,.23-3c.19-2.06.38-4.1.74-6.14a16.56,16.56,0,0,1,.59-2.43,5.05,5.05,0,0,1,.84-1.69,2,2,0,0,1,1.37-.84,1.93,1.93,0,0,1,1.6.56,3.19,3.19,0,0,1,.76,1.51,10.82,10.82,0,0,1,.32,2.19,44.31,44.31,0,0,1-.14,6c-.09,1.23-.18,2.43-.29,3.66-.06.63-.12,1.26-.21,1.91S266,411.28,265.9,411.93Zm-.5-7.37c.13-1.67.21-3.33.2-5a17.37,17.37,0,0,0-.18-2.28c-.07-.56-.21-1.93-1.1-2-.41,0-.54.29-.71.55a6.53,6.53,0,0,0-.36.76,12.69,12.69,0,0,0-.58,2.05,48.64,48.64,0,0,0-.7,5.63s2.82.24,3.16.28Z"/><path class="cls-2" d="M265.38,412.66h-.08a.86.86,0,0,1-.79-.82c.05-1,.12-2,.21-3s.15-1.87.24-2.81l-1.52-.13-.35,0-.93-.11c0,.35-.05.68-.08,1s-.07.84-.11,1.27c-.09,1.32-.2,2.41-.34,3.44a.87.87,0,0,1-1,.73.9.9,0,0,1-.85-.92c0-1,.12-2,.21-3s.14-2,.23-3c.2-2.06.39-4.13.75-6.17a18.44,18.44,0,0,1,.6-2.48,5.49,5.49,0,0,1,.9-1.79,2.38,2.38,0,0,1,1.58-1,2.25,2.25,0,0,1,1.87.66,3.35,3.35,0,0,1,.84,1.66,11.05,11.05,0,0,1,.34,2.24,44.69,44.69,0,0,1-.15,6l0,.29c-.08,1.13-.16,2.25-.27,3.39-.06.63-.12,1.27-.2,1.92l-.26,2v0A.84.84,0,0,1,265.38,412.66Zm-3.51-7.6h0l1.24.14.35,0c2,.17,2,.17,2.06.29a.29.29,0,0,1,.07.24v.2c-.09,1-.18,1.94-.25,2.91s-.16,2-.21,3a.23.23,0,0,0,.42,0l.25-1.94c.08-.65.14-1.28.2-1.9.11-1.13.19-2.25.27-3.38l0-.27a43.72,43.72,0,0,0,.15-5.95,10.56,10.56,0,0,0-.32-2.13,2.81,2.81,0,0,0-.68-1.37,1.62,1.62,0,0,0-1.33-.46,1.75,1.75,0,0,0-1.14.71,5,5,0,0,0-.79,1.6,17.92,17.92,0,0,0-.58,2.39c-.35,2-.55,4.06-.73,6.05-.1,1.06-.17,2.08-.24,3.08s-.16,2-.21,3c0,.09.09.21.26.22s.27-.09.27-.16c.14-1,.25-2.1.34-3.42,0-.42.08-.84.11-1.26s.07-.9.12-1.36a.31.31,0,0,1,.32-.29Zm3.53-.17h0l-.27,0-.88-.07c-2.4-.2-2.4-.2-2.5-.32a.32.32,0,0,1-.07-.23,50.91,50.91,0,0,1,.7-5.67,11.67,11.67,0,0,1,.6-2.11,4.44,4.44,0,0,1,.38-.8l.08-.14a.94.94,0,0,1,.94-.58c1.13.08,1.31,1.59,1.39,2.23a17.65,17.65,0,0,1,.18,2.36c0,1.55-.05,3.15-.2,5.06a.39.39,0,0,1-.11.22A.34.34,0,0,1,265.4,404.89Zm-3.08-.92c.46,0,1.36.12,2,.17l.82.07c.13-1.74.18-3.23.17-4.67a16.74,16.74,0,0,0-.17-2.23c-.07-.55-.2-1.68-.8-1.72-.12,0-.18,0-.33.27l-.09.14a4.43,4.43,0,0,0-.32.7,10.81,10.81,0,0,0-.57,2A50.18,50.18,0,0,0,262.32,404Z"/><path class="cls-2" d="M278.12,405c-.08,1.86-.18,3.72-.26,5.58,0,.68-.1,1.33-.13,2,0,.84-.79.23-1-.07a4.36,4.36,0,0,1-.47-1.47c-.27-1.06-.47-2.13-.69-3.18-.26-1.31-.55-2.63-.81-3.93s-.53-2.5-.76-3.76c-.07,1.55-.11,3.11-.17,4.66,0,1.23-.13,2.46-.18,3.68,0,.64-.08,1.27-.1,1.9s-.08,1.33-.11,2a.49.49,0,0,1-.55.42.51.51,0,0,1-.52-.47c0-.55,0-1.08.05-1.64.13-3.72.28-7.4.46-11.12.08-1.29.11-2.62.29-3.9a.43.43,0,0,1,.45-.37c.6,0,.76,1.46.84,1.83.82,3.63,1.54,7.24,2.29,10.88,0,.1,0,.23.05.33.07-1.62.12-3.25.18-4.89.08-1.88.21-3.78.29-5.62.05-.68.1-1.31.18-2a.43.43,0,0,1,.47-.37.43.43,0,0,1,.42.41c0,.53,0,1.08,0,1.64C278.42,400.06,278.22,402.57,278.12,405Z"/><path class="cls-2" d="M277.45,413.36a1.47,1.47,0,0,1-1-.63,3.17,3.17,0,0,1-.43-1.19c0-.13-.05-.26-.09-.38-.19-.77-.35-1.55-.51-2.3l-.18-.91-.42-2.05-.39-1.88-.13-.65-.09-.39c0,.63,0,1.26-.07,1.9s-.06,1.22-.09,1.84l-.09,1.84c0,.33,0,.66-.05,1s0,.6-.05.91,0,.69-.05,1,0,.63-.05.95a.8.8,0,0,1-.89.74.82.82,0,0,1-.83-.81c0-.28,0-.55,0-.81s0-.55,0-.83c.14-3.79.29-7.44.47-11.13l.05-.94c.05-1,.1-2,.23-3a.77.77,0,0,1,.79-.65c.78,0,1,1.24,1.11,1.9,0,.08,0,.15,0,.19.64,2.83,1.23,5.71,1.8,8.51,0-.71.05-1.42.08-2.13,0-1,.09-1.94.14-2.9s.1-1.83.14-2.73c.05-.69.11-1.32.18-2a.78.78,0,0,1,1.54.05c0,.55.06,1.11.06,1.67,0,1.73-.08,3.49-.18,5.2,0,.76-.08,1.52-.11,2.28h0c0,1-.08,1.93-.13,2.89s-.09,1.79-.13,2.69c0,.35,0,.69-.06,1s-.05.63-.07.95c0,.52-.28.67-.44.72ZM274,399.87a.33.33,0,0,1,.32.27c.19,1,.41,2.07.62,3.1l.14.65c.12.63.25,1.25.38,1.88s.29,1.37.43,2.05l.18.91c.15.74.31,1.51.5,2.26,0,.13.07.27.1.42a2.73,2.73,0,0,0,.32.95,1.3,1.3,0,0,0,.39.33.28.28,0,0,0,0-.1c0-.32,0-.65.07-1s0-.66.06-1c0-.89.08-1.79.13-2.69s.09-1.93.13-2.89h0c0-.76.07-1.52.11-2.28.1-1.7.19-3.46.18-5.17,0-.55,0-1.1-.06-1.63a.1.1,0,0,0-.1-.1c-.12,0-.14.08-.14.1-.08.65-.13,1.28-.18,1.95,0,.89-.08,1.8-.14,2.72s-.1,1.93-.14,2.89l-.09,2.41-.09,2.48a.32.32,0,0,1-.3.31.31.31,0,0,1-.35-.26l-.05-.33-.4-1.93c-.6-2.93-1.21-6-1.89-8.93,0-.06,0-.14,0-.23-.22-1.25-.43-1.36-.5-1.36s-.1.06-.11.1c-.13,1-.18,2-.23,2.93l0,.94c-.18,3.68-.33,7.32-.46,11.12,0,.27,0,.54,0,.81s0,.55,0,.82c0,.05.08.13.2.14s.21-.07.21-.12l.06-1c0-.34,0-.68.05-1s0-.61,0-.92,0-.65.05-1l.09-1.84c0-.62.07-1.23.09-1.84l.09-2.33c0-.78,0-1.56.08-2.34a.34.34,0,0,1,.3-.31Z"/><path class="cls-2" d="M302.07,405.79a24.07,24.07,0,0,1-.15,2.68,7.78,7.78,0,0,1-.6,2.39,4.08,4.08,0,0,1-.81,1.21,3.46,3.46,0,0,1-1.2.78,5.53,5.53,0,0,1-3,.22c-.64-.15-.51-2.39-.51-2.88-.21-4.26-.26-8.5-.77-12.72-.05-.47-.31-1.73.38-2a4.38,4.38,0,0,1,2.07-.25,3.7,3.7,0,0,1,1.68.65,5.6,5.6,0,0,1,1.82,2.34,9.21,9.21,0,0,1,.6,2.17A28.63,28.63,0,0,1,302.07,405.79Zm-1.36-2.73a22.08,22.08,0,0,0-.33-2.59c-.28-1.65-1.32-4.89-4.17-4.19.14,1.28.16,2.58.23,3.86.11,1.76.23,3.52.32,5.26.11,1.51.19,3,.29,4.56,0,.67.1,1.34.09,2a2.87,2.87,0,0,0,2.26-.32,3.29,3.29,0,0,0,1.12-1.74,12.6,12.6,0,0,0,.29-4.06C300.81,404.92,300.78,404,300.71,403.06Zm-1.91,8.83,0-14.87.75,1,.14,13.18.49-.81"/><path class="cls-2" d="M297.43,413.51a6,6,0,0,1-1.18-.12c-.69-.16-.8-1.31-.77-3v-.23c-.05-1-.09-2.06-.13-3.09-.12-3.15-.25-6.41-.64-9.59l0-.19c-.08-.64-.24-1.83.62-2.12a4.69,4.69,0,0,1,2.22-.27,3.88,3.88,0,0,1,1.82.7,5.91,5.91,0,0,1,1.94,2.48,10,10,0,0,1,.62,2.24,28.74,28.74,0,0,1,.49,5.44h0c0,.89-.06,1.8-.16,2.7a7.72,7.72,0,0,1-.62,2.49,4.3,4.3,0,0,1-.88,1.31,3.86,3.86,0,0,1-1.3.85A5.33,5.33,0,0,1,297.43,413.51Zm-.45-18a4,4,0,0,0-1.45.27c-.36.13-.24,1-.19,1.43l0,.2c.39,3.2.52,6.47.64,9.63,0,1,.08,2.07.13,3.1v.26c0,2,.2,2.28.27,2.33a5.35,5.35,0,0,0,2.79-.21,3.27,3.27,0,0,0,1.09-.71,3.71,3.71,0,0,0,.74-1.11,7.41,7.41,0,0,0,.58-2.29,26.14,26.14,0,0,0,.14-2.65,27.5,27.5,0,0,0-.47-5.32,9.44,9.44,0,0,0-.58-2.1,5.32,5.32,0,0,0-1.71-2.21,3.46,3.46,0,0,0-1.53-.59A3.59,3.59,0,0,0,297,395.54Zm.95,16.87a3.57,3.57,0,0,1-.88-.11.33.33,0,0,1-.24-.32c0-.5,0-1-.05-1.51l0-.5c-.05-.74-.1-1.48-.14-2.22l-.15-2.33c-.09-1.63-.19-3.26-.3-4.9l0-.35c0-.37,0-.74-.05-1.11,0-.9-.07-1.83-.17-2.74a.32.32,0,0,1,.24-.36,2.92,2.92,0,0,1,2.4.36c1.5,1,2,3.19,2.17,4.09A23.9,23.9,0,0,1,301,403c.06.83.1,1.76.1,2.83,0,.27,0,.55,0,.82a9.74,9.74,0,0,1-.32,3.34,3.61,3.61,0,0,1-1.25,1.91A2.92,2.92,0,0,1,297.93,412.41Zm-.47-.69a2.56,2.56,0,0,0,1.76-.33,3.07,3.07,0,0,0,1-1.58,9.19,9.19,0,0,0,.29-3.12c0-.28,0-.55,0-.83,0-1.05,0-2-.1-2.78h0a20.81,20.81,0,0,0-.33-2.55c-.11-.65-.57-2.81-1.88-3.67a2.19,2.19,0,0,0-1.61-.32c.08.84.11,1.68.14,2.5,0,.36,0,.72.05,1.09l0,.35c.11,1.64.21,3.28.3,4.9l.15,2.33c0,.74.09,1.48.14,2.22l0,.5C297.43,410.85,297.46,411.28,297.46,411.72Z"/><path class="cls-2" d="M314.15,411a.38.38,0,0,1-.35.37,34.21,34.21,0,0,1-4.83.37c-.28-.18-.28-1.29-.32-1.7-.42-3.68-1.3-13-1.39-14-.06-.57-.14-1.1.46-1.45s3.11-.44,4-.59c.55.11.87.63.29.67-.87.09-3.6.49-3.77.49h0c0,.2.72,6.12,1,8.87a12.41,12.41,0,0,1,2.86-.27.39.39,0,1,1,.08.71,26.85,26.85,0,0,0-2.87.31c.1,1,.54,5.77.57,6.26l3.9-.36A.38.38,0,0,1,314.15,411Z"/><path class="cls-2" d="M309.4,412.14a1.32,1.32,0,0,1-.58-.08c-.37-.23-.42-.83-.47-1.65,0-.12,0-.23,0-.31-.33-2.84-.93-9.14-1.23-12.17-.08-.93-.15-1.58-.17-1.8-.06-.62-.13-1.32.62-1.76a9.45,9.45,0,0,1,2.86-.5c.5,0,.95-.08,1.22-.13h.12c.51.1.88.46.86.82s-.18.46-.61.49l-2.2.29-1.27.17c.17,1.32.69,5.89.94,8.16a17.72,17.72,0,0,1,2.51-.17.72.72,0,0,1,.62.07.65.65,0,0,1,.13,1.09.79.79,0,0,1-.68.19h0c-.16,0-1.79.16-2.43.25.11,1.19.42,4.51.51,5.65,1.14-.12,2.29-.22,3.44-.32h.13a.69.69,0,0,1,.54.16.58.58,0,0,1,.23.42h0a.69.69,0,0,1-.64.72l-.65.07C311,412,310,412.14,309.4,412.14Zm2.28-17.75c-.29.05-.73.09-1.21.13a11.72,11.72,0,0,0-2.58.41c-.38.22-.37.5-.32,1.07,0,.28.09.94.18,1.86.3,3,.9,9.34,1.23,12.18,0,.09,0,.2,0,.33a4.09,4.09,0,0,0,.17,1.14c.31.07,2.94-.25,3.93-.36l.57-.07h-.05c-1.25.11-2.5.22-3.76.35a.31.31,0,0,1-.24-.08.35.35,0,0,1-.12-.23c0-.46-.46-5.25-.56-6.24a.29.29,0,0,1,0-.13c.13-.46,3.22-.55,3.23-.54a.16.16,0,0,0,.14-.07,1.14,1.14,0,0,1-.32,0,17.48,17.48,0,0,0-2.6.2.29.29,0,0,1-.18.07.31.31,0,0,1-.36-.28c-.31-2.88-1-8.57-1-8.84a.35.35,0,0,1,.07-.26.28.28,0,0,1,.23-.13c.17,0,.91-.11,1.57-.2l2.06-.28ZM314.15,411l-.32,0h0Z"/><path class="cls-2" d="M325,409.55a.39.39,0,0,1-.36.38c-.91.14-4.27,1.27-5,.4-.3-.37-2.26-15.21-2.33-16.52a.43.43,0,0,1,.37-.45.44.44,0,0,1,.51.32c.54,2.19,2.31,15,2.45,16.13h.05c1.28-.25,2.54-.35,3.81-.52A.39.39,0,0,1,325,409.55Z"/><path class="cls-2" d="M320.73,411a1.59,1.59,0,0,1-1.31-.45C319,410,317,394,317,393.83a.77.77,0,0,1,.65-.79.79.79,0,0,1,.88.56c.51,2.08,2.1,13.48,2.41,15.83.82-.15,1.62-.24,2.4-.33l1.14-.14a.76.76,0,0,1,.58.14.6.6,0,0,1,.12.85.79.79,0,0,1-.52.3c-.2,0-.52.11-.91.21A14,14,0,0,1,320.73,411Zm-2.94-17.3h0a.11.11,0,0,0-.1.12c.09,1.63,2,15.66,2.29,16.37.39.47,2.68-.1,3.66-.34.41-.1.76-.19,1-.22h0l-1.15.14c-.87.1-1.76.2-2.65.37a.4.4,0,0,1-.28-.05.34.34,0,0,1-.15-.22c-.15-1.15-1.9-13.9-2.45-16.09C317.9,393.74,317.88,393.68,317.79,393.68Zm6.88,15.88Z"/><path class="cls-2" d="M331.09,409.05a.5.5,0,0,1-.61-.35c-.1-.54-.22-1.06-.33-1.6-.48-2.45-1-4.9-1.4-7.36-.23-1.22-.46-2.45-.67-3.68-.12-.63-.24-1.27-.33-1.9-.06-.32-.13-.66-.19-1s-.07-.67-.11-1a.45.45,0,0,1,.38-.47.41.41,0,0,1,.5.3,5.72,5.72,0,0,1,.25.81l.15.79c.51,2.46,1,4.93,1.44,7.41.23,1.2.45,2.43.68,3.64.1.65.22,1.27.33,1.89s.22,1.31.35,2A.51.51,0,0,1,331.09,409.05Z"/><path class="cls-2" d="M331,409.39a.81.81,0,0,1-.81-.63c-.05-.26-.11-.53-.16-.79s-.11-.54-.17-.81c-.42-2.14-.95-4.8-1.4-7.36l-.05-.27c-.22-1.14-.43-2.28-.62-3.42l0-.11c-.11-.59-.23-1.2-.31-1.79l-.19-1c0-.22-.06-.46-.08-.69l0-.33a.78.78,0,0,1,.64-.83.73.73,0,0,1,.88.56,4.91,4.91,0,0,1,.25.81l.15.79c.49,2.38.95,4.82,1.39,7.17l.73,3.88c.09.61.2,1.19.31,1.77l0,.12.18,1c.05.32.11.65.17,1a.71.71,0,0,1-.17.6.87.87,0,0,1-.53.32ZM327.92,392h0a.12.12,0,0,0-.12.13,3,3,0,0,1,0,.33c0,.21,0,.43.07.63l.19,1c.09.6.2,1.2.31,1.78l0,.12c.19,1.14.4,2.28.62,3.41l.05.27c.45,2.56,1,5.22,1.4,7.36,0,.27.11.53.17.8s.11.53.16.8c0,.05.1.11.23.09s.19-.08.18-.16c-.07-.33-.12-.66-.18-1s-.11-.65-.17-1l0-.12c-.11-.59-.22-1.17-.31-1.78l-.72-3.86c-.45-2.36-.91-4.79-1.4-7.18l-.15-.79a4.54,4.54,0,0,0-.24-.75C328,392.06,328,392,327.92,392Z"/><path class="cls-2" d="M343.48,400.17a9.5,9.5,0,0,1,.23,1.4c.14,1.48.23,3.46-1,4.76-2.54,2.65-4.79-2.23-5.32-3.64A31.53,31.53,0,0,1,335.5,395c-.18-1.58-.35-3.81,1.3-5.06a2.79,2.79,0,0,1,3-.17.35.35,0,0,1,.13.55.57.57,0,0,1-.66.16c-1.92-1-2.74,1.27-2.79,2.52a18.13,18.13,0,0,0,.64,4.75c.52,2.36,1.08,5.16,2.61,7.15l0,.06s0,0,0,0c.31.37.9,1.09,1.58,1,2.44-.4.87-5.21,1.2-5.27a9.63,9.63,0,0,1-1.84.54.66.66,0,0,1-.25,0s0,0,0,0l0,0c-1-.06.24-.88.56-1a6.88,6.88,0,0,1,1.92-.3C343.21,400,343.45,400,343.48,400.17Zm-5.28-9.93M339.76,405m.71.69,1,.3.53-.31.24-.33.35-1"/><path class="cls-2" d="M341.18,407.43a1.87,1.87,0,0,1-.4,0c-2.08-.43-3.54-4.16-3.7-4.58a32.77,32.77,0,0,1-1.91-7.76c-.15-1.38-.43-3.94,1.43-5.35a3.16,3.16,0,0,1,3.35-.2.69.69,0,0,1,.23,1,.9.9,0,0,1-1.07.25,1.25,1.25,0,0,0-1.26-.08A3.06,3.06,0,0,0,336.8,393a18.74,18.74,0,0,0,.62,4.66l.09.39c.5,2.25,1.06,4.8,2.47,6.63v0a.27.27,0,0,1,.08.1c.3.36.78.91,1.25.85,1.46-.24,1.13-2.69,1-4,0-.19,0-.35-.07-.5l-.26.1a3.3,3.3,0,0,1-1.19.32h-.08a1,1,0,0,1-.28,0c-.52,0-.66-.26-.69-.45-.09-.61,1.16-1.17,1.17-1.17a5.91,5.91,0,0,1,2-.33c.52,0,.82.19.89.48h0a9.4,9.4,0,0,1,.23,1.45c.17,1.72.18,3.67-1.09,5A2.42,2.42,0,0,1,341.18,407.43Zm-2.76-17.67a2.28,2.28,0,0,0-1.42.46c-1.45,1.09-1.37,3-1.18,4.76a31.9,31.9,0,0,0,1.87,7.6c.5,1.31,1.8,3.88,3.22,4.17a1.62,1.62,0,0,0,1.56-.65c1.08-1.13,1.08-2.83.91-4.5a8.38,8.38,0,0,0-.2-1.28.81.81,0,0,0-.29,0,8.06,8.06,0,0,0-1.8.28,2.9,2.9,0,0,0-.56.35h0l.13,0h.07a3.26,3.26,0,0,0,1-.26,5,5,0,0,1,.77-.26h0a.33.33,0,0,1,.37.26.33.33,0,0,1,0,.24c0,.13,0,.42.07.69.21,1.53.59,4.38-1.5,4.72-.82.11-1.5-.66-1.86-1.08l0,0s0,0-.05,0l0,0h0c-1.49-1.94-2.07-4.57-2.58-6.88l-.09-.4a19.24,19.24,0,0,1-.65-4.83,3.63,3.63,0,0,1,1.39-2.86,1.86,1.86,0,0,1,1.88.06.23.23,0,0,0,.24-.06s0-.08,0-.08A2.39,2.39,0,0,0,338.42,389.76Zm4.22,11.3h0Z"/><path class="cls-2" d="M355,398.74c.18.63.36,1.24.52,1.86s.35,1.28.53,1.91a.5.5,0,0,1-.38.58.48.48,0,0,1-.62-.29c-.15-.53-.33-1-.5-1.56-.48-1.63-1-3.25-1.46-4.88-1.07.37-2.19.59-3.31.92l-.23.06c.27.93.52,1.86.78,2.76.18.63.36,1.24.52,1.86s.35,1.28.53,1.91a.5.5,0,0,1-.38.58.49.49,0,0,1-.62-.29c-.15-.53-.33-1-.5-1.56-.7-2.4-1.43-4.79-2.13-7.19-.35-1.19-.68-2.4-1-3.6s-.74-2.52-1-3.81a.45.45,0,0,1,.86-.25c.19.5.39,1.08.55,1.55.74,2.43,1.34,4.92,2.19,7.32.81-.24,1.57-.48,2.38-.74.37-.11.76-.24,1.14-.33-.15-.51-.29-1-.44-1.49-.35-1.2-.67-2.41-1-3.61s-.74-2.51-1-3.81a.44.44,0,0,1,.31-.49.43.43,0,0,1,.55.24c1.13,2.83,1.86,5.86,2.72,8.79C354.34,396.36,354.67,397.56,355,398.74Z"/><path class="cls-2" d="M350.86,404.8a.8.8,0,0,1-.78-.55c-.14-.49-.31-1-.47-1.45l0-.09c-.36-1.21-.71-2.41-1.07-3.61s-.71-2.39-1.06-3.59c-.18-.63-.36-1.25-.53-1.87s-.33-1.16-.5-1.74l-.27-1c-.26-.93-.53-1.89-.72-2.87a.75.75,0,0,1,.54-.86.76.76,0,0,1,.94.42c.18.45.35,1,.5,1.4l.06.17c.26.87.51,1.74.75,2.6.41,1.46.83,3,1.33,4.43.68-.2,1.32-.41,2-.62l.46-.15.45-.13-.34-1.17c-.18-.62-.36-1.25-.53-1.87s-.33-1.16-.5-1.74c-.08-.32-.17-.64-.26-1-.27-.94-.54-1.9-.73-2.88a.78.78,0,0,1,1.48-.44,65.62,65.62,0,0,1,2.1,6.6c.21.74.41,1.48.63,2.22l.51,1.78c.17.6.33,1.19.5,1.78h0l-.31.09.32-.08c.18.63.36,1.24.51,1.86.09.3.18.63.27,1s.17.64.26.95a.73.73,0,0,1-.06.56,1,1,0,0,1-.54.43.81.81,0,0,1-1-.52c-.14-.49-.31-1-.47-1.45l0-.09c-.24-.83-.49-1.64-.73-2.46s-.43-1.41-.63-2.12c-.57.19-1.15.33-1.72.48-.4.1-.8.2-1.21.32.11.35.21.71.31,1.07s.25.92.38,1.37c.19.64.37,1.25.52,1.87.09.3.18.63.27.95s.17.64.26.95a.81.81,0,0,1-.6,1A.67.67,0,0,1,350.86,404.8Zm-4.66-17h-.05a.1.1,0,0,0-.08.13c.19.94.44,1.85.71,2.81l.27,1c.17.57.33,1.15.49,1.73s.35,1.24.54,1.86c.34,1.2.7,2.4,1.06,3.6s.71,2.39,1.06,3.59l0,.08c.17.49.34,1,.48,1.48a.19.19,0,0,0,.22.07c.11,0,.17-.13.16-.18-.1-.32-.18-.64-.27-1s-.17-.64-.27-.95c-.15-.62-.33-1.23-.51-1.85l-.39-1.39-.39-1.38a.26.26,0,0,1,0-.24.3.3,0,0,1,.19-.16l.23-.07,1.31-.34c.69-.18,1.34-.35,2-.57a.31.31,0,0,1,.25,0,.35.35,0,0,1,.17.19c.23.82.48,1.63.72,2.45s.49,1.63.73,2.44l0,.08c.17.5.34,1,.48,1.48,0,.06.1.1.22.07a.23.23,0,0,0,.14-.11c-.08-.38-.16-.71-.25-1s-.17-.64-.27-.95c-.15-.62-.33-1.22-.51-1.85h0l-.51-1.78-.51-1.78-.63-2.22a64.3,64.3,0,0,0-2.07-6.53.12.12,0,0,0-.16-.06.12.12,0,0,0-.08.13c.19,1,.46,1.9.72,2.82.08.32.17.64.26,1,.17.57.33,1.15.49,1.73s.35,1.24.54,1.86l.43,1.5a.28.28,0,0,1,0,.25.31.31,0,0,1-.21.16,6.68,6.68,0,0,0-.73.21l-.46.14c-.78.25-1.52.48-2.31.71a.33.33,0,0,1-.4-.2c-.55-1.57-1-3.19-1.45-4.76-.24-.86-.48-1.72-.74-2.58l-.06-.16c-.14-.43-.31-.93-.48-1.36A.14.14,0,0,0,346.2,387.81Z"/><path class="cls-2" d="M362.38,383.4c-.13.07-2.1.87-2.12.83.12.26.22.64.33.95,1.3,3.49,2.52,7,3.72,10.52.21.6.42,1.2.6,1.81s.42,1.27.63,1.89a.5.5,0,0,1-.35.6.48.48,0,0,1-.63-.26c-.18-.52-.4-1-.58-1.53q-1.26-3.51-2.47-7c-.41-1.16-.79-2.33-1.2-3.51,0-.13-1-3.14-1.06-3.12-.49.2-2.29,1.08-2.54.37s2.3-1.35,2.8-1.54a14.31,14.31,0,0,1,2.58-.82A.44.44,0,0,1,362.38,383.4ZM357.63,385"/><path class="cls-2" d="M365,400.36a.78.78,0,0,1-.75-.51c-.09-.26-.19-.51-.28-.75s-.21-.52-.3-.79c-.84-2.33-1.65-4.67-2.47-7-.2-.57-.39-1.15-.59-1.73s-.4-1.18-.61-1.78l-.07-.24c-.48-1.5-.72-2.23-.85-2.56a3.44,3.44,0,0,1-2.29.46.7.7,0,0,1-.38-.41.66.66,0,0,1,0-.55c.3-.58,1.35-.93,2.49-1.27a3.11,3.11,0,0,0,.45-.14l.64-.23a10.1,10.1,0,0,1,2-.6.76.76,0,0,1,.87.5.77.77,0,0,1-.36.93h0s-1.13.51-1.84.74l.1.31c0,.11.07.23.11.33,1.12,3,2.27,6.27,3.72,10.53.21.6.42,1.2.6,1.82.11.31.22.64.32,1s.2.61.31.91a.73.73,0,0,1,0,.56.87.87,0,0,1-.51.45A.84.84,0,0,1,365,400.36Zm-5.75-16.12.15,0c.17.08.2.1,1.15,3.09l.07.22c.21.59.41,1.19.61,1.78s.39,1.15.59,1.73c.81,2.34,1.62,4.68,2.46,7,.09.26.19.51.29.76s.21.51.3.77c0,.06.1.1.21.06a.24.24,0,0,0,.14-.12c-.09-.37-.19-.68-.29-1s-.21-.64-.33-1c-.18-.62-.39-1.21-.6-1.81-1.45-4.25-2.59-7.49-3.71-10.52l-.12-.35c-.07-.21-.13-.41-.2-.58l.29-.13-.05-.32c.19,0,1.81-.7,2-.79a.13.13,0,0,0,.06-.15.14.14,0,0,0-.15-.08,10.36,10.36,0,0,0-1.88.57l-.64.23c-.09,0-.27.09-.49.16-.53.15-1.91.56-2.1.93.36.22,1.48-.26,1.85-.42l.25-.1A.25.25,0,0,1,359.25,384.24Z"/><path class="cls-2" d="M372.3,379.7a.57.57,0,0,1-.69.28c-2.27-.75-2.76,1.9-2.29,3.17.94,2.49,4.12,3.42,6.18,5a7,7,0,0,1,2.26,2.77,5.4,5.4,0,0,1,.29,2.82,3.27,3.27,0,0,1-2.73,2.45c-.58.06-3-.7-2-1.47a.62.62,0,0,1,.63,0c1.6,1.16,2.85-.13,2.87-1.73.08-2.95-2.62-4.3-4.95-5.65a11.17,11.17,0,0,1-2.47-1.77c-1.56-1.58-2.18-3.85-.37-5.76a2.66,2.66,0,0,1,3-.67A.42.42,0,0,1,372.3,379.7Z"/><path class="cls-2" d="M375.26,396.53c-.56,0-2.17-.42-2.45-1.16a.75.75,0,0,1,.36-.91,1,1,0,0,1,1,0,1.43,1.43,0,0,0,1.5.29,2,2,0,0,0,.88-1.75c.06-2.58-2.18-3.87-4.36-5.11l-.43-.25a11,11,0,0,1-2.55-1.83c-1.93-1.95-2.08-4.39-.37-6.2a3,3,0,0,1,3.34-.76.81.81,0,0,1,.46.45.71.71,0,0,1,0,.59h0a.9.9,0,0,1-1.1.44,1.34,1.34,0,0,0-1.47.24,2.73,2.73,0,0,0-.39,2.52c.6,1.6,2.26,2.55,3.87,3.47a18.67,18.67,0,0,1,2.2,1.39,7.3,7.3,0,0,1,2.36,2.91,5.83,5.83,0,0,1,.32,3,3.66,3.66,0,0,1-3,2.72Zm-1.85-1.4s0,.05.13.15a3.73,3.73,0,0,0,1.74.6,3,3,0,0,0,2.45-2.17,5.16,5.16,0,0,0-.27-2.66,6.7,6.7,0,0,0-2.16-2.63,18.4,18.4,0,0,0-2.12-1.34c-1.71-1-3.47-2-4.16-3.81a3.37,3.37,0,0,1,.53-3.2,1.93,1.93,0,0,1,2.16-.4.25.25,0,0,0,.3-.12h0a.2.2,0,0,0,0-.07s0-.05-.08-.07a2.32,2.32,0,0,0-2.64.6c-1.75,1.86-1,4,.37,5.3a11.1,11.1,0,0,0,2.41,1.72l.43.24c2.23,1.28,4.75,2.73,4.68,5.7a2.57,2.57,0,0,1-1.24,2.31,2,2,0,0,1-2.15-.33.44.44,0,0,0-.27.05.39.39,0,0,0-.12.13Z"/><path class="cls-2" d="M422.76,127.93a9.64,9.64,0,0,0,3.46,1.2,16.54,16.54,0,0,0,3.11.3h.52a3.15,3.15,0,0,0,2.41-.77c.87-1,1.08-2.63,1.3-4.4.07-.6.15-1.2.25-1.77a4.09,4.09,0,0,0-1.07-3.55c-1.92-2-5.64-3.15-7.68-3.65a4.24,4.24,0,0,0-4.93,2.31,7.83,7.83,0,0,0-.43,4.79C420.07,124.25,420.91,126.73,422.76,127.93Z"/><path class="cls-2" d="M456.91,144.74a3,3,0,0,0-2.18-1.27,1.89,1.89,0,0,0-1.54.7l-.13.2a2.8,2.8,0,0,0-.35,1.09c-1.44,9.74-3.53,21.09-8.13,31.43-2,4.44-4.52,9.32-8.54,11.89-.84.54-3.76,2.14-6.1.14s-2.44-5.71-2.37-7.21c.51-11.54,1.13-22.87,3.13-34.53a9.08,9.08,0,0,0-2.17-7.51c-1.57-1.91-4.72-5-8.15-4.08a6.92,6.92,0,0,0-4.85,4.81,14.41,14.41,0,0,0-.32,1.74l-.08.55c-.16,1-.27,2.07-.41,3.09a.77.77,0,0,0-.12.24c-4.65,28.36-13.19,40.28-17.48,41.12a2.41,2.41,0,0,1-2.62-1.34c-4.19-9-3-23.56-2.17-33.2.14-1.63.26-3.13.35-4.45a6.76,6.76,0,0,0-1.07-4.21c-2-3-6.12-6.15-8.36-6.9l-.42-.16a3.42,3.42,0,0,0-3.25-.06c-1.24.83-2.43,2.87-2.7,12.24.55,6.71-2.87,19.05-9.29,22.36a2.47,2.47,0,0,1-2.33,0,2.33,2.33,0,0,1-1.22-1.82h0a52.23,52.23,0,0,1-.19-6.15c.09-5.16.54-10.35.93-14.29.32-3.26.71-6.67,1.19-10.43.07-.58.18-1.17.28-1.76a19.49,19.49,0,0,0,.42-4,10.12,10.12,0,0,0-1.85-5.42,9.8,9.8,0,0,0-8.31-4.11,7.55,7.55,0,0,0-6.58,5.64,151.17,151.17,0,0,0-2.41,16.75A101.7,101.7,0,0,1,340,159.74a2.41,2.41,0,0,1-2.79,1,2.28,2.28,0,0,1-1.68-2.3c.3-9.41.85-32.63-.48-44.85-.34-4.59-3.4-8-8.4-9.35a4.25,4.25,0,0,0-5.31,3.76c-.83,11.22-2.37,30.31-3.24,39.75a23.7,23.7,0,0,1-2.26,8.16l-.17.35c-2.88,6-6.84,14.24-13.22,16.9a5.33,5.33,0,0,1-3.71.34c-2.61-.94-2.68-4.51-2.74-7.39l0-.8c-.08-2.55-.11-4.68,0-6.82a229.86,229.86,0,0,1,4.35-35.4c1-5,2.34-21.15-3.83-28.68a10.25,10.25,0,0,0-8.16-3.89h0a4.37,4.37,0,0,0-3.38,1.57A4.15,4.15,0,0,0,284,95.5a65.41,65.41,0,0,1-.06,23.84c-.35,2-.75,4-1.15,6-.72,3.63-1.47,7.38-1.88,11.18-1,8.77-.74,16.21.68,22.76a34.91,34.91,0,0,0,7.24,15.57c2.77,3.23,6.62,6.82,11.85,5.92,3.73-.64,7.29-3.09,10.87-7.5a2.36,2.36,0,0,1,2.88-.66,2.3,2.3,0,0,1,1.41,2.53l-.15.91a6.54,6.54,0,0,1-1.68,3.33L311.49,182c-3.59,3.75-7.31,7.63-10.59,11.8-4.09,5.2-8.34,11.45-8.9,18.31a13.82,13.82,0,0,0,2.45,9.25c2.73,3.74,7.42,5.41,10.71,6.34a28.27,28.27,0,0,0,7.67,1.13,21.57,21.57,0,0,0,4.44-.45,17.93,17.93,0,0,0,11.2-7.5c4.36-6.34,5.1-14.44,5.28-20l.41-7.25c.45-7.77.74-12.91.63-16.44a2.17,2.17,0,0,1,.82-1.81c3.64-3,8-8.39,11.6-14.67.43,6.62,1.82,12.73,4.93,16.49a11.69,11.69,0,0,0,9.14,3.28c3.1-.14,9.1-1.41,14.4-8.36a1.4,1.4,0,0,1,1.49-.51,1.19,1.19,0,0,1,.91,1c1.1,8.6,4.27,19.2,13.21,20.92a12,12,0,0,0,2.11.18c5,0,13.11-3.07,19.84-19.79.15,8.82,1.13,22.25,11.47,23.55a24.34,24.34,0,0,0,2.92.18A19.69,19.69,0,0,0,440,193.45c13.24-10.31,16.51-36.81,17.58-45.52A5,5,0,0,0,456.91,144.74ZM309,220.2a5.69,5.69,0,0,1-5.17,1,7.75,7.75,0,0,1-5.4-4.67c-3.6-9.61,11.06-23.48,15.87-28a.65.65,0,0,1,.48-.2.8.8,0,0,1,.29.06.64.64,0,0,1,.41.6C315.75,205.6,313.45,216.69,309,220.2Z"/><path class="cls-2" d="M440.46,277.44a2.77,2.77,0,0,0-1.73,1.06,3.84,3.84,0,0,0-.55,1.33c0,.13-.06.25-.1.38a9.71,9.71,0,0,1-.41,1l-.19.44c-.42,1-.9,2-1.4,3a35.33,35.33,0,0,1-3.21,5,37.22,37.22,0,0,1-7.52,7.21,2.42,2.42,0,0,1-2.62.18,2.28,2.28,0,0,1-1.26-2.16c.51-13.31,1.1-30.6,1.06-35.36.81-4.86-4-9-9.18-10.92a4.33,4.33,0,0,0-3.65.29,4.19,4.19,0,0,0-2.07,2.87c-.8,4.31-1.18,11.86-1.56,19.17-.35,6.91-.8,15.51-1.62,16.69-5.25,8.72-7.91,11.79-10.54,12.2a2.38,2.38,0,0,1-2.41-1.1c-2.43-4.4-2.66-18.57-.54-31.48,1.08-4.05-1.93-7.44-5.46-8.7-3.05-1.06-6.47,1.06-7.65,3.69-1.3,3.44-4.24,12.19-4.3,20.93-4,6.05-11.19,6.23-12.81,6.18a2.46,2.46,0,0,1-1.92-1,2.18,2.18,0,0,1-.4-1.87,28.26,28.26,0,0,0,.11-13.2c-1.63-7.44-4.6-12.32-9.09-14.92-3.23-1.87-8.59-3.28-13.1-1.06l-.41.2c-2,.94-6.13,2.88-6.76,8.75a2.38,2.38,0,0,1-1.72,2.13c-3.87.92-7,5.32-8.8,11.46a3.45,3.45,0,0,0-.2.32c-2.11,4.71-9.57,12.78-18.4,18.11a.92.92,0,0,1-1,0,.87.87,0,0,1-.4-.89c3.83-21.9,7.6-60.82-10.22-75.5a19.44,19.44,0,0,0-19.47-3.49,12,12,0,0,0-5.57,4.5,46.23,46.23,0,0,0-3.64,6.66,66.43,66.43,0,0,0-3.82,10.72,65.48,65.48,0,0,0-2.11,13.31,57.85,57.85,0,0,0,1.15,15,54.49,54.49,0,0,0,6,15.58,59.69,59.69,0,0,0,5.27,7.7c1,1.27,2.14,2.54,3.29,3.76.59.63,1.2,1.25,1.88,1.92a8.21,8.21,0,0,0,1.92,1.56,4.74,4.74,0,0,0,1.54.51,2.78,2.78,0,0,0,2.45-.62,2.22,2.22,0,0,0,.59-2c-.25-1.69-1.49-2.75-2.59-3.68-.28-.24-.55-.47-.8-.71a29.65,29.65,0,0,1-3.42-4,45.37,45.37,0,0,1-3.28-5.22,60.45,60.45,0,0,1-2.93-6.22,68.23,68.23,0,0,1-2.38-7,65.79,65.79,0,0,1-1.63-7.5,58.31,58.31,0,0,1-.72-7.79,50.6,50.6,0,0,1,.39-7.84,43.75,43.75,0,0,1,1.67-7.66,38.88,38.88,0,0,1,3.13-7.26,32,32,0,0,1,4.87-6.77,7.19,7.19,0,0,1,1.25-1,3.18,3.18,0,0,1,1.88-.38,6.44,6.44,0,0,1,2.1.58,10.08,10.08,0,0,1,2.37,1.5,15.68,15.68,0,0,1,2.42,2.61,22.18,22.18,0,0,1,2.26,3.85,32,32,0,0,1,1.87,5.23,47.19,47.19,0,0,1,1.29,6.76,71.2,71.2,0,0,1,.47,8.4c0,3.22-.18,6.55-.54,10.21-.89,13.13-3,36.2-4.62,44a2.13,2.13,0,0,1-.67,1.18c-10.45,9.86-29.84,32.8-28.36,49.09a15.51,15.51,0,0,0,7.41,12.09,12.17,12.17,0,0,0,7,2.05,16.09,16.09,0,0,0,6.77-1.58c17.6-8.23,22.94-42.54,24.56-62.26a2.43,2.43,0,0,1,1.37-2c7.18-3.53,13.24-7.35,18.14-13.05,0,1.3.07,2.62.19,3.95.74,7.69,4.72,20.36,15,20.36l.89,0c7.95-1,16.88-3.52,22.26-20.36a2.48,2.48,0,0,1,2.57-1.7c4.27.4,11,.11,16.38-4.19a19.85,19.85,0,0,0,2.68,6.39c1.4,2.25,6.45,8.3,12.91,9.25,3.64.53,7.09-.63,10.28-3.45a2.43,2.43,0,0,1,4,1.78c0,1,0,2,0,3a2.21,2.21,0,0,1-.73,1.69,81.21,81.21,0,0,0-13.31,16.6,65.68,65.68,0,0,0-8.27,20.05,41.91,41.91,0,0,0-1,9.52,23.08,23.08,0,0,0,1.61,9.08,12,12,0,0,0,6.08,5.78,20.33,20.33,0,0,0,8.43,1.8,19.75,19.75,0,0,0,8.57-1.91c6.66-3.21,10.37-9.7,12.32-14.57.7-1.74,4.19-12.22,3.54-47.07a2.29,2.29,0,0,1,1.13-2.05c5.76-3.38,17.58-12.73,21-23.78a5.72,5.72,0,0,0,.56-2,3,3,0,0,0-1-2.42A3.21,3.21,0,0,0,440.46,277.44Zm-35.16,68.7c-.72,8.67-2.65,17.71-11.49,19a6.32,6.32,0,0,1-3.09-.18,5.19,5.19,0,0,1-2.65-2.68c-1.67-3.47-1.9-8.71-.67-15.57,1.72-9.65,7.06-19.24,15.86-28.5a.74.74,0,0,1,.56-.25.84.84,0,0,1,.29.05.7.7,0,0,1,.48.61l.17,2.39C405.37,329.24,406,337.78,405.3,346.14Zm-66.75-79.6c.14-1.93.72-4.37,2.67-5,2.21-.67,5.28,1.1,6.82,3.07l.4.57c1.93,2.73,5.15,7.3,4.52,16.53a2.33,2.33,0,0,1-1.45,2,2.45,2.45,0,0,1-2.57-.35C343,278.57,338.57,271.28,338.55,266.54Zm11.2,28.63c-2.83,6.5-5.87,10.75-8.79,12.27a2.43,2.43,0,0,1-2.71-.19c-4.83-4.22-4.44-22.15-3.46-27.46a2.06,2.06,0,0,0,.09-.73c4.39,6.19,9.76,11,13.83,13.16A2.3,2.3,0,0,1,349.75,295.17Zm-71,30.11c-4.87,28.56-10.3,36.79-14,38.66a4.31,4.31,0,0,1-4.08-.07,6.13,6.13,0,0,1-3-3.95c-3-11.27,7.49-26.11,16.87-36.58a2.38,2.38,0,0,1,1.79-.81,2.58,2.58,0,0,1,1.13.26A2.27,2.27,0,0,1,278.73,325.28Z"/><path class="cls-3" d="M179.77,227.33a14.9,14.9,0,0,1,.8,2.24c.72-1.26,2.24-2.59,1.14-4.08-.72-1.49-2-3.89-3.31-1.6-1.16,1.13-.89,1.09.19,2,.6-.69,1.52-1.12,1.2.26C182.11,225.71,181,227,179.77,227.33Z"/><path class="cls-3" d="M181.17,238.54c6.26-7.12,6.64-2.25,4.39-13.86-1.21,1.38,1.75,9.2-1.57,6.1a.35.35,0,0,1,.11-.62c1-.61-.72-4.26.41-5.73-3.36.14.5-8-2-11a.22.22,0,0,0-.39.14c0,2.39-.56,6.46-.27,9.76,1.6,2.72,2.14,4-.05,6.5-1.43,1.46-7.43,3.6-5.13-.43l-.12-.1c-.3.19-1,.42-.93-.18.21-1.2.43-3,1.46-.89,1.68.71,1,1.16.21,2.35,3.87.3,1.57-2.84.16-4.39-1.65-1.58-3.28,2.48-3.08,3.88,0,1,1.21,5.51.4,6.59Z"/><path class="cls-3" d="M204.39,234.39A.82.82,0,0,0,204,234c-1.68-.46-3.37-.89-5.1-1.34-.5,1.21-1.15,2.79-1.9,4.59a15,15,0,0,0,9.53.27C205.75,236.44,205.08,235.41,204.39,234.39Z"/><path class="cls-3" d="M186.83,224.84c1.72-2.39,3.5-4.87,5.17-7.23a3.57,3.57,0,0,0,.82-2.25.51.51,0,0,0-.92-.27c-2,2.82-3.54,6-6.1,8.42C186.5,223.26,186.75,224.28,186.83,224.84Z"/><path class="cls-3" d="M163,174.9a2.25,2.25,0,0,0-.23.56c-.86,3.37-1.8,6.71-2.61,10.09A51,51,0,0,1,154,200.24a3,3,0,0,0-.13,2.08c.38,1.41,1.09,2.73,1.45,4.15,1.3,5.17,4.91,8.36,9.27,10.84a80.35,80.35,0,0,0,13,5.83c1.09-.91,2.2-1.42,3.1-.87.83-2.37-.15-6.36.26-8.94a1.3,1.3,0,0,1,2.46-.36,19.49,19.49,0,0,1,.66,1.87c1.11,3.57-.48,5.73.16,8.59,2.42-.86,4.95-7.35,7.17-9.32a1.35,1.35,0,0,1,2.25.75c.67,3.32-3.81,6.73-5.33,9.52a4,4,0,0,0-1,1.5c1.39.31,2.79.61,4.21.87,8.08,1.44,16.18,2.85,24.32,4,5.13.71,10.32,1,15.41-.71a15.5,15.5,0,0,0,10.21-10.72c1-3,1.82-6.09,2.64-9.15A35.62,35.62,0,0,1,250,198.71a29.37,29.37,0,0,0,5-10,4.39,4.39,0,0,0,0-2.13,113.53,113.53,0,0,0-14.84-34.4,55.44,55.44,0,0,0-10.24-11.29,15.19,15.19,0,0,0-2.19-1.58c.35.13-.66,3.9-.75,4.26A61.45,61.45,0,0,1,218.92,161a46.7,46.7,0,0,1-5.24,6.89,33.54,33.54,0,0,1-7.72,6.22,31.3,31.3,0,0,1-4.83,2.18,11,11,0,0,1-4.56.83c4.89-3.87,8-8.77,11.11-13.62a80.88,80.88,0,0,0,7.86-16.9c-2,2.26-3.91,5.17-5.73,7-2.05,2-4.16,3.91-6.29,5.82,0,0-10.36,10.07-21.67,12.81a21.86,21.86,0,0,1,10.34,3.34,18.94,18.94,0,0,1,8.94,12.38,8.78,8.78,0,0,0-3.76-4.49c.13,1.15,1.33,5.13,1.42,5.92,0,0-3.92-6.74-8.7-8.84.28,2.13.61,4,.77,5.95.53,6.64-.91,12.69-5.83,17.49-4.27,4.17-9.54,3.46-12.31-1.78-3.87-7.31-4.17-15.06-2.23-23,.72-3.57,2.51-4.6,2.51-4.6-2.64.45-6.49.63-6.49.63A25.09,25.09,0,0,1,163,174.9Zm68.17-1.63a4.66,4.66,0,0,1,3.25-1.18A19.15,19.15,0,0,1,244,174a7.12,7.12,0,0,1,1.72,1.26,5.84,5.84,0,0,1,.68.81s.44.81.36.8a9,9,0,0,1-2.08-.88c-.65-.31-1.31-.61-2-.87a14.35,14.35,0,0,0-5.39-.87c-1.83.05-3.58.55-5.39.72A1,1,0,0,1,231.19,173.27ZM224,194.42c.06-4.08.73-8.4,4.69-10.72a13.12,13.12,0,0,1,7.74-1.91,20.55,20.55,0,0,1,7.73,2.43,13.65,13.65,0,0,1,6.82,7.9l.88,2.65a8.12,8.12,0,0,0-2.7-3.05c.1,1.09.45,3.3.56,4.4a12.58,12.58,0,0,0-7.81-8.25c.09.61.14,1.13.25,1.63a21.23,21.23,0,0,1,.39,2.23,22.54,22.54,0,0,1-1.26,10.85c-1.27,3.38-3.38,7.16-6.24,9.45a6,6,0,0,1-3.33,1.41,5.16,5.16,0,0,1-4.76-3.19A36,36,0,0,1,224,194.42Zm-9.46,23.42-3.74,4c-3,3.21-7.62,2.47-9.75-1.56l-2.11-4Z"/><path class="cls-3" d="M146.38,182.31a.4.4,0,0,0,.67.05l3-7.41a.74.74,0,0,0-.12-.74,4,4,0,0,0-2.72-1.55,4.36,4.36,0,0,0-2.55.49,4.56,4.56,0,0,0-2.15,2.69,10.38,10.38,0,0,0-.41,5.28l2.06,5.15a.08.08,0,0,0,.07,0,.84.84,0,0,0,.67-.36,3,3,0,0,0,.46-3,6.15,6.15,0,0,1-.38-1.75,6.49,6.49,0,0,1,.75-3.45,4,4,0,0,1,.8-1.15,2,2,0,0,1,.56-.38c.37-.16,1.2-.39.79.29A6.91,6.91,0,0,0,146.38,182.31Z"/><path class="cls-4" d="M178.61,197.5c-1.89,0-3.44-2.18-3.67-5a1.8,1.8,0,0,0,.66.13,1.72,1.72,0,0,0,0-3.44,1.63,1.63,0,0,0-.31,0h0a2,2,0,0,0-.5.19,16.28,16.28,0,0,0-3.84,2.1,3.36,3.36,0,0,0,0,1.09c.38,3.39,1.06,6.68,3,9.55,2.77,4.07,6.15,4.54,9.92,1.39a17.67,17.67,0,0,0,5.85-9.44,4.82,4.82,0,0,0,.2-1.84,17.73,17.73,0,0,0-8.22-3.61,8.21,8.21,0,0,1,.59,3.11C182.31,194.93,180.65,197.5,178.61,197.5Z"/><path class="cls-4" d="M228.33,193.41c1.75.9,3.67.66,4.29-.54s-.29-2.91-2-3.81-3.67-.67-4.29.54S226.58,192.5,228.33,193.41Z"/><path class="cls-4" d="M210.72,220.68l-8.48-.8C203.41,222.52,208.81,223.17,210.72,220.68Z"/><path class="cls-4" d="M235.58,210a29.52,29.52,0,0,0,5.5-10.55,16.33,16.33,0,0,0-5.82-3.78,8.38,8.38,0,0,1,.38,2.52c0,3.18-1.65,5.76-3.7,5.76s-3.58-2.41-3.69-5.44a1.72,1.72,0,1,0,.78-3.25,1.66,1.66,0,0,0-.86.24,11.66,11.66,0,0,0-3.1,1.58,62.06,62.06,0,0,0,2.28,11.48C228.58,212.83,232.61,213.37,235.58,210Z"/><path class="cls-4" d="M176,182.66c-1.75-.9-3.67-.66-4.29.54s.29,2.91,2,3.81,3.67.66,4.29-.54S177.78,183.56,176,182.66Z"/><path class="cls-5" d="M251.87,256.56l1.43.29a13.38,13.38,0,0,0,1.34.18l12.84-1.14a.49.49,0,0,0,.4-.29,10.29,10.29,0,0,0-.06-7.2,3.36,3.36,0,0,0-.92-1.36,47.8,47.8,0,0,1-9.6,1.91,32.68,32.68,0,0,1-9.36-.36,3.29,3.29,0,0,0-.64,1.08A10.51,10.51,0,0,0,247,256,36.37,36.37,0,0,1,251.87,256.56Z"/><path class="cls-3" d="M245.61,259.44c1.23,0,2.58-.36,3.8-.28.72,0,1.41.15,2.13.14a22.46,22.46,0,0,0,2.71-.3c.77-.12,1.53-.2,2.3-.3l2.05-.32a1,1,0,0,0-.42-.48,1.45,1.45,0,0,0-.55-.09h-.23a21.2,21.2,0,0,1-4.63-.39l-.3-.05a77.13,77.13,0,0,0-8.76-.91l1.6,3Z"/><path class="cls-6" d="M266.51,246.75a3.18,3.18,0,0,0-.94-.42,25,25,0,0,0-8.46-.7,23.46,23.46,0,0,0-8.2,2.23,3.33,3.33,0,0,0-.62.41C250.28,248.65,257.09,249.57,266.51,246.75Z"/><path class="cls-3" d="M261.12,257.4a1.46,1.46,0,0,0-.55-.07l-.73,0-1.14.1a2.77,2.77,0,0,1,.49.75.2.2,0,0,1,0,.08l2.35-.37A1.11,1.11,0,0,0,261.12,257.4Z"/><path class="cls-3" d="M206.84,313.47c-8.79.45-17.12-3-24.34-7.27.19.48.09.23.31.74,2.23,6.8,4.3,13.66,6.8,20.35.76,2,2.58,3.77,4.22,5.33,1.83,1.73,3.51,1.59,5.57.13a14.85,14.85,0,0,0,4.69-6.45A31.75,31.75,0,0,0,206.84,313.47Z"/><path class="cls-7" d="M187.74,250c-1.72,1-1.8,2.63-.26,3.86a10,10,0,0,1,1.31,1.72,14.08,14.08,0,0,0,3.94-6.15,44.14,44.14,0,0,0,2.49-13.2c.09-1.43.09-2.3-1.17-2.85-.57-.25-1.51-.49-1.83-.22a2.11,2.11,0,0,0-.58,1.89c.81,1.9,0,2.49-1.71,2.93-2,.54-2.39,1.66-1.29,3.45.82,1.34.29,2.29-.75,3.18-1.69,1.44-1.68,1.64,0,2.85A1.45,1.45,0,0,1,187.74,250Z"/><path class="cls-7" d="M218.6,245c1.13-.66.74-3.11-.26-3.82a4.58,4.58,0,0,0-1.1-.43c-1.71-.63-1.94-1.53-1-3,.35-.51.66-1.61.41-1.85-.59-.57-1.64-1.24-2.28-1.07a3.06,3.06,0,0,1-3.61-1.14,1.62,1.62,0,0,0-1.5-.21,14.16,14.16,0,0,0-2.16,1.52c5.17,5.69,7.59,12.28,8.46,19.53a4.71,4.71,0,0,0,2.06-5.62C217,247.22,216.9,246,218.6,245Z"/><path class="cls-7" d="M194.7,256.67a1.66,1.66,0,0,1,2.39,1.05c.64,1.82,2.09,2,3.54,1.85,3-.34,6-.89,9-1.39.36-.06.94-.25,1-.48.48-1.9,1.86-2,3.38-1.74.8-3.93-2.08-12.6-5.9-18a15.2,15.2,0,0,1-11.64.08c-.53,3-.76,6.22-1.69,9.18s-2.59,5.75-4,8.73C191.75,256.61,192.94,257.59,194.7,256.67Z"/><path class="cls-7" d="M220.62,250.44l-2-2.35c1.3,3-.24,5.16-1.83,7.13,4.78,2.48,9.47,5,14.26,7.32a7.1,7.1,0,0,0,3.74.3l10.71-1.25L242,255a7.35,7.35,0,0,1-3.45.21,44.58,44.58,0,0,0-9.62-.94c-.54,0-1.07.06-1.61.12a5.23,5.23,0,0,1-3.77-.67A18.09,18.09,0,0,1,220.62,250.44Z"/><path class="cls-7" d="M216.9,256.15c-.33-.06-.64-.16-.9.05l-.34.28a.78.78,0,0,0-.1,1.1c.42.48.93,1.07,1.14,1.28l1.5,1.56,6.15,6.33,5.81,6.67c-2.21-2.14-4.45-4.25-6.64-6.41-2.92-2.9-5.81-5.83-8.71-8.75-.27-.27-.53-.67-.86-.77a3.88,3.88,0,0,0-.49-.11,1,1,0,0,0-1,1.4l12.4,20.78c-4.29-6.34-9-14.05-13.34-20.48a.52.52,0,0,0-.59-.19l-2.28.83a.39.39,0,0,0-.27.5l6.48,15.55c-2-3.38-6.31-12.7-7.38-15a.75.75,0,0,0-.81-.43c-.44.06-1.14.16-2.21.27-1.49.13-2.67.42-4.38.59-1.19.12-1.27.37-1.26,1.22a17.52,17.52,0,0,1-.22,2.8L197,275.32a100.73,100.73,0,0,1,1.18-13.74.38.38,0,0,0-.75-.16,61.3,61.3,0,0,1-3,9,30.82,30.82,0,0,1-3.14,5.42l-2.38,3.28c3.16-6.13,6.35-13.32,7.55-20.11a.88.88,0,0,0,0-.23.9.9,0,0,0-1.66-.33l-3.39,5.25c-3.84,7-8.72,13-15.56,17.33,6.14-5.85,12.5-12.91,16.34-20.52a1.64,1.64,0,0,0-.48-2l-2.26-1.73a2.63,2.63,0,0,0-3.38.17,33.32,33.32,0,0,1-10.42,6.5l11.42-8.69c-6.79.81-11.2,4.18-15.73,8.12l-.32.27c-14,14.14-5,27.71-4.63,28.3a10.17,10.17,0,0,0,2.8,3.51l7.13-9.73-6.18,10.45a12,12,0,0,0,3.6,2.9l3.2-3.85-2.37,4.67c5.16,4.8,14.88,8.55,14.88,8.55L196.67,286,191,308.56c5.33,3.06,14.14,3.47,14.14,3.47,3.31.1,6.47-1.47,9.42-3A65.51,65.51,0,0,0,227.59,301c3.85-3.23,6.94-5.7,13.42-7.63a44.59,44.59,0,0,1-5.24-7.91l6.34,7.59,3.22-.78-9.63-14.95,10.87,14.43c2.24-1,5.89-2.82,6-5.55a8.64,8.64,0,0,0-1.1-4.17c-2.12-4-5.55-6.95-8.95-9.82-1.37-1.15-2.77-2.25-4.22-3.3-2.16-1.56-4.39-3-6.68-4.41C231.63,264.5,219.38,256.9,216.9,256.15Z"/><path class="cls-7" d="M188,249l-.11-.45-.66-.28a2.21,2.21,0,0,1-1.39-3.06h0c-3.15,0-5-.73-5.63-2.22-.43-1-.21-2.3.65-3.82l-6.28-1.78a21.4,21.4,0,0,1-1.07,2.66q-1.1,2.31-2.16,4.64l-.23.5c0,.17-1.48,4.88,1.93,6.47a17.3,17.3,0,0,0,12.36.09C185.39,250.45,186,249.38,188,249Z"/><path class="cls-3" d="M189.23,330.15l-4-9.47C185.88,324.14,185.81,327.9,189.23,330.15Z"/><path class="cls-3" d="M216.34,309.72a44.72,44.72,0,0,1-6.3,2.79,2.1,2.1,0,0,0-1.71,2.49,24.76,24.76,0,0,1-3,13,46.62,46.62,0,0,1-2.89,4.19,3,3,0,0,0-.6,1.8c.95,7.54,1.82,15.08,1.48,22.69-.16,3.51-.45,7-.68,10.54,2-.8,2.34-.65,3.05,1.36.26.76.77,1.11,1.47.4a2.69,2.69,0,0,1,4.64,1.17,6.62,6.62,0,0,0,4-4.06c1.93-5.42,4.3-10.69,6.07-16.16a28.29,28.29,0,0,0,.25-16.65c-.85-3-.42-6,.25-9,1-4.57,2-9.17,2.74-13.79a37,37,0,0,0,.05-5.87C222.25,306.34,219.34,308.12,216.34,309.72Z"/><path class="cls-4" d="M214.73,370.64a3.88,3.88,0,0,0-2.13-.2,6,6,0,0,0-1.1.31,1.25,1.25,0,0,1-.26.07.37.37,0,0,1-.36-.39l-1.51,2.85c.15-.57.53-1.61.74-2.17.06-.17.11-.33.17-.49a1.38,1.38,0,0,0-1-1.84c-.69-.09-1.06.46-1.21,1.66a9,9,0,0,1-.62,2.38v-1.44a1.1,1.1,0,0,0-.79-1.06l-.51-.15a.66.66,0,0,0-.84.52l-.46,2.73v-4c0-.75.62-1.95-.68-1.89-.48,0-1.13,1.38-1.3,2.21s.17,1.8,0,2.76c-.43-1.76-.87-3.53-1.33-5.4a.63.63,0,0,0-.61-.48h-.36a.57.57,0,0,0-.53.78,18,18,0,0,1,.7,9.73c-.2,1.05-.61,2.06-.91,3.08a11,11,0,0,0-.48,1.83c-.33,2.91,1.54,4.47,4.21,3.21a13,13,0,0,0,4.34-3.56c1.08-1.36,1.45-3.27,2.41-4.75a18.3,18.3,0,0,1,1.67-2.16c.35-.43.71-.84,1.07-1.26l1-1.17.51-.59.24-.28a.83.83,0,0,0,.2-.37.45.45,0,0,0,0-.3A.47.47,0,0,0,214.73,370.64Z"/><path class="cls-8" d="M227.36,233c-.58.11-1.16.2-1.75.26-3.53.18-7.5-.09-10.78.08.26.21,1.31.85,1.59,1.09,1.55,1.28,1.68,2,.66,3.74-.5.84-.67,1.46.54,1.91l.09,0a3.19,3.19,0,0,1,1.27.83A80.73,80.73,0,0,0,227.36,233Z"/><path class="cls-8" d="M181.36,242.51a1.45,1.45,0,0,0,.68.66c2.14-1.87,2.84-2.52,5.21-4.59a4.88,4.88,0,0,1,.81-.56c1.57-.75,3.43-1.09,2.77-3.59a1.81,1.81,0,0,1,2.14-2.25c1.73.35,2-.89,3.12-1.92-1.17-.24-2-.37-2.72-.56-2-.48-4-.9-6-1.51l-.26-.09c.28,2.4,1.56,4.84-.89,6.8-1.51,1.3-3.32,2.09-4.37,3.84l.62.18-.19.29C181.38,240.64,181.05,241.78,181.36,242.51Z"/><path class="cls-8" d="M187.38,243.64c.26-.48.57-1.24.36-1.6s-1-.47-1.56-.42a2.68,2.68,0,0,0-1.22.76l-1.54,1.29a15,15,0,0,0,3.63.31A1.07,1.07,0,0,0,187.38,243.64Z"/><path class="cls-8" d="M64.84,236.23a18.07,18.07,0,0,1,11.55,2.35,125.77,125.77,0,0,0,18.4,8.32,42.62,42.62,0,0,0,15.62,2.43c7.08-.29,13.5-3,19.63-6.32a60.58,60.58,0,0,0,16.48-12.75,69.75,69.75,0,0,0,9.79-14.41c.83-1.63,1.15-2.44,0-4a21.63,21.63,0,0,1-3.64-9.32l-3.6,4.45c-2,2.5-4.19,4.87-6.41,7.2a47.15,47.15,0,0,0-10.46,18.51s-5.35-8.6-.06-20.89c-5.74,3.77-11.27,7.11-16.47,10.9a54.78,54.78,0,0,0-8.27,6.86l-5.59,5.9c2.27-7.55,3.91-12.37,8.3-19,.93-1.42,2-2.73,3.25-4.35a26.42,26.42,0,0,1-4,1.79,29.81,29.81,0,0,1-9.95,1.7c-2.33,0-4.66,0-7,.14a105.39,105.39,0,0,0-18.89,2.44c-4.1.95-8.12,1.8-11.6,4.34A24.62,24.62,0,0,0,55,230.74a49,49,0,0,0-2.84,6.32c-.41,1.09-.79,2.18-1.16,3.27-.25.75-.47,2.45-1,3C53.89,239.24,59.33,237.05,64.84,236.23Z"/><path class="cls-8" d="M98.53,200c7.58-.35,14.86-1.84,21.36-6a38.54,38.54,0,0,0,5-3.88s-20.54,5.08-47.09,9.1a24.43,24.43,0,0,0-6.9,2C80,199,89.33,200.4,98.53,200Z"/><path class="cls-8" d="M57.25,223.85l.15-.13A35.59,35.59,0,0,1,72.31,216a83.42,83.42,0,0,1,14.92-2.12c5.14-.31,10.3.09,15.43-.33a31.33,31.33,0,0,0,11.18-2.85c2.47-1.2,4.56-3.17,6.86-4.72,3.66-2.46,7.39-4.81,11-7.29a50.48,50.48,0,0,0,11.51-10.61,1.32,1.32,0,0,0,.25-1c-.78-2.17-1.62-4.31-2.38-6.29-1.05,1.63-4.4,5.35-14,8.59a4.87,4.87,0,0,0-1.26.9c-6,6.4-13.54,9.54-22,10.27-7.64.65-15.37.36-23,.71A80.63,80.63,0,0,0,71,202.63c-4.87.84-7.91,4.28-10.66,8-3.16,4.22-5.32,8.9-5.43,14.31a7.47,7.47,0,0,0,0,.94C54.87,225.5,56.89,224.16,57.25,223.85Z"/><path class="cls-8" d="M266,159l-5.14-10.75c-3.07-6.61-5.84-13.37-9.27-19.79-3.81-7.12-8.17-14-14.34-19.4-4.42-3.85-9.41-6.68-15.62-5.65a15.18,15.18,0,0,0-4.72,1.77,2,2,0,0,1-2.1.08c-3.82-1.64-7.55-3.59-11.51-4.77-9.78-2.92-19.35-1.8-28.61,2.39a61.39,61.39,0,0,0-13.38,7.87c-4,3.21-6.9,7.36-9.48,11.7-4,6.64-7.62,13.46-11.55,20.12-4,6.82-10.05,12.78-17.36,15.82a62.78,62.78,0,0,1-10.23,3.36c-3.51.8-7.07,1.37-10.55,2.27a48.36,48.36,0,0,0-12.28,5.09C82.38,173.49,77.05,180.4,73,188a5.54,5.54,0,0,0-.6,1.41,6.23,6.23,0,0,0-.31,1.51c.74-.94,2.23-2.9,3-3.8,7.34-8.43,16.67-13.71,27.31-16.65,4.79-1.33,9.8-1.86,14.66-3,15.56-2.57,25.72-13.4,29.56-18.23,1.7-2.14,3.52-4.18,5.41-6.15,3-3.16,6.12-6.38,9.37-9.43a73.2,73.2,0,0,1,15.28-10.82c-.65.5-1.27,1-1.95,1.49-7.65,4.94-13.94,11.37-20,18.08-4.63,5.13-9.36,10.16-14.09,15.18C134.75,163,128,165.92,120.34,168c-4.57.85-9.18,1.48-13.73,2.39a52.49,52.49,0,0,0-20.61,9c-5.49,3.66-7.09,5.55-11.88,11.23a28.21,28.21,0,0,0-5.71,10.18c2.14-1.64,41-8.54,50.7-10.23,16.28-3.24,21-9.55,21-9.55.6-.76.7-2.55.87-3.59.47-2.79,1.75-4.47,4.47-5.3a2,2,0,0,0,1-1c1.5-3.36,2.93-6.73,4.4-10.1a19.42,19.42,0,0,1,1.79-3l-.7,1.92h0c-1.5,4.05-3.54,8-5.08,12.16,0,0,.53.13.54.15a4.89,4.89,0,0,1,2.48,1.38c.6-1.7,1.21-3.35,1.73-5a40.91,40.91,0,0,1,12-18.83,89.73,89.73,0,0,0,9.25-9.35c.42-.51,3.81-4.19,4.29-4.65.1.1-4.84,6-4.74,6.05-2.8,3.23-3.42,4-6.25,7.19-2.14,2.42-4.41,4.72-6.49,7.19-4.12,4.92-5.95,10.94-8.1,16.83a105.12,105.12,0,0,1-5.48,13.09,35.61,35.61,0,0,1-11.59,12.74c-5.21,3.54-10.55,6.91-15.74,10.49-7.17,4.92-11.3,12.06-14.26,20l-.86,2.35c5.24-6.54,26.59-19.9,26.59-19.9a23.8,23.8,0,0,0,4.37-4.48c4.05-5,9.93-12.25,14.21-17l-4.7,6.76c-1.3,1.88-2.68,3.71-4.12,5.49s-2.39,3-4.55,6.14c-6.26,8.25-3.74,20.77-3.74,20.77a33.79,33.79,0,0,1,6.66-12.12c2.48-3,5-5.94,7.73-8.65a39.16,39.16,0,0,0,8.93-14.52c1.57-4.2,2.58-8.6,3.91-12.9.62-2,1.39-4,2.1-6.06l-8.09-2.89c2.66-.42,5.08-.74,7.48-1.2,2-.39,3.05-1.63,4-3.64a117.08,117.08,0,0,1,7.5-13.09c5.1-8,11.53-14.81,18.47-21.17-3,3.68-6.14,7.3-9.07,11.06s-5.89,7.7-8.6,11.71a143.42,143.42,0,0,0-7.39,12.44c7.23-3.87,12.8-9.63,18.5-15.26a51,51,0,0,1-11.27,12.09,42.53,42.53,0,0,1-14.52,7.57,22.16,22.16,0,0,0,6.42,1.64,40.19,40.19,0,0,0,7.84-.54,52.66,52.66,0,0,0,17-5.56,93,93,0,0,0,28-25.83c-2.82,13.17-9.65,24.07-18.44,33.79a21.09,21.09,0,0,0,7.78-3.55,37.54,37.54,0,0,0,10.76-12.05.59.59,0,0,1,0-.08c3.63-5.38,6-11.35,8-17.67a34.22,34.22,0,0,0,1.16-5.1,19.22,19.22,0,0,1,6.14,4.06,54.48,54.48,0,0,1,9.15,11.92,142.32,142.32,0,0,1,6.65,12.8q1.8,3.79,3.25,7.76l0,.14a95.12,95.12,0,0,1,4.28,16c1.07,6.12,1.68,12.22-.12,18.32a4.11,4.11,0,0,1-.61,1.34c.37-6,.82-12-.38-17.89-1.14,2.18-2.2,4.41-3.44,6.54-1.14,1.94-2.46,3.77-3.68,5.67a27.49,27.49,0,0,0-3.78,9.44c-1.19,5.88-2.81,11.88-8.09,15.6a28.27,28.27,0,0,1-7.05,3.07,52.48,52.48,0,0,1-9.82,8.78,3.41,3.41,0,0,1-.35,4.19,1.84,1.84,0,0,0-.59,1l2.84,3.34a13.79,13.79,0,0,0,2.55,2.72,28.69,28.69,0,0,1,4.38-4c4.64-2.89,9.4-5.59,14.2-8.19,4-2.15,6.79-5.44,9.32-9,6.42-9,8.67-19.13,7.73-30.06q-1.14-13.25-2.23-26.48a2.87,2.87,0,0,1,.26-1.56c.95,8,1.91,16,2.89,24.21a15.66,15.66,0,0,0,4.81-4.39C275.31,181.22,266,159,266,159ZM159.8,124.69c4.47-7,10.77-11.79,18.32-15C171.2,113.7,164.85,118.39,159.8,124.69Zm28.07,35.49c8.65-7.61,14.92-17,20.17-27.1C204,144.06,197.58,153.34,187.87,160.18Zm63.41-19.05c-3.74-7.15-9.07-13-15.09-18.24A39.11,39.11,0,0,1,251.28,141.13Zm-11.75-6c8.51,8.05,14.57,17.56,17.06,29.16C253,153.33,246.8,143.9,239.53,135.1Z"/><path class="cls-8" d="M169.65,244.83l.81-2.21c.85-1.94,1.72-3.84,2.55-5.62.06-.14.11-.27.16-.4l.1-.31.7.19c.81-3-1.49-5.74-.26-8.74l.18-.26c-7.43,8.15-30.3,32-49.3,39.11,4.4,2.63,9.93,2.43,15,1.46l.92-.29c14.57-3.43,26.36-11.94,28.8-13.74l2-1.69C168.34,250,169.49,245.4,169.65,244.83Z"/><path class="cls-8" d="M132.59,255.48c27.46-15.88,36.33-33.19,36.33-33.19-2.46-1.68-4.83-3.25-7.14-4.92a15.53,15.53,0,0,1-2.55-2.31c-.88-1-1.21-.66-1.72.34-3,5.81-6.31,11.41-10.88,16.12a67,67,0,0,1-14.5,11.22c-4.46,2.61-9.46,5.34-14.47,6.68a37.53,37.53,0,0,1-18.27-.1c-8.33-1.95-15.93-5.61-23.3-9.86-6-3.47-13.88-2.12-19.47.65a14.91,14.91,0,0,0-8.32,11.5c-1.16,9.72,7.09,15.84,7.09,15.84-.5-.43-.32-3-.31-3.62a15.71,15.71,0,0,1,.37-3.42,15,15,0,0,1,2.72-5.82,15.69,15.69,0,0,1,4.68-4.14c4.59-2.65,10.6-2.83,15.75-1.89a32.19,32.19,0,0,1,10.23,4.09,79.63,79.63,0,0,0,10.65,5.53l.21.08A38.32,38.32,0,0,0,132.59,255.48Z"/><path class="cls-8" d="M135.49,259.62c28.28-20.64,38.92-35.51,38.92-35.51l-3.48-1.27a.81.81,0,0,0-.46-.07s-13.07,24.33-45.35,37.82a25,25,0,0,1-11.77,1.88,44.45,44.45,0,0,1-9.06-1.63,6.44,6.44,0,0,0,4.36,3.26,37.84,37.84,0,0,0,12.8,1,28.58,28.58,0,0,0,6.3-1.39A29.13,29.13,0,0,0,135.49,259.62Z"/><path d="M231.72,213.44a6,6,0,0,0,3.33-1.41c2.86-2.29,5-6.07,6.24-9.45a22.54,22.54,0,0,0,1.26-10.85,21.23,21.23,0,0,0-.39-2.23c-.11-.5-.16-1-.25-1.63a12.58,12.58,0,0,1,7.81,8.25c-.11-1.1-.46-3.31-.56-4.4a8.12,8.12,0,0,1,2.7,3.05l-.88-2.65a13.65,13.65,0,0,0-6.82-7.9,20.55,20.55,0,0,0-7.73-2.43,13.12,13.12,0,0,0-7.74,1.91c-4,2.32-4.63,6.64-4.69,10.72a36,36,0,0,0,3,15.83A5.16,5.16,0,0,0,231.72,213.44Zm-5.43-23.84c.62-1.21,2.54-1.45,4.29-.54s2.66,2.61,2,3.81-2.54,1.44-4.29.54S225.67,190.8,226.29,189.6Zm1.88,5.86a1.66,1.66,0,0,1,.86-.24,1.72,1.72,0,1,1-.78,3.25c.11,3,1.72,5.44,3.69,5.44s3.7-2.58,3.7-5.76a8.38,8.38,0,0,0-.38-2.52,16.33,16.33,0,0,1,5.82,3.78,29.52,29.52,0,0,1-5.5,10.55c-3,3.41-7,2.87-8.23-1.44A62.06,62.06,0,0,1,225.07,197,11.66,11.66,0,0,1,228.17,195.46Z"/><path class="cls-9" d="M239.53,135.1c7.27,8.8,13.44,18.23,17.06,29.16C254.1,152.66,248,143.15,239.53,135.1Z"/><path class="cls-9" d="M254.68,217.64c-3.8,7.88-8.39,15.2-14.84,21.22C247.12,233.41,251.81,226.14,254.68,217.64Z"/><path class="cls-9" d="M251.28,141.13a39.11,39.11,0,0,0-15.09-18.24C242.21,128.15,247.54,134,251.28,141.13Z"/><path class="cls-9" d="M159.8,124.69c5-6.3,11.4-11,18.32-15C170.57,112.9,164.27,117.67,159.8,124.69Z"/><path class="cls-9" d="M187.87,160.18c9.71-6.84,16.1-16.12,20.17-27.1C202.79,143.21,196.52,152.57,187.87,160.18Z"/><path d="M231.89,175c1.81-.17,3.56-.67,5.39-.72a14.35,14.35,0,0,1,5.39.87c.67.26,1.33.56,2,.87a9,9,0,0,0,2.08.88c.08,0-.33-.76-.36-.8a5.84,5.84,0,0,0-.68-.81A7.12,7.12,0,0,0,244,174a19.15,19.15,0,0,0-9.53-1.95,4.66,4.66,0,0,0-3.25,1.18A1,1,0,0,0,231.89,175Z"/><path d="M210.8,221.85l3.74-4-15.6-1.55,2.11,4C203.18,224.32,207.81,225.06,210.8,221.85Zm-.08-1.17c-1.91,2.49-7.31,1.84-8.48-.8Z"/><path d="M265.77,245.57a25.15,25.15,0,0,0-17.21,1.59,3.93,3.93,0,0,0-2,2.26,11.35,11.35,0,0,0-.42,6.58c-.83,0-1.68-.07-2.61-.14h-.16l-.43-.81-.14-.26-.39-.72a4.64,4.64,0,0,0-.88.08,27,27,0,0,1-4,0c-1.35-.11-2.64-.45-4-.63a22,22,0,0,0-4.87-.11c-1.3.1-2.67.6-3.88-.13a4,4,0,0,0-.67-.39,27.18,27.18,0,0,1,6.44-4.7c3.64-1.58,6.75-3.73,10.11-5.59l.1-.06a39.43,39.43,0,0,0,13.95-13c4-6.12,5.74-12.94,6.38-20.16.08-.9.11-10.8-.14-10.71,9.24-3.35,11.48-13.61,10.48-22.32a81.85,81.85,0,0,0-4.32-18.61c-.95-2.63-2.25-5.06-3.4-7.58-1.36-3-2.69-6-4.11-9-5.75-12-9.72-21.73-18.59-31.07-2-2.07-4.19-4.7-6.62-6.22-5-3.16-10.29-3.34-15.61-1.4a5.1,5.1,0,0,1-3.78-.15l-2.06-.91a53.44,53.44,0,0,0-22.9-4.59l-.42,0a43.57,43.57,0,0,0-18.46,5,66.77,66.77,0,0,0-12.43,8.29c-5.41,4.62-9.05,11.2-12.07,17.55-4.26,9-9,17.76-16.77,24.37a35.48,35.48,0,0,1-17.25,7.77c-9.38,1.52-17.85,4.33-25.73,9.64-10.17,6.85-16.68,18-19.81,29.73-.68,2.54-1.93,3.27-3.83,4.91a39.21,39.21,0,0,0-5.44,5.79c-3,3.89-4.17,8.36-4.5,13.14a15.6,15.6,0,0,0-.11,2.64c.48,4.92-1.8,9.14-3.53,13.46a43.12,43.12,0,0,0-2.72,8,33.06,33.06,0,0,0-.49,8.79,17.71,17.71,0,0,0,3.45,9.24c3.61,4.7,7.41,4.61,7.41,4.61C55.25,247.66,75,249.7,75,249.7c4.76.34,9,2.62,13.31,4.55,3.62,1.65,7.24,3.33,10.73,5.23a30.49,30.49,0,0,1,4,2.67A24.18,24.18,0,0,0,116,266.94a22.9,22.9,0,0,0,2.87,0,8,8,0,0,1,3.9.51c1.31.63,2.2,1.65,3.6,2.16a17.73,17.73,0,0,0,7.78.94,53.63,53.63,0,0,0,11.28-2.64,72,72,0,0,0,20.23-9.68c1.56-1.1,3-2.34,4.46-3.5,1.68-1.3,1.3-1,2.22-1.75l.06,0a18.55,18.55,0,0,0,7.1,1.33,22.75,22.75,0,0,0,2.48-.12c-2,.7-4.08,1.52-4.49,1.76-10.26,6-17.85,17.85-14.75,29.87a24.46,24.46,0,0,0,2.58,6.26c2.57,4.45,7.27,7.64,11.41,10.25,3.06,1.93,5.41,3.89,5.56,7.89.12,3.33.82,6.65,1.26,10l-.41,0a.68.68,0,0,0-.71.41,3.68,3.68,0,0,0-.16,1.53,38,38,0,0,0,3,11.68,7.8,7.8,0,0,0,1.14,1.9c2.07,2.51,4.35,2.06,4.91-.84.11-.62.1-1.27.18-2.21,2.84,2.2,5.76,3.41,9,1,.37,3.88.91,7.55,1,11.23.16,6,0,12.05,0,18.07,0,1-.22,1.54-1.24,1.81a1.6,1.6,0,0,0-1.31,2.05c.32,2.22.36,4.48.52,6.73a13.1,13.1,0,0,1-1.74,7.6c-1.66,2.92-3,5.94-1.84,9.48.79,2.29,2,3.08,4.33,2.48,3-.77,5.19-2.86,7.17-5.12,2.45-2.79,4.05-5.86,3.39-9.77a3.54,3.54,0,0,1,.72-2.07s2.67-3.64,4-4.57c1-.57.77-1.64.69-2.7a3.78,3.78,0,0,1,.28-2A68.59,68.59,0,0,0,224.39,345a31,31,0,0,0-.79-12.95,15.61,15.61,0,0,1,.27-7.68c1.71-6.55,3.2-13.13,2.81-20a3.05,3.05,0,0,1,.91-2,30.81,30.81,0,0,1,15.56-8.35,25,25,0,0,0,5.65-2c5.56-2.82,6.52-7.31,2.74-12.27-4.21-5.52-9.56-9.8-15.19-13.76l-2.95-2,13.42-1.76-.61-1.15-.47-.87c1.24-.07,2-.32,3.58-.37.49,0,1.68.12,2.17.13a19.6,19.6,0,0,0,2.95-.34l2.45-.35,4.22-.6.56-.08c.37-.07.58-.27.59-.54a.8.8,0,0,0-.12-.41,3.31,3.31,0,0,0-.3-.5l5.71-.51a1.23,1.23,0,0,0,1.05-.76,11.1,11.1,0,0,0,0-7.76A4,4,0,0,0,265.77,245.57Zm-16.86,2.29a23.46,23.46,0,0,1,8.2-2.23,25,25,0,0,1,8.46.7,3.18,3.18,0,0,1,.94.42c-9.42,2.82-16.23,1.9-18.22,1.52A3.33,3.33,0,0,1,248.91,247.86ZM161.39,133.65c-3.25,3-6.33,6.27-9.37,9.43-1.89,2-3.71,4-5.41,6.15-3.84,4.83-14,15.66-29.56,18.23-4.86,1.1-9.87,1.63-14.66,3-10.64,2.94-20,8.22-27.31,16.65-.78.9-2.27,2.86-3,3.8a6.23,6.23,0,0,1,.31-1.51A5.54,5.54,0,0,1,73,188c4.07-7.55,9.4-14.46,16.9-18.87A48.36,48.36,0,0,1,102.16,164c3.48-.9,7-1.47,10.55-2.27a62.78,62.78,0,0,0,10.23-3.36c7.31-3,13.41-9,17.36-15.82,3.93-6.66,7.59-13.48,11.55-20.12,2.58-4.34,5.48-8.49,9.48-11.7a61.39,61.39,0,0,1,13.38-7.87c9.26-4.19,18.83-5.31,28.61-2.39,4,1.18,7.69,3.13,11.51,4.77a2,2,0,0,0,2.1-.08,15.18,15.18,0,0,1,4.72-1.77c6.21-1,11.2,1.8,15.62,5.65,6.17,5.4,10.53,12.28,14.34,19.4,3.43,6.42,6.2,13.18,9.27,19.79L266,159s9.29,22.25-.89,34.24a15.66,15.66,0,0,1-4.81,4.39c-1-8.26-1.94-16.23-2.89-24.21a2.87,2.87,0,0,0-.26,1.56q1.11,13.23,2.23,26.48c.94,10.93-1.31,21-7.73,30.06-2.53,3.55-5.34,6.84-9.32,9-4.8,2.6-9.56,5.3-14.2,8.19a28.18,28.18,0,0,0-4.38,4,13.79,13.79,0,0,1-2.55-2.72l-2.84-3.34a1.84,1.84,0,0,1,.59-1,3.41,3.41,0,0,0,.35-4.19,52.48,52.48,0,0,0,9.82-8.78,28.27,28.27,0,0,0,7.05-3.07c5.28-3.72,6.9-9.72,8.09-15.6a27.49,27.49,0,0,1,3.78-9.44c1.22-1.9,2.54-3.73,3.68-5.67,1.24-2.13,2.3-4.36,3.44-6.54,1.2,5.88.75,11.88.38,17.89a4.11,4.11,0,0,0,.61-1.34c1.8-6.1,1.19-12.2.12-18.32a95.12,95.12,0,0,0-4.28-16l0-.14q-1.46-4-3.25-7.76a142.32,142.32,0,0,0-6.65-12.8,54.48,54.48,0,0,0-9.15-11.92,19.22,19.22,0,0,0-6.14-4.06,34.22,34.22,0,0,1-1.16,5.1c-2.06,6.32-4.38,12.29-8,17.67a.59.59,0,0,0,0,.08,37.54,37.54,0,0,1-10.76,12.05,21.09,21.09,0,0,1-7.78,3.55c8.79-9.72,15.62-20.62,18.44-33.79a93,93,0,0,1-28,25.83,52.66,52.66,0,0,1-17,5.56,40.19,40.19,0,0,1-7.84.54,22.16,22.16,0,0,1-6.42-1.64,42.53,42.53,0,0,0,14.52-7.57A51,51,0,0,0,184,153.1c-5.7,5.63-11.27,11.39-18.5,15.26a143.42,143.42,0,0,1,7.39-12.44c2.71-4,5.63-7.89,8.6-11.71s6-7.38,9.07-11.06c-6.94,6.36-13.37,13.2-18.47,21.17a117.08,117.08,0,0,0-7.5,13.09c-.95,2-2,3.25-4,3.64-2.4.46-4.82.78-7.48,1.2l8.09,2.89c-.71,2.05-1.48,4-2.1,6.06-1.33,4.3-2.34,8.7-3.91,12.9a39.16,39.16,0,0,1-8.93,14.52c-2.75,2.71-5.25,5.68-7.73,8.65a33.79,33.79,0,0,0-6.66,12.12s-2.52-12.52,3.74-20.77c2.16-3.14,3-4.22,4.55-6.14s2.82-3.61,4.12-5.49l4.7-6.76c-4.28,4.78-10.16,12.06-14.21,17a23.8,23.8,0,0,1-4.37,4.48S109,225.1,103.76,231.64l.86-2.35c3-7.95,7.09-15.09,14.26-20,5.19-3.58,10.53-6.95,15.74-10.49a35.61,35.61,0,0,0,11.59-12.74A105.12,105.12,0,0,0,151.69,173c2.15-5.89,4-11.91,8.1-16.83,2.08-2.47,4.35-4.77,6.49-7.19,2.83-3.21,3.45-4,6.25-7.19-.1-.1,4.84-5.95,4.74-6.05-.48.46-3.87,4.14-4.29,4.65a89.73,89.73,0,0,1-9.25,9.35,40.91,40.91,0,0,0-12,18.83c-.52,1.69-1.13,3.34-1.73,5a4.89,4.89,0,0,0-2.48-1.38s-.54-.13-.54-.15c1.54-4.17,3.58-8.11,5.08-12.16h0l.7-1.92a19.42,19.42,0,0,0-1.79,3c-1.47,3.36-2.9,6.74-4.4,10.1a2,2,0,0,1-1,1c-2.72.83-4,2.51-4.47,5.3-.17,1-.27,2.83-.87,3.59,0,0-4.76,6.31-21,9.55-9.68,1.69-48.56,8.59-50.7,10.23a28.21,28.21,0,0,1,5.71-10.18c4.79-5.68,6.39-7.57,11.88-11.23a52.49,52.49,0,0,1,20.61-9c4.55-.91,9.16-1.54,13.73-2.39,7.64-2.11,14.41-5,20.29-10.45,4.73-5,9.46-10.05,14.09-15.18,6.06-6.71,12.35-13.14,20-18.08.68-.45,1.3-1,1.95-1.49A73.2,73.2,0,0,0,161.39,133.65Zm56.28,115.21a4.71,4.71,0,0,1-2.06,5.62c-.87-7.25-3.29-13.84-8.46-19.54a14.82,14.82,0,0,1,2.16-1.51,1.62,1.62,0,0,1,1.5.21,3.06,3.06,0,0,0,3.61,1.14c.64-.17,1.69.5,2.28,1.07.25.24-.06,1.34-.41,1.85-1,1.47-.76,2.37,1,3a4.58,4.58,0,0,1,1.1.43c1,.71,1.39,3.16.26,3.82C216.9,246,217,247.22,217.67,248.86Zm-29.76-1.36c-1.7-1.21-1.71-1.41,0-2.85,1-.89,1.57-1.84.75-3.18-1.1-1.79-.74-2.91,1.29-3.45,1.7-.44,2.52-1,1.71-2.93a2.11,2.11,0,0,1,.58-1.89c.32-.27,1.26,0,1.83.22,1.26.55,1.26,1.42,1.17,2.85a44.14,44.14,0,0,1-2.49,13.2,14.08,14.08,0,0,1-3.94,6.15,10,10,0,0,0-1.31-1.72c-1.54-1.23-1.46-2.82.26-3.86A1.45,1.45,0,0,0,187.91,247.5Zm-13.56-17.38c-.2-1.4,1.43-5.46,3.08-3.88,1.41,1.55,3.71,4.69-.16,4.39.76-1.19,1.47-1.64-.21-2.35-1-2.14-1.25-.31-1.46.89,0,.6.63.37.93.18l.12.1c-2.3,4,3.7,1.89,5.13.44,2.19-2.56,1.65-3.79.05-6.51-.29-3.3.24-7.37.27-9.76a.22.22,0,0,1,.39-.14c2.52,3-1.34,11.09,2,11-1.13,1.47.62,5.12-.41,5.73a.35.35,0,0,0-.11.62c3.32,3.1.36-4.72,1.57-6.1,2.25,11.61,1.87,6.74-4.39,13.86l-6.42-1.83C175.56,235.63,174.37,231.16,174.35,230.12Zm7.37-41.48a17.73,17.73,0,0,1,8.22,3.61,4.82,4.82,0,0,1-.2,1.84,17.67,17.67,0,0,1-5.85,9.44c-3.77,3.15-7.15,2.68-9.92-1.39-2-2.87-2.64-6.16-3-9.55a3.36,3.36,0,0,1,0-1.09,16.28,16.28,0,0,1,3.84-2.1,2,2,0,0,1,.5-.19h0a1.63,1.63,0,0,1,.31,0,1.72,1.72,0,0,1,0,3.44,1.8,1.8,0,0,1-.66-.13c.23,2.83,1.78,5,3.67,5s3.7-2.57,3.7-5.75A8.21,8.21,0,0,0,181.72,188.64Zm-3.65-2.17c-.62,1.2-2.54,1.44-4.29.54s-2.66-2.61-2-3.81,2.54-1.44,4.29-.54S178.69,185.27,178.07,186.47Zm-7.58-7.27c-1.94,7.92-1.64,15.67,2.23,23,2.77,5.24,8,5.95,12.31,1.78,4.92-4.8,6.36-10.85,5.83-17.49-.16-1.92-.49-3.82-.77-5.95,4.78,2.1,8.7,8.84,8.7,8.84-.09-.79-1.29-4.77-1.42-5.92a8.78,8.78,0,0,1,3.76,4.49,18.94,18.94,0,0,0-8.94-12.38,21.86,21.86,0,0,0-10.34-3.34,39.25,39.25,0,0,0,10.39-4.4,13.17,13.17,0,0,1,1.86.53c.68.25,1.33.56,2,.87a8.84,8.84,0,0,0,2.08.88c.08,0-.33-.76-.36-.8a5.92,5.92,0,0,0-.68-.82,7.63,7.63,0,0,0-1.73-1.25,10.49,10.49,0,0,0-1.28-.55,65,65,0,0,0,9.4-7.27c2.13-1.91,4.24-3.83,6.29-5.82,1.82-1.78,3.75-4.69,5.73-7a80.88,80.88,0,0,1-7.86,16.9c-3.13,4.85-6.22,9.75-11.11,13.62a11,11,0,0,0,4.56-.83,31.3,31.3,0,0,0,4.83-2.18,33.54,33.54,0,0,0,7.72-6.22,46.7,46.7,0,0,0,5.24-6.89A61.45,61.45,0,0,0,227,143.54c.09-.36,1.1-4.13.75-4.26a15.19,15.19,0,0,1,2.19,1.58,55.44,55.44,0,0,1,10.24,11.29A113.53,113.53,0,0,1,255,186.55a4.39,4.39,0,0,1,0,2.13,29.37,29.37,0,0,1-5,10,35.62,35.62,0,0,0-5.86,11.43c-.82,3.06-1.69,6.12-2.64,9.15A15.5,15.5,0,0,1,231.27,230c-5.09,1.74-10.28,1.42-15.41.71-8.14-1.12-16.24-2.53-24.32-4-1.42-.26-2.82-.56-4.21-.87a4,4,0,0,1,1-1.5c1.52-2.79,6-6.2,5.33-9.52a1.35,1.35,0,0,0-2.25-.75c-2.22,2-4.75,8.46-7.17,9.32-.64-2.86.95-5-.16-8.59a19.49,19.49,0,0,0-.66-1.87,1.3,1.3,0,0,0-2.46.36c-.41,2.58.57,6.57-.26,8.94-.9-.55-2,0-3.1.87a80.35,80.35,0,0,1-13-5.83c-4.36-2.48-8-5.67-9.27-10.84-.36-1.42-1.07-2.74-1.45-4.15a3,3,0,0,1,.13-2.08,51,51,0,0,0,6.15-14.69c.81-3.38,1.75-6.72,2.61-10.09a2.25,2.25,0,0,1,.23-.56,25.09,25.09,0,0,0,3.49.33s3.85-.18,6.49-.63C173,174.6,171.21,175.63,170.49,179.2Zm45.93,55.23c-.28-.24-1.33-.88-1.59-1.09,3.28-.17,7.25.1,10.78-.08.59-.06,1.17-.15,1.75-.26a80.73,80.73,0,0,1-8.38,7.94,3.19,3.19,0,0,0-1.27-.83l-.09,0c-1.21-.45-1-1.07-.54-1.91C218.1,236.44,218,235.71,216.42,234.43Zm-9.93,3.13a15,15,0,0,1-9.53-.27c.75-1.8,1.4-3.38,1.9-4.59,1.73.45,3.42.88,5.1,1.34a.82.82,0,0,1,.43.35C205.08,235.41,205.75,236.44,206.49,237.56Zm-19.66-12.72c-.08-.56-.33-1.58-1-1.33,2.56-2.37,4.11-5.6,6.1-8.42a.51.51,0,0,1,.92.27,3.57,3.57,0,0,1-.82,2.25C190.33,220,188.55,222.45,186.83,224.84Zm-7,1.31c.32-1.38-.6-1-1.2-.26-1.08-.91-1.35-.87-.19-2,1.28-2.29,2.59.11,3.31,1.6,1.1,1.49-.42,2.82-1.14,4.08a14.9,14.9,0,0,0-.8-2.24C181,227,182.11,225.71,179.79,226.15Zm2.09,12.59c1.05-1.75,2.86-2.54,4.37-3.84,2.45-2,1.17-4.4.89-6.8l.26.09c2,.61,4,1,6,1.51.77.19,1.55.32,2.72.56-1.12,1-1.39,2.27-3.12,1.92a1.81,1.81,0,0,0-2.14,2.25c.66,2.5-1.2,2.84-2.77,3.59a4.88,4.88,0,0,0-.81.56c-2.37,2.07-3.07,2.72-5.21,4.59a1.45,1.45,0,0,1-.68-.66c-.31-.73,0-1.87.95-3.3l.19-.29Zm3.08,3.64a2.68,2.68,0,0,1,1.22-.76c.53-.05,1.37.08,1.56.42s-.1,1.12-.36,1.6a1.07,1.07,0,0,1-.33.34,15,15,0,0,1-3.63-.31Zm9.8,4.83c.93-3,1.16-6.14,1.69-9.18a15.25,15.25,0,0,0,11.64-.08c3.82,5.41,6.7,14.08,5.9,18-1.52-.29-2.9-.16-3.38,1.74-.06.23-.64.42-1,.48-3,.5-6,1.05-9,1.39-1.45.16-2.9,0-3.54-1.85a1.66,1.66,0,0,0-2.39-1.05c-1.76.92-2.95-.06-3.92-.73C192.17,253,193.81,250.19,194.76,247.21Zm-47.69-71.05a2,2,0,0,0-.56.38,4,4,0,0,0-.8,1.15,6.49,6.49,0,0,0-.75,3.45,6.15,6.15,0,0,0,.38,1.75,3,3,0,0,1-.46,3,.84.84,0,0,1-.67.36.08.08,0,0,1-.07,0l-2.06-5.15a10.38,10.38,0,0,1,.41-5.28,4.56,4.56,0,0,1,2.15-2.69,4.36,4.36,0,0,1,2.55-.49,4,4,0,0,1,2.72,1.55.74.74,0,0,1,.12.74l-3,7.41a.4.4,0,0,1-.67-.05,6.91,6.91,0,0,1,1.48-5.86C148.27,175.77,147.44,176,147.07,176.16Zm-22.23,13.93a38.54,38.54,0,0,1-5,3.88c-6.5,4.15-13.78,5.64-21.36,6-9.2.44-18.49-1-27.68,1.25a24.43,24.43,0,0,1,6.9-2C104.3,195.17,124.84,190.09,124.84,190.09Zm-64.55,20.5c2.75-3.68,5.79-7.12,10.66-8a80.63,80.63,0,0,1,9.86-1.38c7.67-.35,15.4-.06,23-.71,8.44-.73,16-3.87,22-10.27a4.87,4.87,0,0,1,1.26-.9c9.62-3.24,13-7,14-8.59.76,2,1.6,4.12,2.38,6.29a1.32,1.32,0,0,1-.25,1,50.48,50.48,0,0,1-11.51,10.61c-3.64,2.48-7.37,4.83-11,7.29-2.3,1.55-4.39,3.52-6.86,4.72a31.33,31.33,0,0,1-11.18,2.85c-5.13.42-10.29,0-15.43.33A83.42,83.42,0,0,0,72.31,216a35.59,35.59,0,0,0-14.91,7.7l-.15.13c-.36.31-2.38,1.65-2.35,2a7.47,7.47,0,0,1,0-.94C55,219.49,57.13,214.81,60.29,210.59ZM51,240.33c.37-1.09.75-2.18,1.16-3.27A49,49,0,0,1,55,230.74,24.62,24.62,0,0,1,62,222.45c3.48-2.54,7.5-3.39,11.6-4.34a105.39,105.39,0,0,1,18.89-2.44c2.33-.1,4.66-.13,7-.14a29.81,29.81,0,0,0,9.95-1.7,26.42,26.42,0,0,0,4-1.79c-1.22,1.62-2.32,2.93-3.25,4.35-4.39,6.67-6,11.49-8.3,19l5.59-5.9a54.78,54.78,0,0,1,8.27-6.86c5.2-3.79,10.73-7.13,16.47-10.9-5.29,12.29.06,20.89.06,20.89a47.15,47.15,0,0,1,10.46-18.51c2.22-2.33,4.39-4.7,6.41-7.2l3.6-4.45a21.63,21.63,0,0,0,3.64,9.32c1.11,1.59.79,2.4,0,4a69.75,69.75,0,0,1-9.79,14.41A60.58,60.58,0,0,1,130,243c-6.13,3.36-12.55,6-19.62,6.32a42.64,42.64,0,0,1-15.63-2.43,125.77,125.77,0,0,1-18.4-8.32,18.07,18.07,0,0,0-11.55-2.35c-5.51.82-11,3-14.77,7.09C50.57,242.78,50.79,241.08,51,240.33Zm48.65,17.93-.21-.08a79.63,79.63,0,0,1-10.65-5.53,32.19,32.19,0,0,0-10.23-4.09c-5.15-.94-11.16-.76-15.75,1.89a15.69,15.69,0,0,0-4.68,4.14,15,15,0,0,0-2.72,5.82,15.71,15.71,0,0,0-.37,3.42c0,.65-.19,3.19.31,3.62,0,0-8.25-6.12-7.09-15.84a14.91,14.91,0,0,1,8.32-11.5c5.59-2.77,13.45-4.12,19.47-.65,7.37,4.25,15,7.91,23.3,9.86a37.53,37.53,0,0,0,18.27.1c5-1.34,10-4.07,14.47-6.68a67,67,0,0,0,14.5-11.22c4.58-4.71,7.9-10.31,10.88-16.12.51-1,.84-1.32,1.72-.34a15.53,15.53,0,0,0,2.55,2.31c2.31,1.67,4.68,3.24,7.14,4.92,0,0-8.87,17.31-36.33,33.19A38.32,38.32,0,0,1,99.69,258.26Zm21.76,6.88a37.84,37.84,0,0,1-12.8-1,6.44,6.44,0,0,1-4.36-3.26,44.45,44.45,0,0,0,9.06,1.63,25,25,0,0,0,11.77-1.88c32.28-13.49,45.35-37.83,45.35-37.83a.92.92,0,0,1,.46.08l3.48,1.27S163.77,239,135.49,259.62a29.13,29.13,0,0,1-7.74,4.13A28.58,28.58,0,0,1,121.45,265.14ZM169.28,254c-2.44,1.8-14.23,10.31-28.8,13.74l-.92.29c-5,1-10.57,1.17-15-1.46,19-7.06,41.87-31,49.3-39.11l-.18.26c-1.23,3,1.07,5.7.26,8.74l-.7-.19-.1.31c0,.13-.1.26-.16.4-.83,1.78-1.7,3.68-2.55,5.62l-.81,2.21c-.16.57-1.31,5.12,1.63,7.5Zm3.72-2.33c-3.41-1.59-2-6.3-1.93-6.47l.23-.5q1.06-2.33,2.16-4.64a21.4,21.4,0,0,0,1.07-2.66l6.28,1.78c-.86,1.52-1.08,2.81-.65,3.82.63,1.49,2.48,2.22,5.63,2.22h0a2.22,2.22,0,0,0,1.39,3.06l.66.28c0,.15.07.3.11.45-2,.35-2.6,1.42-2.63,2.75A17.3,17.3,0,0,1,173,251.69Zm12.24,69,4,9.47C185.81,327.9,185.88,324.14,185.24,320.68Zm14.16,12.07c-2.06,1.46-3.74,1.6-5.57-.13-1.64-1.56-3.46-3.3-4.22-5.33-2.5-6.69-4.57-13.55-6.8-20.35-.22-.51-.12-.26-.31-.74,7.22,4.28,15.55,7.72,24.34,7.27a31.75,31.75,0,0,1-2.75,12.83A14.85,14.85,0,0,1,199.4,332.75Zm15.41,38.74-.24.28-.51.59-1,1.17c-.36.42-.72.83-1.07,1.26a18.3,18.3,0,0,0-1.67,2.16c-1,1.48-1.33,3.39-2.41,4.75a13,13,0,0,1-4.34,3.56c-2.67,1.26-4.54-.3-4.21-3.21a11,11,0,0,1,.48-1.83c.3-1,.71-2,.91-3.08a18,18,0,0,0-.7-9.73.57.57,0,0,1,.53-.78h.36a.63.63,0,0,1,.61.48c.46,1.87.9,3.64,1.33,5.4.13-1-.2-1.91,0-2.76s.82-2.19,1.3-2.21c1.3-.06.68,1.14.68,1.89v4l.46-2.73a.66.66,0,0,1,.84-.52l.51.15a1.1,1.1,0,0,1,.79,1.06v1.44a8.63,8.63,0,0,0,.62-2.38c.15-1.2.52-1.75,1.21-1.66a1.38,1.38,0,0,1,1,1.84c-.06.16-.11.32-.17.49-.21.56-.59,1.6-.74,2.17l1.51-2.85a.37.37,0,0,0,.36.39,1.25,1.25,0,0,0,.26-.07,6,6,0,0,1,1.1-.31,3.88,3.88,0,0,1,2.13.2.47.47,0,0,1,.24.18.45.45,0,0,1,0,.3A.83.83,0,0,1,214.81,371.49Zm10.36-61c-.77,4.62-1.73,9.22-2.74,13.79-.67,3-1.1,6-.25,9a28.29,28.29,0,0,1-.25,16.65c-1.77,5.47-4.14,10.74-6.07,16.16a6.62,6.62,0,0,1-4,4.06,2.69,2.69,0,0,0-4.64-1.17c-.7.71-1.21.36-1.47-.4-.71-2-1-2.16-3.05-1.36.23-3.53.52-7,.68-10.54.34-7.61-.53-15.15-1.48-22.69a3,3,0,0,1,.6-1.8,46.62,46.62,0,0,0,2.89-4.19,24.76,24.76,0,0,0,3-13,2.1,2.1,0,0,1,1.71-2.49,44.72,44.72,0,0,0,6.3-2.79c3-1.6,5.91-3.38,8.88-5.1A37,37,0,0,1,225.17,310.49Zm13.14-41.58c1.45,1,2.85,2.15,4.22,3.3,3.4,2.87,6.83,5.8,8.95,9.82a8.64,8.64,0,0,1,1.1,4.17c-.12,2.73-3.77,4.57-6,5.55L235.7,277.32l9.63,14.95-3.22.78-6.34-7.59a44.59,44.59,0,0,0,5.24,7.91c-6.49,1.93-9.57,4.4-13.43,7.63a65.15,65.15,0,0,1-13.07,8.07c-2.95,1.49-6.11,3.06-9.42,3,0,0-8.81-.41-14.14-3.47l5.72-22.6-7.24,21.94s-9.72-3.75-14.88-8.55l2.37-4.67-3.2,3.85a12,12,0,0,1-3.6-2.9l6.18-10.45-7.13,9.73a10.17,10.17,0,0,1-2.8-3.51c-.41-.59-9.4-14.16,4.63-28.3l.32-.27c4.53-3.94,8.94-7.31,15.73-8.12l-11.42,8.69a33.32,33.32,0,0,0,10.42-6.5,2.63,2.63,0,0,1,3.38-.17l2.26,1.73a1.64,1.64,0,0,1,.48,2c-3.84,7.61-10.2,14.67-16.34,20.52,6.84-4.3,11.72-10.35,15.56-17.33l3.39-5.25a.9.9,0,0,1,1.66.33.88.88,0,0,1,0,.23c-1.2,6.79-4.39,14-7.55,20.11l2.38-3.28a30.82,30.82,0,0,0,3.14-5.42,61.3,61.3,0,0,0,3-9,.38.38,0,0,1,.75.16A100.73,100.73,0,0,0,197,275.32l1.58-10.13a17.52,17.52,0,0,0,.22-2.8c0-.85.07-1.1,1.26-1.22,1.71-.17,2.89-.46,4.38-.59,1.07-.11,1.77-.21,2.21-.27a.75.75,0,0,1,.81.43c1.07,2.33,5.4,11.65,7.38,15l-6.48-15.55a.39.39,0,0,1,.27-.5l2.28-.83a.52.52,0,0,1,.59.19c4.36,6.43,9.05,14.14,13.34,20.48l-12.4-20.78a1,1,0,0,1,1-1.4,3.88,3.88,0,0,1,.49.11c.33.1.59.5.86.77,2.9,2.92,5.79,5.85,8.71,8.75,2.19,2.16,4.43,4.27,6.64,6.41l-5.81-6.67-6.15-6.33-1.5-1.56c-.21-.21-.72-.8-1.14-1.28a.78.78,0,0,1,.1-1.1l.34-.28c.26-.21.57-.11.9-.05,2.48.75,14.73,8.35,14.73,8.35C233.92,265.89,236.15,267.35,238.31,268.91Zm-3.5-6.07a7.1,7.1,0,0,1-3.74-.3c-4.79-2.31-9.48-4.84-14.26-7.32,1.59-2,3.13-4.17,1.83-7.13l2,2.35a18.09,18.09,0,0,0,2.9,3.26,5.23,5.23,0,0,0,3.77.67c.54-.06,1.07-.11,1.61-.12a44.58,44.58,0,0,1,9.62.94A7.35,7.35,0,0,0,242,255l3.55,6.61Zm21.74-4.14c-.77.1-1.53.18-2.3.3a22.46,22.46,0,0,1-2.71.3c-.72,0-1.41-.1-2.13-.14-1.22-.08-2.57.29-3.8.28h-.3l-1.6-3a77.13,77.13,0,0,1,8.76.91l.3.05a21.2,21.2,0,0,0,4.63.39h.23a1.45,1.45,0,0,1,.55.09,1,1,0,0,1,.42.48Zm2.68-.42a.2.2,0,0,0,0-.08,2.77,2.77,0,0,0-.49-.75l1.14-.1.73,0a1.46,1.46,0,0,1,.55.07,1.11,1.11,0,0,1,.46.51Zm8.65-2.68a.49.49,0,0,1-.4.29L254.64,257a13.38,13.38,0,0,1-1.34-.18l-1.43-.29A36.37,36.37,0,0,0,247,256a10.51,10.51,0,0,1,.34-6.37,3.29,3.29,0,0,1,.64-1.08,32.68,32.68,0,0,0,9.36.36,47.8,47.8,0,0,0,9.6-1.91,3.36,3.36,0,0,1,.92,1.36A10.29,10.29,0,0,1,267.88,255.6Z"/><path class="cls-4" d="M208.81,249.39l-.06,0a2.28,2.28,0,0,0-.57-.1l-.81-.08-.24,0c-.07,0-.07,0,0-.09.16-.22.33-.43.48-.65s.16-.28.24-.42a.1.1,0,0,1,.11-.06c.19,0,.39.07.58.13a3.13,3.13,0,0,1,.54.23,5.15,5.15,0,0,1,.58.37,4.11,4.11,0,0,1,.67.71c.15.18.29.37.43.55a.65.65,0,0,1,0,.75,1.06,1.06,0,0,1-.45.33,2.72,2.72,0,0,0-.58.37,2.74,2.74,0,0,1-1.87.55c-.06,0-.07,0,0-.08l.12-.19a.06.06,0,0,0,0-.09,1.06,1.06,0,0,1-.62-.64c0-.06-.05-.11-.08-.18a1.22,1.22,0,0,1,.33,0,3.43,3.43,0,0,0,.71.08l.3,0s0,0,.05,0l-.05,0a1.07,1.07,0,0,0-.47-.14,3,3,0,0,1-.73-.14l0,0,0,0,.43-.07.25,0,.05,0-.27-.12a2.44,2.44,0,0,0-.6-.11.41.41,0,0,1-.18-.05.22.22,0,0,1-.12-.22.21.21,0,0,1,.16-.18,1.6,1.6,0,0,1,.75-.09,3.24,3.24,0,0,0,.88,0h.17Z"/><path class="cls-4" d="M206.44,247.46a2,2,0,0,1-.44.53h0a.68.68,0,0,1,0-.14c0-.12.08-.25.13-.37s0-.07,0-.06l-.08.05-.34.42c0,.07-.12.13-.18.2h0s0,0,0-.07a2.11,2.11,0,0,0-.08-.75,5.8,5.8,0,0,0-.19-.59c-.07-.2-.15-.38-.22-.57a.12.12,0,0,1,0-.09,2.53,2.53,0,0,1,.79-.56,2.81,2.81,0,0,1,1.37-.25c.21,0,.42.06.62.09l.31.05h.08c.11,0,.12,0,.1.14s-.09.49-.16.73-.19.65-.3,1a5.3,5.3,0,0,1-.28.65c-.15.26-.31.5-.47.74a4.16,4.16,0,0,1-.6.66c-.07.07-.09.07-.16,0a1.22,1.22,0,0,0-.47-.3c-.07,0,0-.06,0-.1.12-.19.23-.39.35-.57a2.25,2.25,0,0,0,.33-.68v-.1Z"/><path class="cls-4" d="M201.85,252.89l.06-.08a2.81,2.81,0,0,1,.8-.81.19.19,0,0,1,.18,0s0,0,0,.06a.57.57,0,0,0,0,.29l0,0,.06-.17a.51.51,0,0,1,.09-.16.14.14,0,0,1,.1-.07l.62,0a1.3,1.3,0,0,1,.33.07c.11,0,.11,0,.08.14a1.18,1.18,0,0,1-.33.49,2,2,0,0,1-.45.3,3.17,3.17,0,0,0-.54.36,5.47,5.47,0,0,0-.5.47,5.62,5.62,0,0,0-.56.79,2.06,2.06,0,0,1-.55.59,2.34,2.34,0,0,1-.69.34c-.06,0-.09,0-.11,0a6,6,0,0,1-.18-.73,5.08,5.08,0,0,1-.06-1.23,2.89,2.89,0,0,1,.37-1.22c.11-.19.23-.37.35-.56l.08-.17a.06.06,0,0,1,.08-.05h0l.66.1c.1,0,.21,0,.31,0a.22.22,0,0,1,.11.05l.1.1s0,.07,0,.11-.2.28-.29.42a1.17,1.17,0,0,0-.18.58A.13.13,0,0,1,201.85,252.89Z"/><path class="cls-4" d="M204,253a1.84,1.84,0,0,0,.33.77h0c0-.07,0-.14,0-.21a2.16,2.16,0,0,1,0-.76.63.63,0,0,1,.13-.24h0c0,.12.08.23.11.34s.09.29.13.43.07.29.12.43a2,2,0,0,0,.29.61l.19.24.05.06h0a2.17,2.17,0,0,1-.07-.24c-.06-.2-.12-.4-.17-.6s-.09-.41-.13-.62a3.93,3.93,0,0,1-.06-.48.07.07,0,0,1,0-.06H205a.34.34,0,0,1,.16.21.9.9,0,0,0,.28.43h0a.08.08,0,0,0,0-.05,1.27,1.27,0,0,0-.15-.6,2,2,0,0,1-.12-.34s0,0,0-.05h0a2.79,2.79,0,0,0,.55.2,2.15,2.15,0,0,0,.8,0s.08,0,.1.06a2.56,2.56,0,0,1,0,.73,2.53,2.53,0,0,1-.21.76,2.42,2.42,0,0,0-.1.36c-.05.22-.1.44-.13.66a4.35,4.35,0,0,0,0,.51c0,.15,0,.3,0,.44s0,.07-.07,0a2.61,2.61,0,0,0-.56-.26l-.28-.07c-.13,0-.28-.06-.41-.11a3.91,3.91,0,0,1-.57-.31,2,2,0,0,1-.77-1,5.18,5.18,0,0,1-.17-.56l-.09-.27c0-.06,0-.09.05-.12l.38-.21Z"/><path class="cls-4" d="M202.08,248.92c0,.17,0,.17-.15.12a2.76,2.76,0,0,0-1-.14,5.09,5.09,0,0,0-.55,0,4.19,4.19,0,0,0-.63.19,2.15,2.15,0,0,0-.7.41.14.14,0,0,1-.16,0,2.91,2.91,0,0,1-.62-.35,1.94,1.94,0,0,1-.65-.82c-.05-.12-.09-.24-.13-.35a.1.1,0,0,1,0-.12,4,4,0,0,1,.87-.65,4.27,4.27,0,0,1,.91-.38c.23-.06.46-.1.7-.14a.07.07,0,0,1,.1,0v0a2.81,2.81,0,0,0,.37.83,3.34,3.34,0,0,0,.35.4,2.85,2.85,0,0,0,.75.49c.14.08.29.15.44.22A.13.13,0,0,1,202.08,248.92Z"/><path class="cls-4" d="M202.92,248.83l-.66-.27c-.25-.12-.51-.24-.75-.38a3.12,3.12,0,0,1-.56-.39,1.43,1.43,0,0,1-.43-.63c-.07-.23-.16-.45-.23-.68s-.1-.4-.15-.6l-.09-.44a2.23,2.23,0,0,1,0-.23c0-.21,0-.41-.07-.61s0-.08.07-.08l.41,0,.57.15a2.48,2.48,0,0,1,.37.17,3.62,3.62,0,0,1,.9.71c.11.11.2.22.31.32a.33.33,0,0,1,.08.34,2.31,2.31,0,0,0-.06.69.49.49,0,0,1,0,.12l-.1-.06-.15-.11,0,0,.38.73,0,0-.17-.11a8.21,8.21,0,0,1-.9-1l-.15-.18,0,0s0,.11.05.16a2,2,0,0,0,.7.93,2.39,2.39,0,0,1,.35.36.21.21,0,0,1,0,.11.09.09,0,0,1,0,0l-.05,0-.27-.2-.19-.11,0,0,0,.09a2.42,2.42,0,0,0,.27.36c.17.19.36.37.55.56l.07,0Z"/><path class="cls-4" d="M202.15,249.48a2.85,2.85,0,0,0-1.4.35,3.5,3.5,0,0,1,1.25,0l0,0-.78.29s-.05,0-.08.07l.1,0a1.08,1.08,0,0,0,.44,0,1.24,1.24,0,0,1,.47-.05.17.17,0,0,1,.1.06.1.1,0,0,1-.05.13l0,0,0,.09h.08a1.3,1.3,0,0,0,.68-.32l.07,0a1.69,1.69,0,0,1,0,.23,1,1,0,0,1-.34.72.8.8,0,0,1-.51.19,2.89,2.89,0,0,1-.88-.08,4.15,4.15,0,0,0-.87-.12,3.73,3.73,0,0,0-.75,0l-.56.11a2,2,0,0,1-.6,0s-.06,0,0-.06a2,2,0,0,1,.07-.26,2.16,2.16,0,0,1,.44-.78,2.5,2.5,0,0,1,1-.72,3,3,0,0,1,1.26-.21,3.08,3.08,0,0,1,.9.19l.13.07Z"/><path class="cls-4" d="M204.79,245.69l-.16-.33-.19-.45a2.06,2.06,0,0,1-.12-.35c0-.07,0-.09-.13-.08s-.13,0-.12-.12l0-.35a.29.29,0,0,0,0-.09L204,244a1.33,1.33,0,0,0-.23.59s0,0,0,0l-.31.2a.13.13,0,0,0,0-.06c0-.11,0-.22,0-.34a0,0,0,0,0,0-.05s0,0,0,0,0,0,0,0a1.83,1.83,0,0,0-.14.32,3.06,3.06,0,0,0,0,.32.56.56,0,0,1-.09.17,1.92,1.92,0,0,0-.29.5c0,.07-.05.07-.1,0l-.25-.25a.17.17,0,0,1,0-.18c.06-.21.11-.42.17-.62a4.63,4.63,0,0,1,.58-1.18,2.48,2.48,0,0,1,1.12-.88.13.13,0,0,1,.13,0,3,3,0,0,1,.6.51,2.78,2.78,0,0,1,.6,1.17c0,.22,0,.44.08.66v.1s0,.09-.06.11a3.54,3.54,0,0,0-.84.54Z"/><path class="cls-4" d="M206.3,252.23a4.44,4.44,0,0,1-.56-.08,1.66,1.66,0,0,1-.7-.38l-.17-.17s0-.06,0-.09a1.12,1.12,0,0,0,.31-.34.6.6,0,0,0,0-.67,2,2,0,0,1-.24-.46.59.59,0,0,1,0-.47,1.41,1.41,0,0,1,.18-.29.42.42,0,0,1,.36-.11,1,1,0,0,1,.54.22,1.29,1.29,0,0,1,.3.42c.09.18.18.37.28.55s.27.55.4.82a1.61,1.61,0,0,0,.35.43c.05,0,.05.06,0,.1a1.44,1.44,0,0,1-.58.4C206.64,252.17,206.46,252.19,206.3,252.23Z"/><path class="cls-4" d="M204.38,247.42l0,.24a.32.32,0,0,1,0,.09.1.1,0,0,1-.14,0h0a.47.47,0,0,1-.16-.31c0-.22-.05-.43-.08-.64l0-.14,0,0a.05.05,0,0,0,0,0,3.32,3.32,0,0,0,0,.55,2.79,2.79,0,0,0,.07.38.59.59,0,0,1,0,.13.14.14,0,0,1,0,.08.07.07,0,0,1-.08,0,.7.7,0,0,1-.11-.21c-.06-.14-.1-.29-.15-.43a.07.07,0,0,0-.05,0s0,0,0,0a.86.86,0,0,0-.05.39,1.08,1.08,0,0,0,.16.42s.05.07,0,.1a.08.08,0,0,1-.12,0,1.85,1.85,0,0,1-.35-.54,1.66,1.66,0,0,1-.14-.79,2.57,2.57,0,0,1,.15-.78,2,2,0,0,1,.34-.63,1.57,1.57,0,0,1,.58-.44c.09,0,.11,0,.15.06l.45,1c.09.22.18.44.26.67s.14.38.2.58a3.55,3.55,0,0,1,.09.47,2.8,2.8,0,0,1,0,.41,1.82,1.82,0,0,1-.13.57c0,.06-.06,0-.09,0a.78.78,0,0,1-.28-.41,3.47,3.47,0,0,1-.06-.45.94.94,0,0,0-.16-.4Z"/><path class="cls-4" d="M200.25,251.37h.36c.12,0,.15,0,.08.15l-.31.5a2.65,2.65,0,0,0-.23.48,5.72,5.72,0,0,0-.17.59.09.09,0,0,1-.12.08,1.37,1.37,0,0,1-.74-.32c-.11-.09-.21-.2-.33-.29a2.21,2.21,0,0,0-.36-.23.25.25,0,0,1-.15-.34.69.69,0,0,1,.24-.4.21.21,0,0,1,.11,0,3,3,0,0,0,.79-.1A2.58,2.58,0,0,1,200.25,251.37Z"/><path class="cls-4" d="M204.43,249.4a.33.33,0,0,1-.15.29l-.26.22a.28.28,0,0,1-.3.06.2.2,0,0,0-.11,0,.25.25,0,0,1-.25-.09,1,1,0,0,0-.4-.22c-.11-.05-.14-.08-.13-.17a.16.16,0,0,1,.15-.16.39.39,0,0,0,.31-.43.47.47,0,0,1,0-.17.2.2,0,0,1,.2-.18l.14,0h.25l.17,0a.15.15,0,0,1,.15.12l.21.62S204.43,249.36,204.43,249.4Z"/><path class="cls-4" d="M203.43,250.44a.43.43,0,0,1,.39.22,4.5,4.5,0,0,0,.27.43,2.7,2.7,0,0,0,.31.28.18.18,0,0,1,.06.18.16.16,0,0,1-.13.14.59.59,0,0,1-.23,0,1.17,1.17,0,0,0-.49-.05l-.66,0a1,1,0,0,1-.24,0l-.05,0a.06.06,0,0,1,0-.06,1.12,1.12,0,0,0,.4-.56c0-.14.09-.29.14-.43a.12.12,0,0,1,.1-.09Z"/><path class="cls-4" d="M204.08,250.41c.16,0,.29-.11.44-.1h0a.21.21,0,0,1,.14.15.68.68,0,0,1-.06.52.15.15,0,0,1-.21.06l0,0a.39.39,0,0,1-.13-.21.67.67,0,0,0-.17-.36S204.1,250.44,204.08,250.41Z"/><path class="cls-4" d="M173.84,277.92l-.05,0a1.6,1.6,0,0,0-.44,0h-.64l-.19,0c-.05,0-.05,0,0-.07l.43-.53a3.39,3.39,0,0,0,.23-.34s.06-.06.09-.05a3.59,3.59,0,0,1,.46.05,2.77,2.77,0,0,1,.41.12,3,3,0,0,1,.43.24,1.91,1.91,0,0,1,.47.47,4.68,4.68,0,0,1,.29.37.49.49,0,0,1-.1.56,1.24,1.24,0,0,1-.39.29,5.39,5.39,0,0,0-.5.33,3,3,0,0,1-.69.42,2.5,2.5,0,0,1-.83.19c-.05,0-.05,0,0-.05a.91.91,0,0,1,.11-.16s0-.06,0-.07a.59.59,0,0,1-.43-.43s0-.08,0-.13a1.14,1.14,0,0,1,.26,0,2.11,2.11,0,0,0,.56,0l.23-.05.05,0s0,0,0,0a.83.83,0,0,0-.36-.06,2.09,2.09,0,0,1-.56,0l0,0,0,0,.35-.09.2-.05,0,0-.2-.07a1.52,1.52,0,0,0-.48,0,.28.28,0,0,1-.13,0,.12.12,0,0,1-.08-.15.21.21,0,0,1,.14-.16,1.49,1.49,0,0,1,.61-.13,2.86,2.86,0,0,0,.7-.09l.14,0Z"/><path class="cls-4" d="M172.1,276.65a1.77,1.77,0,0,1-.39.43h0l0-.11c0-.1.09-.2.13-.29s0-.05,0,0a.1.1,0,0,0-.07,0c-.11.11-.2.23-.31.35a1.14,1.14,0,0,1-.15.16h0v-.05a1.61,1.61,0,0,0,0-.58c0-.15-.07-.3-.11-.44s-.09-.29-.13-.43a.06.06,0,0,1,0-.07,2.72,2.72,0,0,1,.69-.49,2.57,2.57,0,0,1,1.13-.27l.51,0h.3c.09,0,.1,0,.07.11s-.12.38-.19.56-.21.51-.33.76a3.63,3.63,0,0,1-.28.51c-.14.21-.29.41-.44.61a4.64,4.64,0,0,1-.53.56c-.06.05-.08.06-.13,0a.7.7,0,0,0-.35-.19c-.05,0,0,0,0-.08l.33-.47a2.54,2.54,0,0,0,.32-.55v-.08Z"/><path class="cls-4" d="M168.07,281.32l.06-.07a2.92,2.92,0,0,1,.67-.73.21.21,0,0,1,.15,0s0,0,0,.05a.36.36,0,0,0,0,.23,0,0,0,0,1,0,0l.06-.14a1,1,0,0,1,.08-.14.16.16,0,0,1,.08-.06c.17,0,.33-.07.5-.09a1.07,1.07,0,0,1,.25,0c.09,0,.09,0,0,.11a1.44,1.44,0,0,1-.29.42,2.66,2.66,0,0,1-.38.28,4.7,4.7,0,0,0-.44.34,5.66,5.66,0,0,0-.42.43,5.83,5.83,0,0,0-.49.7,2.36,2.36,0,0,1-.46.54,2.23,2.23,0,0,1-.56.36s-.06,0-.08,0a5.21,5.21,0,0,1-.09-.57,3.66,3.66,0,0,1,0-1,2.66,2.66,0,0,1,.36-1c.09-.16.2-.32.3-.49a.61.61,0,0,0,.07-.14.08.08,0,0,1,.07-.05h.52l.24,0,.08,0,.08.07s0,.05,0,.09-.18.24-.26.37a1.22,1.22,0,0,0-.17.47Z"/><path class="cls-4" d="M169.74,281.17a1.11,1.11,0,0,0,.21.56h0a1,1,0,0,0,0-.16,2,2,0,0,1,0-.59c0-.07.08-.13.12-.2h0l.06.25c0,.11.05.22.07.33s0,.21.06.31a1.09,1.09,0,0,0,.19.44l.12.17,0,0h0l0-.18-.09-.44c0-.15,0-.31,0-.47s0-.25,0-.37,0,0,0,0h0a.28.28,0,0,1,.11.15.49.49,0,0,0,.18.3h0s0,0,0-.05a.81.81,0,0,0-.07-.44,2.33,2.33,0,0,1-.07-.25.43.43,0,0,0,0-.05h0a1.43,1.43,0,0,0,.41.09,1.69,1.69,0,0,0,.63-.06s.07,0,.08,0a1.71,1.71,0,0,1,0,.55,2.38,2.38,0,0,1-.23.61,1.42,1.42,0,0,0-.1.29,5.16,5.16,0,0,0-.16.52c0,.13,0,.26,0,.39l0,.35s0,.05-.06,0a1.1,1.1,0,0,0-.41-.13,1.33,1.33,0,0,0-.21,0,1.45,1.45,0,0,1-.3,0,1.84,1.84,0,0,1-.43-.17,1.08,1.08,0,0,1-.52-.72c0-.13-.07-.28-.1-.42a1.46,1.46,0,0,0-.05-.2.08.08,0,0,1,.05-.1l.31-.21Z"/><path class="cls-4" d="M168.5,278.14c0,.13,0,.13-.13.11a2.19,2.19,0,0,0-.81,0,3.11,3.11,0,0,0-.44.08,4.71,4.71,0,0,0-.52.21,2.19,2.19,0,0,0-.58.39.11.11,0,0,1-.13,0,1.71,1.71,0,0,1-.47-.23,1.25,1.25,0,0,1-.49-.62c0-.09-.05-.19-.08-.28a.1.1,0,0,1,0-.1,4.23,4.23,0,0,1,.74-.6,3.49,3.49,0,0,1,.75-.37,5.36,5.36,0,0,1,.57-.17.06.06,0,0,1,.08,0h0a2,2,0,0,0,.25.65,2.35,2.35,0,0,0,.26.29,1.81,1.81,0,0,0,.57.33,2.44,2.44,0,0,0,.34.14A.09.09,0,0,1,168.5,278.14Z"/><path class="cls-4" d="M169.18,278l-.51-.15c-.2-.08-.39-.15-.58-.24a3.12,3.12,0,0,1-.43-.27.9.9,0,0,1-.3-.48c-.05-.18-.11-.35-.15-.53s-.06-.32-.09-.48,0-.23-.05-.35a1.1,1.1,0,0,1,0-.18l0-.49s0-.06.07-.06h.33a3.4,3.4,0,0,1,.46.09l.29.11a2.69,2.69,0,0,1,.69.51c.08.08.14.17.22.24s.08.16,0,.26a1.76,1.76,0,0,0-.09.55.36.36,0,0,1,0,.1l-.07,0-.12-.08,0,0,.26.55,0,0a.5.5,0,0,1-.12-.08,4.92,4.92,0,0,1-.67-.7l-.11-.13h0s0,.08,0,.13a1.29,1.29,0,0,0,.51.68,2.13,2.13,0,0,1,.26.26.16.16,0,0,1,0,.09l0,0h0l-.21-.14-.14-.07h0l0,.08a2.14,2.14,0,0,0,.19.26c.13.14.26.26.4.4l0,0Z"/><path class="cls-4" d="M168.52,278.58a2.61,2.61,0,0,0-1.14.4,2.91,2.91,0,0,1,1-.14l0,0-.64.3-.07.07.08,0a.84.84,0,0,0,.35-.07.87.87,0,0,1,.38-.08.08.08,0,0,1,.07,0s0,.08,0,.11l0,0a.25.25,0,0,0,0,.07h.07A1.32,1.32,0,0,0,169,279l.06,0a1.21,1.21,0,0,1,0,.19,1,1,0,0,1-.32.6.84.84,0,0,1-.42.21,2.6,2.6,0,0,1-.68,0,3.17,3.17,0,0,0-.69,0,2.94,2.94,0,0,0-.59.12l-.45.15a1.61,1.61,0,0,1-.48.08s0,0,0,0a1.55,1.55,0,0,1,.07-.23,2,2,0,0,1,.38-.67,2.53,2.53,0,0,1,.82-.68,2.56,2.56,0,0,1,1-.28,2.32,2.32,0,0,1,.7.07l.1.05Z"/><path class="cls-4" d="M170.9,275.39l-.1-.24c0-.12-.09-.23-.12-.35a2,2,0,0,1-.08-.26c0-.06,0-.07-.09-.06s-.12,0-.1-.08l.06-.28a.14.14,0,0,0,0-.07s0,0,0,.05a1.24,1.24,0,0,0-.24.47s0,0,0,0l-.26.18v0a2.56,2.56,0,0,1,.05-.27.08.08,0,0,0,0,0l0,0s0,0,0,0a2.15,2.15,0,0,0-.14.26c0,.08,0,.17-.06.25a.42.42,0,0,1-.09.14,2.07,2.07,0,0,0-.27.41c0,.06,0,.07-.08,0l-.18-.19a.14.14,0,0,1,0-.14c.06-.16.12-.33.19-.49a4,4,0,0,1,.55-1,2.34,2.34,0,0,1,1-.73.13.13,0,0,1,.12,0,1.82,1.82,0,0,1,.45.37,1.69,1.69,0,0,1,.4.88c0,.17,0,.34,0,.51a.2.2,0,0,1,0,.07.18.18,0,0,1-.06.09,3.3,3.3,0,0,0-.72.47Z"/><path class="cls-4" d="M171.61,280.33a3,3,0,0,1-.43,0,.85.85,0,0,1-.52-.22l-.12-.11s0-.05,0-.08a1.5,1.5,0,0,0,.27-.29.47.47,0,0,0,0-.52,1.24,1.24,0,0,1-.15-.33.52.52,0,0,1,.06-.38,2,2,0,0,1,.17-.23.38.38,0,0,1,.29-.12.74.74,0,0,1,.42.12.69.69,0,0,1,.2.3l.18.4c.09.19.17.39.26.58a.7.7,0,0,0,.24.3s0,0,0,.08a1.55,1.55,0,0,1-.49.36Z"/><path class="cls-4" d="M170.45,276.77c0,.06,0,.12,0,.19a.25.25,0,0,1,0,.07.08.08,0,0,1-.11,0h0a.28.28,0,0,1-.11-.23c0-.17,0-.33,0-.5a.36.36,0,0,0,0-.1,0,0,0,0,0,0,0l0,0c0,.15-.05.3-.06.44a1.35,1.35,0,0,0,0,.29v.11s0,.05-.05.06a.07.07,0,0,1-.06,0,.8.8,0,0,1-.08-.16c0-.11-.05-.22-.08-.33s0,0,0,0,0,0,0,0a.7.7,0,0,0-.07.31.71.71,0,0,0,.1.32s0,.05,0,.08a.07.07,0,0,1-.1,0,1.11,1.11,0,0,1-.24-.39,1.28,1.28,0,0,1-.06-.62,2.31,2.31,0,0,1,.18-.62,1.71,1.71,0,0,1,.31-.52,1.73,1.73,0,0,1,.5-.39c.09,0,.1,0,.12,0l.3.76c.06.17.11.34.16.51s.09.29.12.43a2.19,2.19,0,0,1,0,.36,1.84,1.84,0,0,1,0,.33,1.56,1.56,0,0,1-.14.45c0,.05-.05,0-.08,0a.48.48,0,0,1-.19-.29c0-.12,0-.23,0-.35a.51.51,0,0,0-.1-.3Z"/><path class="cls-4" d="M166.9,280.27l.29,0c.09,0,.11,0,.05.11s-.18.28-.27.43a3.17,3.17,0,0,0-.21.41,4.16,4.16,0,0,0-.16.5c0,.06,0,.08-.1.08a.89.89,0,0,1-.56-.18c-.09-.06-.16-.14-.25-.2a1.17,1.17,0,0,0-.27-.15c-.13-.05-.14-.13-.11-.27a.77.77,0,0,1,.22-.35l.08,0a2.5,2.5,0,0,0,.64-.16A2.45,2.45,0,0,1,166.9,280.27Z"/><path class="cls-4" d="M170.34,278.32a.32.32,0,0,1-.14.24l-.22.19a.24.24,0,0,1-.24.07h-.09a.16.16,0,0,1-.19,0,.68.68,0,0,0-.31-.14c-.07,0-.1-.05-.08-.13s0-.1.12-.14a.37.37,0,0,0,.28-.36.68.68,0,0,1,0-.14.2.2,0,0,1,.17-.15h.11l.2,0a.7.7,0,0,0,.14,0,.1.1,0,0,1,.12.08c0,.16.08.32.11.47A.17.17,0,0,1,170.34,278.32Z"/><path class="cls-4" d="M169.48,279.22a.26.26,0,0,1,.29.14c.07.1.12.21.19.3a1,1,0,0,0,.22.2s0,.07,0,.13a.15.15,0,0,1-.11.12.55.55,0,0,1-.18,0,1,1,0,0,0-.39,0l-.52.09h-.18a0,0,0,0,1,0,0,.05.05,0,0,1,0-.05,1.29,1.29,0,0,0,.36-.48c0-.12.09-.24.13-.35a.11.11,0,0,1,.08-.08Z"/><path class="cls-4" d="M170,279.14c.13,0,.23-.12.35-.12h0a.12.12,0,0,1,.09.1.58.58,0,0,1-.08.42.14.14,0,0,1-.17.06h0a.19.19,0,0,1-.08-.16.47.47,0,0,0-.11-.26S170,279.16,170,279.14Z"/><path class="cls-4" d="M222.85,294.58l-.09-.05a3.73,3.73,0,0,0-.81-.15l-1.16-.1a2.05,2.05,0,0,1-.34-.07c-.09,0-.1,0,0-.12.23-.28.47-.57.68-.86s.24-.38.35-.57a.13.13,0,0,1,.15-.07c.27.06.56.09.82.17a4.73,4.73,0,0,1,.77.3,7.61,7.61,0,0,1,.83.5,5.75,5.75,0,0,1,1,.95c.22.24.41.49.61.74a.81.81,0,0,1-.05,1,1.7,1.7,0,0,1-.64.44,3.93,3.93,0,0,0-.84.49,3.88,3.88,0,0,1-1.17.58,4.17,4.17,0,0,1-1.49.16c-.09,0-.1,0-.06-.11s.12-.17.17-.26,0-.09,0-.11a1.51,1.51,0,0,1-.88-.87l-.12-.24a1.93,1.93,0,0,1,.48,0,4.28,4.28,0,0,0,1,.11l.42,0,.08,0s0-.05-.07-.06a1.76,1.76,0,0,0-.67-.18,5.29,5.29,0,0,1-1-.19l0,0,.06,0,.62-.09.35-.05.07,0-.38-.16a3.59,3.59,0,0,0-.86-.14.73.73,0,0,1-.25-.08.28.28,0,0,1-.18-.28c0-.14.11-.21.24-.25a2.71,2.71,0,0,1,1.06-.12,4.75,4.75,0,0,0,1.25,0l.25,0Z"/><path class="cls-4" d="M219.47,292a2.76,2.76,0,0,1-.62.7h0a.57.57,0,0,1,0-.18c.06-.17.12-.34.19-.5s0-.09-.08-.08a.24.24,0,0,0-.11.06c-.17.19-.32.38-.48.57l-.26.26,0,0s0-.06,0-.08a3.14,3.14,0,0,0-.11-1c-.08-.27-.17-.53-.27-.79s-.22-.51-.32-.77a.12.12,0,0,1,0-.11,3.7,3.7,0,0,1,1.14-.75,4.12,4.12,0,0,1,1.94-.32c.3,0,.59.08.89.12l.43.06h.12c.16,0,.17,0,.14.2-.07.32-.13.65-.22,1s-.28.87-.44,1.29a5.69,5.69,0,0,1-.4.87c-.2.34-.44.66-.67,1a5.81,5.81,0,0,1-.84.88c-.1.09-.14.09-.23,0a1.73,1.73,0,0,0-.68-.4c-.09,0-.07-.08,0-.13.17-.26.33-.52.51-.77a3.12,3.12,0,0,0,.46-.91V292Z"/><path class="cls-4" d="M212.93,299.24l.09-.1a3.92,3.92,0,0,1,1.13-1.09.33.33,0,0,1,.26,0s0,.06,0,.08a.65.65,0,0,0,0,.39l0,.05a1.42,1.42,0,0,1,.07-.22,1.09,1.09,0,0,1,.14-.23.22.22,0,0,1,.13-.08c.3,0,.6,0,.89,0a2.57,2.57,0,0,1,.47.08c.16,0,.16.05.11.19a1.68,1.68,0,0,1-.46.66,2.67,2.67,0,0,1-.65.39,6.58,6.58,0,0,0-.76.49,8.42,8.42,0,0,0-.72.62,6.29,6.29,0,0,0-.79,1.07,3,3,0,0,1-.8.78,3.15,3.15,0,0,1-1,.46c-.08,0-.12,0-.15-.07a6.72,6.72,0,0,1-.34-2.62,3.53,3.53,0,0,1,.53-1.63c.15-.26.33-.5.49-.75a1.2,1.2,0,0,0,.11-.23.11.11,0,0,1,.12-.07h0l.94.12c.15,0,.3,0,.45,0a.3.3,0,0,1,.15.05l.14.14c.06.05,0,.09,0,.15a5.34,5.34,0,0,0-.41.56,1.44,1.44,0,0,0-.25.77A.19.19,0,0,0,212.93,299.24Z"/><path class="cls-4" d="M216,299.38a2.26,2.26,0,0,0,.47,1h0c0-.1,0-.19-.06-.29a2.91,2.91,0,0,1-.06-1,.93.93,0,0,1,.19-.31h0c.06.15.12.3.17.45s.13.39.19.58a5.32,5.32,0,0,0,.16.57,2.5,2.5,0,0,0,.42.81l.26.33.08.08,0,0c0-.1-.06-.21-.1-.31-.08-.27-.16-.53-.23-.8a8.27,8.27,0,0,1-.19-.83c0-.22-.06-.44-.09-.65a.05.05,0,0,1,0-.07.08.08,0,0,1,.08,0,.49.49,0,0,1,.23.28,1.17,1.17,0,0,0,.39.57l.06,0a.11.11,0,0,0,0-.07,1.75,1.75,0,0,0-.22-.8,4.13,4.13,0,0,1-.17-.45s0-.05,0-.08l.07,0a3.6,3.6,0,0,0,.78.27,3.12,3.12,0,0,0,1.14,0c.08,0,.12,0,.14.09a3.22,3.22,0,0,1,.06,1,3.35,3.35,0,0,1-.3,1,2.53,2.53,0,0,0-.14.49c-.07.28-.14.57-.19.87a5.1,5.1,0,0,0,0,.68c0,.2,0,.4,0,.6s0,.09-.1.05a3.28,3.28,0,0,0-.79-.35,2.92,2.92,0,0,0-.4-.1,3.52,3.52,0,0,1-.58-.15,4.93,4.93,0,0,1-.83-.41,2.75,2.75,0,0,1-1.1-1.38c-.09-.25-.16-.5-.24-.75a1.9,1.9,0,0,0-.12-.36c0-.09,0-.13.07-.17s.36-.19.53-.28Z"/><path class="cls-4" d="M213.26,293.94c0,.23,0,.23-.22.17a4.06,4.06,0,0,0-1.47-.2,6.66,6.66,0,0,0-.78,0,8.5,8.5,0,0,0-.9.25,3.36,3.36,0,0,0-1,.55.23.23,0,0,1-.23,0,4.13,4.13,0,0,1-.88-.47,2.67,2.67,0,0,1-.93-1.1l-.18-.47a.13.13,0,0,1,.06-.16,5.61,5.61,0,0,1,1.24-.86,6,6,0,0,1,1.29-.51c.33-.09.66-.13,1-.19a.1.1,0,0,1,.14.06s0,0,0,0a3.68,3.68,0,0,0,.52,1.12,6.15,6.15,0,0,0,.49.53,4.41,4.41,0,0,0,1.08.66l.63.3C213.25,293.77,213.29,293.85,213.26,293.94Z"/><path class="cls-4" d="M214.45,293.81c-.31-.11-.63-.22-.93-.35s-.73-.32-1.08-.51a5.22,5.22,0,0,1-.8-.52,1.87,1.87,0,0,1-.6-.85c-.11-.3-.23-.6-.33-.9s-.15-.54-.22-.81-.09-.4-.13-.59a1.88,1.88,0,0,1-.06-.31c0-.27-.07-.54-.1-.81,0-.08,0-.11.1-.1a5.61,5.61,0,0,1,.59.06,6.86,6.86,0,0,1,.81.21,3.44,3.44,0,0,1,.53.21,5.3,5.3,0,0,1,1.28,1c.15.14.28.3.44.43a.41.41,0,0,1,.12.45,2.67,2.67,0,0,0-.08.93.88.88,0,0,1,0,.16l-.14-.08-.21-.15,0,0,.55,1,0,0-.24-.16a10.4,10.4,0,0,1-1.28-1.29l-.21-.23h0a1.41,1.41,0,0,0,.06.22,2.65,2.65,0,0,0,1,1.24,5.67,5.67,0,0,1,.5.48.3.3,0,0,1,.05.15.15.15,0,0,1,0,.07l-.08,0c-.13-.09-.25-.19-.38-.27l-.27-.15,0,0,.06.13a4.45,4.45,0,0,0,.38.48l.78.75.1.06Z"/><path class="cls-4" d="M213.35,294.69a4.45,4.45,0,0,0-2,.46,5.38,5.38,0,0,1,1.79,0l0,0-1.1.39c-.05,0-.08.07-.11.1l.14.07a1.62,1.62,0,0,0,.62-.06,1.91,1.91,0,0,1,.67-.06.22.22,0,0,1,.15.08.15.15,0,0,1-.07.17.18.18,0,0,0-.07.05.69.69,0,0,0,0,.13h.12a1.9,1.9,0,0,0,1-.43l.1-.05c0,.1,0,.2,0,.31a1.37,1.37,0,0,1-.49,1,1.27,1.27,0,0,1-.73.26A4.7,4.7,0,0,1,212,297a5.88,5.88,0,0,0-1.25-.17,6.34,6.34,0,0,0-1.07.07c-.27,0-.53.11-.79.15a3.57,3.57,0,0,1-.86,0c-.06,0-.08,0-.07-.08s.06-.24.1-.36a2.87,2.87,0,0,1,.62-1,3.57,3.57,0,0,1,1.41-1,4.51,4.51,0,0,1,1.79-.28,4.63,4.63,0,0,1,1.28.26.82.82,0,0,1,.19.09Z"/><path class="cls-4" d="M217.12,289.63l-.23-.44c-.09-.2-.19-.4-.27-.61s-.12-.31-.18-.46-.07-.13-.18-.12-.19,0-.17-.15,0-.32,0-.47a.56.56,0,0,0,0-.12l-.09.08a1.74,1.74,0,0,0-.33.78l0,.05-.44.27s0-.06,0-.08,0-.31,0-.46,0,0,0-.06a.1.1,0,0,0-.06,0s0,0-.05,0a3.89,3.89,0,0,0-.19.42c-.05.14,0,.29-.08.43a.59.59,0,0,1-.13.23,2.57,2.57,0,0,0-.41.67c0,.09-.07.1-.14,0l-.35-.35a.22.22,0,0,1-.05-.24c.08-.27.15-.55.25-.82a6.09,6.09,0,0,1,.82-1.58,3.44,3.44,0,0,1,1.59-1.16.18.18,0,0,1,.2,0,3.78,3.78,0,0,1,.85.69,3.47,3.47,0,0,1,.85,1.56,6.56,6.56,0,0,1,.11.89.24.24,0,0,1,0,.12.22.22,0,0,1-.08.14,5.35,5.35,0,0,0-1.19.73Z"/><path class="cls-4" d="M219.26,298.37c-.27,0-.54-.05-.79-.11a2.29,2.29,0,0,1-1-.51l-.24-.23c-.05,0,0-.08,0-.12a1.54,1.54,0,0,0,.43-.45.77.77,0,0,0,0-.9,2.44,2.44,0,0,1-.34-.61.7.7,0,0,1,.06-.63,1.39,1.39,0,0,1,.25-.38.58.58,0,0,1,.51-.15,1.43,1.43,0,0,1,.77.29,1.56,1.56,0,0,1,.43.56c.13.25.26.5.4.75s.38.72.58,1.08a1.84,1.84,0,0,0,.5.58c.06,0,.06.09,0,.14a1.86,1.86,0,0,1-.82.52A7.29,7.29,0,0,1,219.26,298.37Z"/><path class="cls-4" d="M216.53,291.93a3.11,3.11,0,0,1,0,.32.29.29,0,0,1-.05.13.14.14,0,0,1-.19,0h0A.62.62,0,0,1,216,292c0-.28-.07-.56-.11-.84a1.05,1.05,0,0,0,0-.19l-.05,0,0,0c0,.24-.05.49,0,.73a3.1,3.1,0,0,0,.11.51.55.55,0,0,1,0,.18.12.12,0,0,1-.07.1.11.11,0,0,1-.11,0,1.12,1.12,0,0,1-.16-.28c-.08-.19-.14-.39-.21-.58a.12.12,0,0,0-.08-.06.07.07,0,0,0-.06.06,1.14,1.14,0,0,0-.08.52,1.45,1.45,0,0,0,.23.56c0,.05.07.09,0,.14a.12.12,0,0,1-.18,0,2.39,2.39,0,0,1-.5-.72,2.23,2.23,0,0,1-.19-1.05,3.39,3.39,0,0,1,.22-1,2.84,2.84,0,0,1,.47-.85,2.31,2.31,0,0,1,.83-.58c.14-.07.16-.05.22.08l.64,1.35c.13.29.25.6.37.9s.21.51.29.77a3.34,3.34,0,0,1,.12.63,2.62,2.62,0,0,1,0,.56,2.17,2.17,0,0,1-.18.75c0,.09-.09.07-.14,0a1,1,0,0,1-.38-.55,4.09,4.09,0,0,1-.1-.61,1.09,1.09,0,0,0-.23-.53Z"/><path class="cls-4" d="M210.64,297.22c.18,0,.35,0,.52,0s.21.06.12.2-.31.43-.45.66a3.87,3.87,0,0,0-.33.64,7.36,7.36,0,0,0-.24.8c0,.09-.08.11-.17.1a2.18,2.18,0,0,1-1.05-.43c-.16-.12-.3-.27-.47-.39a2.62,2.62,0,0,0-.51-.3.34.34,0,0,1-.23-.46,1,1,0,0,1,.35-.53.23.23,0,0,1,.15-.05,4.81,4.81,0,0,0,1.14-.14A3.84,3.84,0,0,1,210.64,297.22Z"/><path class="cls-4" d="M216.6,294.59a.45.45,0,0,1-.21.39l-.37.28a.4.4,0,0,1-.43.08.39.39,0,0,0-.15,0,.39.39,0,0,1-.37-.11,1.64,1.64,0,0,0-.57-.3c-.14-.06-.18-.1-.18-.23s.07-.17.22-.21a.51.51,0,0,0,.44-.57.87.87,0,0,1,0-.23.28.28,0,0,1,.29-.23l.2,0h.35l.24,0a.22.22,0,0,1,.23.15c.09.28.19.56.29.84A.86.86,0,0,1,216.6,294.59Z"/><path class="cls-4" d="M215.18,296a.64.64,0,0,1,.56.3,5.72,5.72,0,0,0,.39.57,2.6,2.6,0,0,0,.43.38.21.21,0,0,1,.08.23.19.19,0,0,1-.18.19.92.92,0,0,1-.33,0,2.09,2.09,0,0,0-.7-.07c-.31,0-.63,0-.94,0a2,2,0,0,1-.34,0s-.07,0-.07-.05a.09.09,0,0,1,0-.08,1.49,1.49,0,0,0,.57-.76c.07-.18.13-.37.19-.56A.14.14,0,0,1,215,296Z"/><path class="cls-4" d="M216.11,295.94c.23,0,.41-.16.63-.14l.06,0a.23.23,0,0,1,.18.19.9.9,0,0,1-.07.7.22.22,0,0,1-.3.07l0,0a.46.46,0,0,1-.17-.28.89.89,0,0,0-.25-.48Z"/><path class="cls-10" d="M208.23,210.3a2.17,2.17,0,0,1-.36,0l-2.19-.44a.69.69,0,0,1-.54-.82.69.69,0,0,1,.82-.55l2.13.44a1.87,1.87,0,0,0,1.42-.54,1.84,1.84,0,0,0,.49-1.5l-.71-5.26a.69.69,0,0,1,.6-.78.68.68,0,0,1,.78.6l.71,5.26a3.11,3.11,0,0,1-.88,2.65A3.15,3.15,0,0,1,208.23,210.3Z"/></svg>