<svg id="Layer_1" data-name="Layer 1" xmlns="http://www.w3.org/2000/svg" viewBox="0 0 395.63 175.02"><defs><style>.cls-1{fill:#636569;}.cls-2{fill:#a7a8a9;}</style></defs><title>RL_logo2018</title><path class="cls-1" d="M151.11,283.14a24.78,24.78,0,0,1-11.89-6.34c-5.05-4.73-3.56-14.06-3.56-14.06.7-4.94,3.11-9.71,5.7-14.16,2.4-4.12,6.21-8.07,8-12.39.9-2.2,1.35-5.72-.9-7.53-9.51-9.2-25.41,4.6-25.41,4.6,9.42-12.08,18.68-26.19,22-40.5,2.37-10.36-.88-21.27-13.21-25.93-6.77-2.56-15.78-3.13-22.91-1.94a55.63,55.63,0,0,0-21.61,8.66c-13.16,9-19,24-17.68,39.64a78,78,0,0,0,3,15.42,83.72,83.72,0,0,0,5,13.58l12.55-20.87a27.66,27.66,0,0,1-3-9.22c-1.58-11.31,5.52-22.79,16.48-29.26,16-9.41,26.65-4,26.65-4,11.69,5,4.06,22.39,4.06,22.39-5.65,14.27-30.71,53.49-30.71,53.49,10.5-11.28,27.14-19.24,27.14-19.24,4.63-2.33,7.53-.74,7.53-.74a2.1,2.1,0,0,1,1.28,2.29,4.32,4.32,0,0,1-.76,1.8c-2.66,3.78-8.15,12-8.15,12a45.23,45.23,0,0,0-4.57,8c-3.73,8.56-4.31,18.29,2.38,26a38.84,38.84,0,0,0,22.85,12.38c5.55.93,17.59.95,23.22.77l-19.26-14.36A25.92,25.92,0,0,1,151.11,283.14Z" transform="translate(-54.17 -164.3)"/><path class="cls-2" d="M54.2,323.86c-1.06-.25,27.81-40.71,27.23-70.62l-16,15s18.66-26.15,26.85-42.95c0,0,21,29.06-15.91,84.12A55.17,55.17,0,0,0,54.2,323.86Z" transform="translate(-54.17 -164.3)"/><path class="cls-2" d="M118.06,313.38c-47.86-7.3-60.45,13.27-60.45,13.27,19.43-8.13,51.63.75,51.63.75,20.82,5.72,42.6,9.77,64.43,8.18l-18.48-15C140.16,317.22,118.06,313.38,118.06,313.38Z" transform="translate(-54.17 -164.3)"/><path class="cls-1" d="M224.58,207.09l6.22,38.64h-6.75L218.7,208.2h-.95v37.53h-6.18V165.08h9q8.22,0,8.22,8.47v26.18Q228.75,205,224.58,207.09Zm-6.83-36.3v31.65h1.39a6.4,6.4,0,0,0,1.78-.16,2.45,2.45,0,0,0,1.65-2.55V173.55c0-1.84-.88-2.76-2.65-2.76Z" transform="translate(-54.17 -164.3)"/><path class="cls-1" d="M265.78,238q0,8.47-8.87,8.51T248.08,238V172.76q0-8.46,8.83-8.46t8.87,8.46Zm-6.17-65.28a2.38,2.38,0,0,0-2.66-2.71h0a2.38,2.38,0,0,0-2.66,2.71V238c0,1.84.89,2.76,2.66,2.76s2.7-.92,2.7-2.76Z" transform="translate(-54.17 -164.3)"/><path class="cls-1" d="M285.67,245.73V165.08h6.18V240h9.79v5.75Z" transform="translate(-54.17 -164.3)"/><path class="cls-1" d="M325.18,225.42l-1.34,20.31h-6.23l2-28.53L324,165.08h8.44l4.35,52,2,28.61h-6.22l-1.35-20.31Zm5.66-5.75-2.65-40.16-2.66,40.16Z" transform="translate(-54.17 -164.3)"/><path class="cls-1" d="M368.7,165.08h5.91v80.65h-4.35l-7.65-49.37v49.37h-5.7V165.08h4.39l7.4,49.33Z" transform="translate(-54.17 -164.3)"/><path class="cls-1" d="M394.94,165.08h9.48q8.22,0,8.23,8.47v63.71q0,8.43-8.62,8.47h-9.09Zm6.18,5.71V240h2.69c1.77,0,2.66-.91,2.66-2.72V173.55c0-1.84-.89-2.76-2.66-2.76Z" transform="translate(-54.17 -164.3)"/><path class="cls-1" d="M449.81,238q0,8.47-8.88,8.51T432.1,238V172.76q0-8.46,8.83-8.46t8.88,8.46Zm-6.18-65.28c0-1.8-.88-2.71-2.65-2.71h-.05c-1.77,0-2.65.91-2.65,2.71V238c0,1.84.88,2.76,2.65,2.76s2.7-.92,2.7-2.76Z" transform="translate(-54.17 -164.3)"/><path class="cls-2" d="M211.57,338.5V257.84h5.84v74.9h9.24v5.76Z" transform="translate(-54.17 -164.3)"/><path class="cls-2" d="M260.13,330.81q0,8.46-8.39,8.51t-8.35-8.51V265.53q0-8.47,8.35-8.47t8.39,8.47Zm-5.84-65.28c0-1.81-.84-2.71-2.51-2.71h0c-1.67,0-2.51.9-2.51,2.71v65.28c0,1.84.84,2.75,2.51,2.75s2.55-.91,2.55-2.75Z" transform="translate(-54.17 -164.3)"/><path class="cls-2" d="M278.92,257.84h8.47q7.77,0,7.77,8.47v26.18q0,6.25-5.59,8.06a13.59,13.59,0,0,1-3.87.41h-.94V338.5h-5.84Zm5.84,5.72v31.65h1.31a5.64,5.64,0,0,0,1.69-.17,2.46,2.46,0,0,0,1.56-2.55V266.31c0-1.84-.84-2.75-2.51-2.75Z" transform="translate(-54.17 -164.3)"/><path class="cls-2" d="M315.31,318.19,314,338.5h-5.87L310.05,310l4.11-52.13h8l4.11,52,1.89,28.62h-5.87L321,318.19Zm5.34-5.76-2.5-40.16-2.51,40.16Z" transform="translate(-54.17 -164.3)"/><path class="cls-2" d="M356.43,257.84H362V338.5h-4.11l-7.24-49.38V338.5h-5.38V257.84h4.15l7,49.33Z" transform="translate(-54.17 -164.3)"/><path class="cls-2" d="M395.9,257.84v5.72h-5.47V338.5h-5.8V263.56h-5.46v-5.72Z" transform="translate(-54.17 -164.3)"/><path class="cls-2" d="M425.87,261.34,418,332.74h8.22v5.76H411.4V335l7.9-71.44h-7.61v-5.72h14.18Z" transform="translate(-54.17 -164.3)"/><path class="cls-2" d="M444,257.84h5.84V338.5H444Z" transform="translate(-54.17 -164.3)"/></svg>